
<svg xmlns="http://www.w3.org/2000/svg" viewBox="0 0 2293.17 674.55"><defs><style>.a{fill:#c54b63;}</style></defs><path class="a" d="M762.55,425.42c-4.89-3.85-11.81-7-18.15-5.18a10.07,10.07,0,0,0-6.7,12.85c2.27,6.82,10.29,10.61,16.41,13.08a182.1,182.1,0,0,1,26.52,13.22c35.71,21.69,65.31,53.11,95.7,81.4L934,594.45c2.35,2.19,5.9-1.34,3.54-3.54L849.6,509.08c-24.7-23-49.9-46.64-80.44-61.71-7.77-3.83-17.77-6-24.08-12.18-3.63-3.54-4.06-9.63,2.13-10.41,4.1-.51,8.69,1.72,11.8,4.18,2.5,2,6.07-1.54,3.54-3.54Z"/><path class="a" d="M767.2,432.26l-1.5-3a2.52,2.52,0,0,0-3.42-.89,2.56,2.56,0,0,0-.9,3.42l1.5,3a2.52,2.52,0,0,0,3.42.89,2.56,2.56,0,0,0,.9-3.42Z"/><path class="a" d="M765,436c3.22,0,3.22-5,0-5s-3.22,5,0,5Z"/><path class="a" d="M758.93,432.88c12.68,10,24.9,20.26,40.54,25.14,8.85,2.77,13.7,7.2,18.42,15.07a165,165,0,0,0,12.64,18.68,132.48,132.48,0,0,0,34.22,30.05c6.56,4,14.92,6.58,20.52,11.9,6,5.65,8.37,15.08,12.51,22a118.62,118.62,0,0,0,30.22,34c11.36,8.58,26.35,15.5,40.76,11.09,12-3.68,21.87-14.51,20.08-27.65-2-14.49-15.66-24.49-24.75-34.7A195.66,195.66,0,0,1,917.5,440l-4.57,1.92c13.14,18.54,34.1,39.88,59.21,30.58,23.12-8.56,22-37.76,8.43-54.23-9.75-11.79-23.91-18.63-37.45-25.05-1.88-.88-4.33.59-3.68,2.83a25.21,25.21,0,0,1-13.19,29.61,2.52,2.52,0,0,0-.9,3.42c4.08,7.2,13.21,8.62,20.41,5.45,9-4,12.12-14.31,12.35-23.4.56-22.06-10.6-44.62-26.74-59.26-9-8.17-19.76-13.83-30.88-18.55-13-5.54-26.35-10.4-39.54-15.53-25.4-9.86-51.42-18.81-76.27-30-21.39-9.63-44.39-23.58-49.64-48.23l-2.41,3.16c7.55.28,15.2.56,22.49,2.7,7.48,2.19,13.42,6.74,18.78,12.26,8.9,9.16,16.68,19.71,29.46,23.59,10.36,3.15,21.46-.32,26.5-10.28,4.87-9.59,3.67-21.28,2.11-31.53-.43-2.83-4.91-2.08-4.91.67,0,17.29,2,41.85,22.47,47.19,17.62,4.6,31.15-12.23,39.83-25L885,259.75c-12.14,22.71-2.44,51.23,16.69,66.9C925.32,346,958.51,345,986.35,337.39c5.91-1.62,13.44-3.8,19.43-1.41,8.31,3.33,5.58,14,6.14,21.06.91,11.37,4.78,23.47,13,31.7s20.47,10.53,30.9,5.05c11.75-6.15,18.12-19.6,17-32.56a49.18,49.18,0,0,0-8.09-22.52,86.51,86.51,0,0,0-7.42-9.33c-2.07-2.4-3.49-5.75-.51-8,1.47-1.12,3.67-1.51,5.44-1.91,20.8-4.69,43.08-4.19,63.91-.11l-1.75-3.08c-1.81,12.64-3.82,26.28.91,38.55,3.41,8.87,10.56,17.06,20,19.63,12.32,3.36,22.17-6.07,34.06-6.21s20,10.65,24.45,20.4c4.09,8.88,6.54,19.94,3.08,29.44-1.55,4.24-4.62,7.83-9.28,8.59-5.59.9-10.83-2.35-15.46-5-7.17-4.13-15.11-8.69-23.52-5.27-9,3.68-12.87,14.17-15,22.9-3.27,13.51-5.22,29,1.43,41.86,5.28,10.21,16,17.91,27.76,16.76,3.17-.3,3.2-5.31,0-5-12.93,1.26-23-9.35-26-21.19s-.65-26.17,3.5-37.65c1.78-4.92,4.61-10.53,9.62-12.86s10.49-.27,15.12,2.2c7,3.77,14.15,9.27,22.6,8.26,17.66-2.12,17.47-25.8,13.23-38.46-5.85-17.51-19.84-34.53-40.12-28.5-6.39,1.9-12.64,5.57-19.46,5.56-6.38,0-12-3.48-16.07-8.21-10.53-12.26-8.18-29.71-6.06-44.45a2.56,2.56,0,0,0-1.75-3.08,169.13,169.13,0,0,0-50.15-2.4c-7.58.79-31.49,1.62-27.3,15,.77,2.44,2.56,4.43,4.23,6.3a63.32,63.32,0,0,1,7.88,10.61c3.93,6.9,6.34,14.84,5.72,22.83-1.1,14.24-14.38,28.32-29.46,24.31-12.26-3.26-18.49-16.87-20.69-28.26-2-10.44,2.64-26-9.57-31.34-11.1-4.83-24.8,1.93-35.77,4-15.34,2.88-31.55,3-46.54-1.75s-27.78-14.56-35.18-28.68c-7-13.3-8.54-29.37-1.31-42.88a2.5,2.5,0,0,0-4.32-2.52c-7.29,10.72-19.12,26.6-34.18,22.7-18-4.66-18.8-27.53-18.8-42.37l-4.91.66c1.43,9.4,2.82,21.39-2.79,29.76-8.22,12.27-24.37,5.89-33.2-2-8.42-7.53-14.73-17.29-24.43-23.38-10.17-6.39-22.44-7-34.1-7.44a2.53,2.53,0,0,0-2.41,3.17c8.42,39.56,55.94,53.22,88.58,65.89,25,9.7,50.07,19.13,74.92,29.13,21.69,8.74,40.57,20.87,51.39,42.32,5.42,10.75,9.09,23.86,7.82,36-.62,6-3,12.61-8.63,15.51-4.92,2.53-11.73,2-14.63-3.16l-.9,3.42a30.19,30.19,0,0,0,15.49-35.25l-3.67,2.82c12.47,5.91,25.48,12,34.88,22.47,8.6,9.53,13.62,24.89,7.4,37s-21.24,14.6-33.27,10.85c-14.13-4.39-24.13-16.86-32.35-28.46a2.51,2.51,0,0,0-4.57,1.92A200,200,0,0,0,945.54,523c8.37,12.08,18.43,22.22,28.24,33,5,5.57,10.2,12.32,10.32,20.19.12,7.65-5,14.06-11.45,17.64-14.79,8.17-31.6,0-43.55-9.5a114.66,114.66,0,0,1-29.44-35.4c-3.26-6.07-5.39-13.18-10.3-18.2s-12-7.46-18-10.84a128.54,128.54,0,0,1-34.26-28,142.77,142.77,0,0,1-14.52-20.67c-3.53-6-7.49-11.9-13.87-15.07-7.63-3.8-15.88-5.3-23.29-9.79-8.15-4.94-15.49-11.14-23-17-2.51-2-6.07,1.54-3.54,3.53Z"/><path class="a" d="M1170.52,490.52l0,22.53,1.24-2.16a92.61,92.61,0,0,1-85.66-4.48l1.24,2.16c.61-15.64,15.56-28.86,12.36-44.91-3.26-16.36-23-20.23-37.06-18.85-16.08,1.57-31.67,11.26-33.73,28.45a24.43,24.43,0,0,0,6.76,20c5.44,5.83,15.29,11,15.41,20,.19,14.29-17.2,18.19-28.17,19.13a186,186,0,0,1-38.83-.87l2.41,3.17a90.8,90.8,0,0,0,1.63-37.2l-2.42,3.16c30,.25,60.07-.09,90-2.65,29.74-2.56,59-8,88.21-14,27.73-5.66,55.68-11.18,82.28-21.08,15.47-5.75,54.56-27.05,59.25,2.57,2.82,17.78-10,40.71,7.3,54.36,15,11.83,39.85,4.47,51.62-8.56,6.43-7.13,10.34-17.38,4.6-26.12-2.25-3.44-5.5-6.07-8.67-8.62-3.35-2.7-8-5.72-9.25-10.08-1.73-6,4.17-10,8.82-12.27,6.94-3.41,14.39-6,21.55-8.9l20.26-8.27c6.17-2.51,13.07-4.49,18.75-8,11.42-7.05,6.39-23,4.93-33.84Q1422.1,371,1417,347a658,658,0,0,0-27.38-93.94c-.43-1.14-1.75-2.31-3.08-1.75a120.23,120.23,0,0,1-65.66,8.05l1.83,2.41,1.52-30.21c.38-7.74,1.34-16.45-3.7-23-4.63-6-12.34-8.42-19.34-10.46-8.65-2.51-17.85-4.56-26.85-2.74-12.92,2.6-24.53,16.27-17.9,29.49,3.27,6.52,9.64,10.57,15,15.22,5.67,4.93,13.15,16.52,3.54,21.6-4.93,2.61-11.49,3.48-16.87,4.78q-7.79,1.88-15.66,3.36a316.4,316.4,0,0,1-35.78,4.57,2.53,2.53,0,0,0-2.5,2.5l3.56,62a2.55,2.55,0,0,0,3.17,2.41c7.45-1.15,13.71,5.37,21.07,5.56,8,.21,11.9-7,18.29-10.47,14.26-7.66,33.34-1.5,40.2,13.14a30.22,30.22,0,0,1-17.75,41.54c-9,3-16.59.79-25.24-1.93-6.82-2.13-14.61-3.31-20.85,1.09-7.35,5.19-5.9,16-5.55,23.87a167.57,167.57,0,0,0,4.85,33,2.55,2.55,0,0,0,3.07,1.75,1800.94,1800.94,0,0,1,179-28.71l-2.41-3.16a22.31,22.31,0,0,1-8.94,12.77c-2.63,1.83-.13,6.16,2.52,4.32a27.59,27.59,0,0,0,11.24-15.76c.39-1.43-.76-3.35-2.41-3.17A1812.52,1812.52,0,0,0,1227.68,444l3.08,1.74a159.91,159.91,0,0,1-4.74-33.5c-.17-5-1.4-12.76,2.2-16.81s9.92-3.58,14.61-2.43c8.69,2.11,16,5.61,25.12,4.31a36.78,36.78,0,0,0,19.79-9.47c11.43-10.67,13.66-28.47,6.41-42.12-7-13.09-22.27-19.55-36.65-17a31.59,31.59,0,0,0-10.87,4c-4,2.42-7.14,7.25-11.51,8.74-4.67,1.58-9.71-1.55-13.9-3.24a21.29,21.29,0,0,0-11.63-1.75l3.16,2.42-3.56-62-2.5,2.5a323.73,323.73,0,0,0,53.69-8.33c6.81-1.67,16.68-2.71,21.48-8.43,3.61-4.31,3.19-10.28,1.18-15.2-2.55-6.28-7.34-10.32-12.43-14.5-5.77-4.73-12.94-10.86-10.7-19.25,5.41-20.24,32.87-13.83,46.76-8.57,4.66,1.76,9.11,4.24,11.33,8.91s1.61,10.53,1.36,15.67q-.79,16.05-1.61,32.1a2.52,2.52,0,0,0,1.84,2.41,124.89,124.89,0,0,0,68.32-8.05l-3.08-1.75a659.08,659.08,0,0,1,24.53,81.07q4.7,20.19,8.11,40.63,1.8,10.82,3.24,21.69c.85,6.44,2.93,14.22,1.66,20.65-1.43,7.26-10.51,9.15-16.49,11.59l-22.1,9-18.42,7.51c-4.92,2-10.18,3.85-14.28,7.37-6.1,5.24-6.88,13.19-1.81,19.41,5.68,7,18,11.42,17.59,21.93-.47,11.85-13.62,20.45-23.8,23.54-9.06,2.75-20.67,3.19-28.17-3.58-15.61-14.1,1.16-39.44-6.27-56.7-8.76-20.31-33.77-12.73-49.19-6.26-25.39,10.65-51.6,17.56-78.51,23.21-32.25,6.77-64.59,13.58-97.41,16.84-32.48,3.23-65.16,3.66-97.78,3.38a2.55,2.55,0,0,0-2.41,3.17,84.36,84.36,0,0,1-1.62,34.54,2.53,2.53,0,0,0,2.41,3.16,188.6,188.6,0,0,0,33,1.26c8.52-.43,17.55-1,25.33-4.86,6.89-3.36,12.57-9.74,13.52-17.55.78-6.47-2.45-12-6.86-16.48-5.66-5.73-13.31-10.19-15-18.68-1.81-9,2.85-18.4,10-23.69,7.53-5.56,17.2-7.32,26.39-6.94,8,.33,17.77,2.64,22.35,9.94,5.1,8.13.62,17.72-3,25.46-3.5,7.56-7.15,15.09-7.48,23.57a2.49,2.49,0,0,0,1.23,2.16,97.83,97.83,0,0,0,90.71,4.48,2.45,2.45,0,0,0,1.24-2.16l0-22.53c0-3.21-5-3.22-5,0Z"/><path class="a" d="M-2.16,81.36c9.77,19.06,25.37,36.08,40.56,50.85,39.75,38.64,89.56,65.87,142.13,82.73,38.39,12.32,78.4,19.2,118.58,22a654.93,654.93,0,0,0,75.19.82c3.05-.14,5.81-.52,8.78.09l10,2.05c5,1,10.05,2.33,15.13,3.06,24.66,3.57,51.37-2.3,74.71-9.91,25-8.16,48.85-19.63,72.63-30.84,12.56-5.92,25.13-11.82,38-17.16,12.52-5.22,25.37-9.65,37.7-15.31,24.82-11.39,45.53-30.84,73.76-33.44,14.49-1.34,29,.6,43.27,3.21,4.37.8,10.4,3.29,14.71,2.19,1.37-.35,3-1.85,4.42-1.85.73,0,3.58,1.67,4.45,2l5.59,2.07L865,176.35c26.3,9.73,54.06,18.54,77,35.15,11.38,8.24,19.44,18.58,22.24,32.55,2.93,14.59,3.12,30.11,3.41,44.94.3,15.22-.17,30.43-1.32,45.61-.24,3.21,4.76,3.19,5,0,1.2-15.84,1.66-31.72,1.28-47.6-.34-14.12-.75-28.62-3.22-42.56a53.24,53.24,0,0,0-16.9-30.86C943,205,931.57,198.52,920.14,193c-26.26-12.72-54.47-21.68-81.8-31.79l-42.86-15.86L775,137.75c-2.51-.93-6.08-3.15-8.78-2.76-1.35.19-2.58,1.32-3.91,1.64-2.36.57-4.77-.38-7.28-.87-3.64-.71-7.29-1.39-11-2a208.92,208.92,0,0,0-20.87-2.55c-13.45-.87-27.16.17-39.91,4.82-11.85,4.33-22.49,11.21-33.2,17.77a238,238,0,0,1-37.77,18.49c-25.24,9.88-49.68,21.2-74.23,32.67-24,11.21-48.43,22.06-74.25,28.41-20.47,5-42.06,7.37-62.84,3.1-6.1-1.25-12.27-3-18.45-3.78-3.77-.51-7.83.1-11.63.25q-10,.41-20.06.52c-45,.5-90.12-3.41-134-13.67C157.73,206,100.62,180.27,54.52,140.23A269.58,269.58,0,0,1,2.7,79.85c-.2-.32-.37-.67-.54-1C.69,76-3.63,78.5-2.16,81.36Z"/><path class="a" d="M2307.47,617.88c-47-14-91.63-35-134-59.56-41.89-24.3-81.68-52.16-119.67-82.15-33.44-26.4-65.55-54.47-96.43-83.81q-32.76-31.14-63.58-64.23c-7.9-8.52-15.74-17.1-23.24-26l-6-7.08a2.55,2.55,0,0,0-3-.39c-20.58,9.34-35.39-16.85-44.67-30.55q-17-25.15-33.87-50.45-34.23-51.39-67.67-103.31a2.54,2.54,0,0,0-3.42-.9l-29.64,19.58c-8.48,5.61-17.17,11-25,17.55-14.66,12.19-23.13,28.79-26.74,47.35-3.9,20.09-3.16,41.12-.74,61.35a318.81,318.81,0,0,0,14.52,63.42c26.43,78.84,77,148.48,141.05,201,18.65,15.3,37.88,30.26,57.68,44,18.07,12.6,37.89,23.28,60.27,24.77,3.22.22,3.19-4.76,0-5-28.85-2.18-57.72-4.16-86.55-6.55-6.7-.55-13.46-1.28-19.88-3.4-6.8-2.24-12.62-6.27-18.2-10.65-11-8.63-21.8-17.46-32.59-26.31-20.76-17-40.85-34.74-60.21-53.34-16.89-16.23-33.62-32.72-52-47.33-20-15.91-41.88-29.35-66.46-36.79-2.44-.74-4.14,2.43-2.44,4.18L1597,436.11l3-3.93c-7.33-4.45-14.53-.42-20.6,4.27-3.59,2.78-6.9,6-10.69,8.52a47.17,47.17,0,0,1-14.13,5.88c-9,2.41-18.28,3.77-26.64,8-8.69,4.44-15.67,11.45-23.25,17.47-7.16,5.68-15.21,10.25-24.59,10.35-10.6.11-18.8-7-17.87-18.09,1-11.47,10.3-19.55,18.84-26.06,9-6.83,18.11-13.46,27.6-19.54,17.59-11.29,37-20.09,52.66-34.14s26.82-33.88,37.39-52.07c10.45-18,18.79-37.05,20-58.06s-3.42-41.77-4.17-62.7c-.42-11.77.43-23.73,4.64-34.83,4.46-11.76,12.69-21.41,21.21-30.44,17.94-19,36.93-37.07,56.6-54.29,1.56-1.36.37-4.48-1.77-4.27-23.51,2.29-47.29,6.32-68.31,17.65-5,2.68-9.78,5.79-15.05,7.85-6.36,2.48-13.07,2.88-19.82,3-11.21.15-22.42,0-33.63,0-42.89.06-89.36,1.73-126.06,26.74-20.2,13.76-36.44,33.1-53.3,50.57l-27.84,28.84c-8.07,8.35-16.75,16.47-23.16,26.23-5.43,8.26-9.07,18.41-6.09,28.26,2.72,8.95,10.18,15.95,18.24,20.25a50.13,50.13,0,0,0,53.67-4.48c5.25-4,9.88-8.76,15.06-12.85a90.19,90.19,0,0,1,16.25-10c11.65-5.74,24-9.88,35.4-16.18,18.15-10.05,35.76-30.51,28.94-52.59-.83-2.65-4.92-2.22-4.92.66,0,17.65,28.65,17.05,40.19,17.21,11,.14,37.37-.39,35.26-17.81a2.51,2.51,0,0,0-4.91-.66c-5.49,14.74,1.57,29.72,10.43,41.46,4.81,6.39,11.1,12.34,14.86,19.43,3.4,6.43-2.22,8.19-7.37,9.25-4.73,1-9.48,1.85-14.24,2.67a462.29,462.29,0,0,1-56.89,6.16c-17.69.82-35.27.13-53-.27-18-.41-36.32.61-52.65,9-2.86,1.48-.34,5.79,2.52,4.32,16-8.25,34.2-8.75,51.86-8.29,18.72.5,37.32,1,56,0A474.3,474.3,0,0,0,1563,282c6.31-1.12,16.77-1.23,21.48-6.35s.94-11.83-2.43-16.43c-11.11-15.15-29.84-32.2-22.09-53l-4.91-.67c1.65,13.64-22.15,12.91-30.26,12.81-8.27-.12-35.17,1-35.19-12.21l-4.91.67c6.48,20.93-11.87,39.22-28.81,48.13-17.81,9.36-37.45,14.56-53,27.84-8.18,7-15.61,14.58-26.21,17.72a45.94,45.94,0,0,1-28.44-.86c-9.54-3.43-19.46-10.84-21.82-21.2-2.56-11.25,4.68-22.13,11.58-30.3,7.55-8.95,16.12-17.12,24.25-25.54l25.12-26c15.75-16.31,31-34.31,50.22-46.65,35-22.42,78.12-24.14,118.38-24.27,11.19,0,22.37.09,33.55,0,11.89-.08,22.07-1.67,32.6-7.43,11.16-6.11,22.18-11.35,34.54-14.65,12.64-3.36,25.61-5.15,38.6-6.42l-1.77-4.27q-27.54,24.12-53,50.5c-14.67,15.26-27.11,31-30.08,52.56-2.95,21.37,1.63,42.82,3.06,64.13.74,11.05.7,22.23-1.66,33.1-2.56,11.74-7.38,22.82-13,33.37-5.27,9.81-11.22,19.24-17.16,28.64-6.09,9.65-12.49,19.19-20.67,27.21-16.2,15.87-37.49,25-56.29,37.24-9.6,6.25-18.92,13-28,20-7.42,5.76-14.62,12.41-17.82,21.48-2.84,8-2.14,17.6,3.94,24,5.1,5.35,12.8,7,20,6.39,22.42-2,34-24.31,54.36-31.06,10.44-3.46,21.82-4.27,31.59-9.64,7.75-4.27,19.24-20.19,28.85-14.36,2.45,1.48,5-1.91,3-3.93l-31.93-32.73-2.43,4.18c46.77,14.15,81.91,49.88,116.22,82.84,19.36,18.6,39.45,36.3,60.2,53.33,10.79,8.86,21.63,17.67,32.6,26.31,9.85,7.77,19.74,12.77,32.25,14.53,15.34,2.16,31,2.64,46.46,3.8l49.45,3.74v-5c-19.71-1.31-37.42-10.4-53.56-21.22-17.65-11.83-34.5-25.14-51.15-38.32-31.57-25-60.34-53-84.65-85.19a437.42,437.42,0,0,1-58.18-103.21c-15.14-38.48-24.89-80.41-22.6-122,1.15-20.84,6.35-42.53,21.42-57.83,8.14-8.27,18.1-14.44,27.72-20.81l32.11-21.21-3.42-.9q28.67,44.49,57.91,88.62,14.34,21.65,28.84,43.21c9.14,13.6,17.74,28,28,40.74,9.18,11.39,23.66,20.18,38.28,13.54l-3-.39c7.93,9.36,16,18.59,24.26,27.64q29,31.61,59.89,61.33c30.08,29,61.35,56.87,93.88,83.15,37.36,30.18,76.4,58.41,117.48,83.33,41.75,25.33,85.78,47.4,132.1,63.06q8.7,2.94,17.5,5.56c3.09.92,4.41-3.9,1.32-4.82Z"/><path class="a" d="M1374.09,302.93c-28,2.69-55.34,23.75-54.24,53.94.46,12.81,5.94,25.71,16.19,33.7,6.53,5.09,14.52,7.61,22.52,9.31a237.27,237.27,0,0,0,27.56,4.24c20.13,1.87,38.42-2,57.72-7.29a226.18,226.18,0,0,1,30.69-6.46c8.94-1.15,19.21-2.76,28.16-1,4.4.86,9,3.2,10.28,7.85,1.7,5.87-3.47,8.35-7.85,10.58a114.33,114.33,0,0,0-18.34,11.8c-11.17,8.65-21.1,18.71-31.67,28.05-12.1,10.68-25.51,20.73-41.62,24.13-9.9,2.1-22.62.83-23.09-11.88-.39-10.68,8.71-18.36,16.06-24.69,2.44-2.11-1.11-5.63-3.54-3.54-10.42,9-24.33,24.13-14.36,38.61,8.58,12.46,28.1,7,39.38,2,28.06-12.36,45.9-39.36,71.42-55.51,5.48-3.47,14-5.76,17.49-11.6,3.37-5.67.63-13-4.2-16.85-6.16-4.95-14.79-4.67-22.24-4.33a202,202,0,0,0-29.51,3.57c-21,4.11-40.81,12.34-62.45,12.2-11.21-.07-22.34-1.66-33.35-3.68-9.27-1.71-19.06-3.75-26.55-9.86-13.62-11.12-17.26-32-10.29-47.78,7.92-17.89,26.88-28.69,45.83-30.51,3.18-.3,3.21-5.31,0-5Z"/><path class="a" d="M1378.07,322.62c-1.72,19.51-2.68,40.9,10.43,57l1.77-4.26c-9.7.23-20.45,1.72-30-.44-9.24-2.08-14.47-9.14-16.93-17.93s-3.65-19.26,4.47-25.29,19.1-4.66,28.55-3.53v-5c-14.07-.12-28.88,3.22-40.85,10.86-5.47,3.49-7.3,7.63-8.26,13.91-1,6.62-1.63,13.52,1.34,19.76,2.65,5.58,7.61,9.51,12.64,12.87,6.47,4.32,13.16,8.34,19.74,12.48,6,3.75,11.94,7.43,18.77,9.35,7.4,2.07,15.14,2.33,22.77,2.2,3.21-.06,3.22-5.06,0-5-13,.23-24.2-1.73-35.39-8.6-5.16-3.17-10.26-6.44-15.38-9.67s-10.57-6.19-14.81-10.49c-4.92-5-6-11.12-5.34-17.88.31-3.07.54-6.65,1.76-9.53,1.29-3,3.88-4.68,6.68-6.25a73,73,0,0,1,36.33-9c3.3,0,3.11-4.63,0-5-11.06-1.32-23.3-2.27-32.48,5.3-8.25,6.81-8.15,17.27-6.07,26.95,2,9.32,6.78,18.49,15.83,22.57,11,5,25,2.64,36.63,2.37a2.53,2.53,0,0,0,1.76-4.27c-12.1-14.84-10.53-35.55-9-53.44.28-3.21-4.72-3.19-5,0Z"/><path class="a" d="M939.67,339.46c6.07,19.54,12.58,40,26.45,55.53,7.39,8.3,17.69,13.31,24.91,21.68,5.69,6.6,8.42,15.31,8.55,23.94.26,18.19-10.45,35.09-28.4,39.94-21.3,5.75-46.59-1.47-66.5-9.4a170.49,170.49,0,0,1-55.19-35.62c-8.15-7.88-14.9-17.29-23.78-24.4a59.89,59.89,0,0,0-27.66-11.89c-21.57-3.59-44.5,1-64.43,9.47-11.64,4.93-22.32,11.68-33.47,17.59a257,257,0,0,1-32.83,14.54c-50.26,18.26-104.41,22-157.46,21.12-3.25,0-3.18,4.78,0,5q82.21,5.76,164.69,4.4l-2.16-3.76c-17,25.73-47.67,40.42-74.58,53.43a511.75,511.75,0,0,1-91.45,33.85,519.87,519.87,0,0,1-53.82,11.24c-2.82.43-2.11,5,.66,4.91,37.4-.75,74-9,109.79-19.43,18.1-5.29,36-11.12,54-16.81,18.2-5.76,36.61-12.28,55.34-16.09a52.62,52.62,0,0,1,28.55,1.68c8.76,3.08,16.75,8,24.56,13,16.88,10.64,33.8,21.22,50.87,31.57,33.81,20.5,67.88,41.08,102.89,59.49,14.94,7.85,32.39,11.62,45.89-1.12,12.15-11.46,12.23-30.26,1.84-42.84-2.05-2.48-5.57,1.07-3.53,3.53,11.32,13.72,6.21,34.76-10.5,41.25-17,6.61-35.23-7.29-49.35-15.21q-49.12-27.54-97.15-57c-15.57-9.55-30.8-19.74-46.57-29-14-8.22-28.67-13.44-45.11-10.83-17.6,2.8-35,9.22-52,14.54s-33.58,10.75-50.44,15.86c-38.77,11.76-78.4,21.61-119.11,22.43l.66,4.91c65-10.07,130.43-32.14,186.34-67.24,14.15-8.88,27.24-19.51,36.51-33.58a2.52,2.52,0,0,0-2.16-3.76q-82.39,1.35-164.69-4.4v5c48,.8,96.86-2.19,143.11-16.1,23.69-7.13,45.1-17.8,66.7-29.68s46.3-19.91,71.23-17.83c12.47,1,24.48,5.21,33.94,13.57,8.84,7.82,15.89,17.47,24.63,25.45a176.57,176.57,0,0,0,54.63,33.9c19.83,7.76,43.8,14.12,65.11,9.87,17.38-3.47,30.11-16.35,34.07-33.55A47.8,47.8,0,0,0,1002,426c-3.51-9.78-10.35-16.28-18.49-22.42-10.69-8.06-19-17-25.21-28.94-6-11.56-10-24.06-13.82-36.47-1-3.06-5.78-1.76-4.82,1.33Z"/></svg>
