<svg id="Camada_1" data-name="Camada 1" xmlns="http://www.w3.org/2000/svg" viewBox="0 0 2066.02 1378.36"><defs><style>.cls-1{fill:#d6d6d7;}.cls-2{fill:none;stroke:#d6d6d7;stroke-miterlimit:10;stroke-width:5px;}</style></defs><title>balaolingo</title><path class="cls-1" d="M154.8,0H2066V848.79c-171,256-763.38,476.29-763.38,476.29,240.4-202.2,173-413.39,173-413.39-76.38-200-469.55-121.32-469.55-121.32-170.75,40.44-285.33,47.18-285.33,47.18-474,2.25-593.44-716.69-593.44-716.69L109.56,0Z"/><path class="cls-2" d="M2079.76,868.18c-147.28,268.26-843.8,495.9-843.8,495.9,277.48-277.32,222.45-439.66,222.45-439.66C1413,736.47,964.22,800.53,964.22,800.53c-179.7,41.3-300.29,48.18-300.29,48.18C165,851,39.36,116.86,39.36,116.86L16.56-15.56"/></svg>