<svg id="svg" xmlns="http://www.w3.org/2000/svg" xmlns:xlink="http://www.w3.org/1999/xlink" width="400" height="147.55501222493888" viewBox="0, 0, 400,147.55501222493888"><g id="svgg"><path id="path0" d="M236.212 31.674 C 204.868 33.567,186.749 68.796,203.426 95.420 C 208.597 103.675,218.224 111.171,226.195 113.147 C 226.752 113.285,226.833 113.586,226.833 115.526 C 226.834 119.052,225.369 122.063,222.034 125.390 C 220.385 127.035,220.120 127.567,220.196 129.077 C 220.353 132.200,222.508 133.070,228.729 132.520 C 241.489 131.392,249.981 124.781,252.353 114.127 L 252.650 112.789 254.229 112.164 C 269.482 106.123,279.665 91.925,280.565 75.444 C 280.756 71.933,280.298 70.771,278.368 69.878 C 277.555 69.502,254.528 69.470,253.457 69.844 C 250.254 70.960,250.121 75.450,253.249 76.862 C 253.693 77.062,254.446 77.081,263.295 77.112 L 272.861 77.147 272.861 77.440 C 272.861 77.602,272.725 78.467,272.559 79.362 C 270.260 91.765,261.756 101.623,249.756 105.798 C 246.520 106.923,245.685 107.806,245.357 110.452 C 244.528 117.133,240.652 121.699,233.946 123.895 C 232.152 124.483,232.214 124.529,232.830 123.075 C 234.489 119.150,234.837 115.088,233.847 111.186 C 233.045 108.025,232.154 107.157,228.462 105.939 C 201.918 97.181,196.187 62.827,218.460 45.981 C 233.140 34.878,254.335 37.614,265.685 52.078 C 267.227 54.044,268.928 54.575,270.755 53.662 C 273.362 52.359,273.526 49.761,271.184 46.873 C 265.290 39.605,256.873 34.454,247.738 32.527 C 243.810 31.699,240.214 31.433,236.212 31.674 M324.965 31.668 C 299.691 33.299,281.762 56.634,286.624 81.569 C 289.967 98.713,304.102 112.114,321.543 114.674 C 342.883 117.806,363.245 103.987,368.201 83.007 C 369.029 79.503,369.248 77.489,369.250 73.350 C 369.265 49.194,348.996 30.117,324.965 31.668 M37.447 32.759 C 36.580 33.196,36.034 33.762,35.621 34.650 L 35.332 35.269 35.331 73.361 L 35.330 111.452 35.703 112.198 C 36.104 113.000,36.623 113.529,37.442 113.966 L 37.958 114.242 59.780 114.242 L 81.601 114.242 82.118 113.966 C 84.969 112.443,84.969 108.462,82.118 106.938 L 81.601 106.663 62.317 106.631 L 43.033 106.598 43.002 70.811 L 42.971 35.024 42.695 34.508 C 41.669 32.589,39.327 31.808,37.447 32.759 M98.496 32.573 C 97.360 32.978,96.366 34.067,96.091 35.208 C 95.997 35.599,95.968 46.718,95.993 73.655 L 96.027 111.553 96.323 112.154 C 97.815 115.185,102.408 114.973,103.506 111.824 C 103.852 110.833,103.854 35.872,103.508 34.881 C 102.845 32.981,100.448 31.876,98.496 32.573 M122.288 32.759 C 121.422 33.196,120.875 33.762,120.462 34.650 L 120.174 35.269 120.172 73.361 L 120.171 111.452 120.544 112.198 C 121.977 115.067,126.209 115.021,127.549 112.121 L 127.812 111.553 127.873 79.495 L 127.934 47.438 154.270 80.394 C 170.461 100.655,180.773 113.461,181.042 113.638 C 182.669 114.712,184.635 114.515,186.021 113.139 C 187.292 111.879,187.164 116.342,187.164 73.271 L 187.164 35.461 186.912 34.788 C 185.848 31.944,181.632 31.522,180.021 34.097 C 179.359 35.157,179.406 32.889,179.340 67.256 L 179.279 99.121 152.934 66.166 C 123.107 28.856,126.220 32.506,124.150 32.421 C 123.109 32.379,122.999 32.399,122.288 32.759 M332.518 39.476 C 356.738 43.189,369.444 70.058,356.877 90.986 C 344.709 111.249,315.786 113.261,300.995 94.872 C 283.707 73.380,297.105 42.146,324.878 39.197 C 326.184 39.058,330.923 39.231,332.518 39.476 " stroke="none" fill="#000" fill-rule="evenodd"></path></g></svg>
