<svg xmlns="http://www.w3.org/2000/svg" viewBox="0 0 1951.9 1803.28"><defs><style>.a{fill:#EEEAE5}</style></defs><title>alfabeto</title><path class="a" d="M148.12,76.53,258.46,305.14H232.92l-37.21-75.22H93.78L56.92,305.14H30.54L142.33,76.53Zm-3,48.57-40.55,82.75h80.89Z"/><path class="a" d="M387,76.53h46.65q28.14,0,43.26,6.45a53.19,53.19,0,0,1,32.66,49.49,51.92,51.92,0,0,1-7.69,27.75q-7.68,12.51-22.57,20.28,18.45,6.06,28.39,14.22a57.22,57.22,0,0,1,21,44.83q0,27.51-20.83,46.55t-55.9,19H387Zm23.16,22.38V172.1h13.54q24.66,0,36.27-4.42a39,39,0,0,0,18.38-14,35.88,35.88,0,0,0,6.77-21.22q0-15.69-11.37-24.63t-36.19-8.93Zm0,96.2v87.65h29.33q25.93,0,38-4.9a42.9,42.9,0,0,0,19.42-15.3,38.92,38.92,0,0,0-3-49.12q-10.31-11.34-28.34-15.54-12.09-2.79-42.07-2.79Z"/><path class="a" d="M887.06,119,868.4,132.79a101.44,101.44,0,0,0-37.08-29.46q-21.63-10-47.53-10a108,108,0,0,0-52.43,13.13q-24.14,13.14-37.4,35.28t-13.27,49.81q0,41.81,29.67,69.78t74.88,28q49.69,0,83.16-37.61l18.66,13.67A118.75,118.75,0,0,1,842.9,299q-26.46,11.89-59.11,11.89-62.09,0-97.95-39.94-30.09-33.72-30.08-81.44,0-50.19,36.43-84.47t91.28-34.26q33.13,0,59.84,12.66A115.41,115.41,0,0,1,887.06,119Z"/><path class="a" d="M1025.71,305.14V76.53h49.06q53.07,0,77,8.23,34.43,11.65,53.81,40.41T1225,193.71q0,34.35-15.36,60.45t-39.89,38.55q-24.54,12.44-68.77,12.43Zm22.68-21.6h27.34q49.07,0,68-5.9,26.7-8.38,42-30.21T1201,194.09q0-33.08-16.57-56.52t-46.16-32.14q-22.2-6.53-73.18-6.52h-16.73Z"/><path class="a" d="M1362.2,76.53h135.6V98.91h-112v71.64h111v22.38h-111v89.83h111v22.38H1362.2Z"/><path class="a" d="M1629.85,76.53H1748.4V98.91h-94.9v71.64h94.9v22.38h-94.9V305.14h-23.65Z"/><path class="a" d="M279.69,476.57l-18.33,16.78A140.55,140.55,0,0,0,218,464.83q-23.56-9.7-45.92-9.71a112.44,112.44,0,0,0-53,13.21q-25.18,13.21-39,35.82T66.25,551.94q0,25.8,14.31,49a100.38,100.38,0,0,0,39.57,36.53,117.1,117.1,0,0,0,55.33,13.28q36.53,0,61.77-19.89t29.92-51.6H191.71V557.23h102q-.33,53-32.57,84.15t-86.3,31.16q-65.62,0-103.91-43.2-29.43-33.26-29.43-76.93A114.89,114.89,0,0,1,58.37,492a118.33,118.33,0,0,1,46.32-43.75q29.44-15.76,66.59-15.77a152.69,152.69,0,0,1,56.62,10.49Q254.44,453.41,279.69,476.57Z"/><path class="a" d="M429.6,438.18h23.65v95.89H573.72V438.18h23.65V666.79H573.72V556.45H453.25V666.79H429.6Z"/><path class="a" d="M742.78,438.18h23.64V666.79H742.78Z"/><path class="a" d="M989.36,438.18H1013V592.5q0,35.6-5.71,49.5a46.55,46.55,0,0,1-19.06,22.23q-13.35,8.31-32.33,8.31a78,78,0,0,1-28.23-5.36q-13.92-5.35-30.8-18.88l12.54-18.19q18.54,12.6,30.79,17.72A40.21,40.21,0,0,0,956,651.25a31.66,31.66,0,0,0,30.06-21.6q3.3-9.79,3.31-37.92Z"/><path class="a" d="M1161.78,438.18h24.13V524l94.58-85.79h31.77L1198.62,540.75l122.48,126h-31.49l-103.7-106.48V666.79h-24.13Z"/><path class="a" d="M1447.61,438.18h23.65V644.72h91v22.07H1447.61Z"/><path class="a" d="M1680.2,666.79l33.87-228.61h3.85l96.18,187.58,95.27-187.58h3.79l34,228.61H1924L1900.64,503.3,1817,666.79h-6l-84.66-164.74L1703,666.79Z"/><path class="a" d="M51.61,1028.45V799.83h5.15L214.23,975.08V799.83h23.32v228.62h-5.31L76.06,855.33v173.12Z"/><path class="a" d="M499,794.08q53.76,0,90,34.66t36.22,85.32q0,50.21-36.14,85.17t-88.12,35q-52.63,0-88.85-34.82t-36.21-84.23A120.08,120.08,0,0,1,437.36,810,124.26,124.26,0,0,1,499,794.08Zm1.05,22.23a100,100,0,0,0-49.79,13.22,96.81,96.81,0,0,0-36.73,35.62q-13.21,22.4-13.21,49.92,0,40.75,29.24,68.83T500.06,1012a103.9,103.9,0,0,0,51-12.91,94.11,94.11,0,0,0,36.58-35.3q13.13-22.39,13.13-49.78,0-27.21-13.13-49.22t-37-35.23A102.65,102.65,0,0,0,500.06,816.31Z"/><path class="a" d="M763.69,799.83h47.12q40.55,0,54.69,3.42,20.26,4.82,33.14,19.82t12.87,37.68q0,22.85-12.55,37.69t-34.58,20q-16.1,3.74-60.16,3.73H787.33v106.31H763.69Zm23.64,22.38v77.55l40,.47q24.29,0,35.55-4.26a36.29,36.29,0,0,0,17.69-13.81,37.3,37.3,0,0,0,6.44-21.33,36.77,36.77,0,0,0-6.44-21,35.18,35.18,0,0,0-17-13.57q-10.53-4-34.5-4Z"/><path class="a" d="M1248.28,1003.61l35.11,42.86h-29.12l-24.09-29.55q-29,17.28-65.3,17.28-52.55,0-88.7-34.82T1040,915.15a120.1,120.1,0,0,1,61.65-105.22q28.53-15.84,62.61-15.85,52.56,0,88.65,34.74t36.09,85.4q0,26.41-9.9,48.33T1248.28,1003.61Zm-14.63-17.88q30.91-29.09,30.92-71.71,0-27.24-13.11-49.25t-36.92-35.24a101.83,101.83,0,0,0-100.21-.08,95.92,95.92,0,0,0-36.67,35.62q-13.19,22.47-13.19,50,0,40.75,29.12,68.83t70.29,28.07a102.61,102.61,0,0,0,51.49-13.23l-52.69-64.63h28.7Z"/><path class="a" d="M1429.44,799.83h47.12q39.42,0,53.41,3.12,21.06,4.66,34.26,20t13.19,37.74q0,18.68-9.09,32.83t-26,21.4q-16.89,7.23-46.64,7.39l85.08,106.15h-29.25L1466.45,922.3h-13.37v106.15h-23.64Zm23.64,22.38v77.71l40.76.31q23.69,0,35-4.35A36.24,36.24,0,0,0,1546.6,882,37.64,37.64,0,0,0,1553,860.6a36.12,36.12,0,0,0-6.45-20.9,35.66,35.66,0,0,0-16.91-13.45q-10.47-4-34.8-4Z"/><path class="a" d="M1694.83,985.86l20.11-11.65Q1736.18,1012,1764,1012a48.38,48.38,0,0,0,22.36-5.36,38.74,38.74,0,0,0,15.92-14.38,36.19,36.19,0,0,0,5.47-19.11q0-11.5-8-22.54-11.1-15.23-40.54-36.67-29.6-21.6-36.83-31.24-12.54-16.17-12.55-35A51.53,51.53,0,0,1,1738,801.15a61.8,61.8,0,0,1,29.2-7.07,63.85,63.85,0,0,1,31.28,8q14.57,8,30.8,29.45L1810,845.68q-13.35-17.1-22.76-22.54a40.31,40.31,0,0,0-20.51-5.43q-14.31,0-23.4,8.39a27,27,0,0,0-9.09,20.67,34.13,34.13,0,0,0,3.22,14.45q3.21,7,11.74,15.23,4.66,4.35,30.56,22.85,30.72,21.91,42.15,39t11.42,34.34q0,24.87-19.55,43.21t-47.53,18.34a71.45,71.45,0,0,1-39.08-11.12Q1709.64,1012,1694.83,985.86Z"/><path class="a" d="M28,1183.86v-22.37H157.61v22.37H104.85V1390.1H80.73V1183.86Z"/><path class="a" d="M283.72,1161.49h23.64v138q0,24.55,1,30.62,1.76,13.52,8.2,22.61T336.31,1368a63.68,63.68,0,0,0,26.86,6.14,54.44,54.44,0,0,0,22.52-4.82,49.88,49.88,0,0,0,18-13.36,53.93,53.93,0,0,0,10.61-20.67q2.42-8.7,2.42-35.75v-138h23.64v138q0,30.62-6.19,49.5t-24.77,32.87q-18.59,14-45,14-28.63,0-49.06-13.21t-27.34-35q-4.35-13.37-4.34-48.18Z"/><path class="a" d="M571.79,1161.49h25.74L676,1338.11l79.69-176.62h25.74L678.44,1390.1h-5.15Z"/><path class="a" d="M899,1161.49h24.29l48.33,164.73,67.83-164.73h4.91l67,164.73,49.16-164.73h24.11l-68,228.61h-4.39l-70.22-173-71.57,173H966Z"/><path class="a" d="M39,1523.14H66.64l56.65,89,57-89h27.28L137,1633.6l75.24,118.15H184.57l-61.44-96.47L61.5,1751.75H33.84l75.58-118Z"/><path class="a" d="M324.57,1523.14h27.21l60.54,94.28,59.59-94.28h27.34L424.3,1642.5v109.25H401V1642.5Z"/><path class="a" d="M620.21,1545.21v-22.07H745l-98.85,206.23H740v22.38H609.59l99.71-206.54Z"/></svg>
