<svg xmlns="http://www.w3.org/2000/svg" viewBox="0 0 55.91 233.29"><defs><style>.a{fill:#EEEAE5;}</style></defs><title>pontovirgula</title><path class="a" d="M19.51,240.76c-.17-.28-1.86-1.4-2.09-1.62-9.83-9.66-9.19-15.83,2.65-23.42,8.37-5.36,15.3-11.67,17.22-22.08.68-3.7-.48-5.1-4.19-5.52-10.4-1.17-18.68-6.23-21.79-16.37-2.87-9.36-2.21-18.9,5.84-26.29s17.31-10,28.06-6.47c10.44,3.44,16,11.34,18.52,21.2,7.21,28.21-6.36,62-29.95,75.73-2,1.19-3.89,2.7-5.83,4.06C23.88,241.78,23.69,243,19.51,240.76Z" transform="translate(-9.76 -8.67)"/><circle class="a" cx="29.98" cy="25.59" r="25.59"/><path class="a" d="M28,240" transform="translate(-9.76 -8.67)"/><path class="a" d="M18,240" transform="translate(-9.76 -8.67)"/></svg>
