<svg height="512" viewBox="0 0 512 512" width="512" xmlns="http://www.w3.org/2000/svg"><g id="Chat-7" data-name="Chat"><path d="m400 8h-288a8 8 0 0 0 -8 8v208a8 8 0 0 0 8 8h64v24a8 8 0 0 0 13.657 5.657l29.656-29.657h180.687a8 8 0 0 0 8-8v-208a8 8 0 0 0 -8-8zm-8 208h-176a8 8 0 0 0 -5.657 2.343l-18.343 18.344v-12.687a8 8 0 0 0 -8-8h-64v-192h272z"/><path d="m256 144a24 24 0 1 0 -24-24 24.027 24.027 0 0 0 24 24zm0-32a8 8 0 1 1 -8 8 8.009 8.009 0 0 1 8-8z"/><path d="m192 144a24 24 0 1 0 -24-24 24.027 24.027 0 0 0 24 24zm0-32a8 8 0 1 1 -8 8 8.009 8.009 0 0 1 8-8z"/><path d="m320 144a24 24 0 1 0 -24-24 24.027 24.027 0 0 0 24 24zm0-32a8 8 0 1 1 -8 8 8.009 8.009 0 0 1 8-8z"/><path d="m400 280h-64v-24a8 8 0 0 0 -13.657-5.657l-29.656 29.657h-180.687a8 8 0 0 0 -8 8v208a8 8 0 0 0 8 8h288a8 8 0 0 0 8-8v-208a8 8 0 0 0 -8-8zm-8 208h-272v-192h176a8 8 0 0 0 5.657-2.343l18.343-18.344v12.687a8 8 0 0 0 8 8h64z"/><path d="m256 368a24 24 0 1 0 24 24 24.027 24.027 0 0 0 -24-24zm0 32a8 8 0 1 1 8-8 8.009 8.009 0 0 1 -8 8z"/><path d="m296 392a24 24 0 1 0 24-24 24.027 24.027 0 0 0 -24 24zm32 0a8 8 0 1 1 -8-8 8.009 8.009 0 0 1 8 8z"/><path d="m192 368a24 24 0 1 0 24 24 24.027 24.027 0 0 0 -24-24zm0 32a8 8 0 1 1 8-8 8.009 8.009 0 0 1 -8 8z"/><path d="m368 208h8a8 8 0 0 0 0-16h-8a8 8 0 0 0 0 16z"/><path d="m296 208h48a8 8 0 0 0 0-16h-48a8 8 0 0 0 0 16z"/></g></svg>