<svg id="Camada_1" data-name="Camada 1" xmlns="http://www.w3.org/2000/svg" viewBox="0 0 244.8 233.61"><defs><style>.cls-1{fill:#c0305f;}</style></defs><title>circulo</title><path class="cls-1" d="M36,146.19a108.07,108.07,0,0,1,8.74-42.81A112.11,112.11,0,0,1,69.9,67a118.37,118.37,0,0,1,37.74-24.53,122,122,0,0,1,89.75-.55A118,118,0,0,1,235.72,66.2a113.31,113.31,0,0,1,25.67,36.65,107.92,107.92,0,0,1,0,86.68,113.4,113.4,0,0,1-25.67,36.65,117.61,117.61,0,0,1-38.34,24.29,122,122,0,0,1-89.75-.55A118.11,118.11,0,0,1,69.9,225.38,112,112,0,0,1,44.71,189,108.12,108.12,0,0,1,36,146.19Zm0,0a107.88,107.88,0,0,0,9,42.73,111.66,111.66,0,0,0,25.3,36.13A116.09,116.09,0,0,0,108,249a120.23,120.23,0,0,0,88.48-.55,116.56,116.56,0,0,0,37.19-24.19,110.35,110.35,0,0,0,24.83-35.85,107.69,107.69,0,0,0,0-84.41,110.6,110.6,0,0,0-24.83-35.86,116.6,116.6,0,0,0-37.2-24.19A120.23,120.23,0,0,0,108,43.39a116,116,0,0,0-37.8,23.94,111.79,111.79,0,0,0-25.31,36.13A108.08,108.08,0,0,0,36,146.19Z" transform="translate(-31.65 -33.2)"/><path class="cls-1" d="M67,225.22a110.54,110.54,0,0,1-26-36,108.9,108.9,0,0,1-9.37-43.07,107.27,107.27,0,0,1,8.72-43.33A113.23,113.23,0,0,1,65.85,66a118.52,118.52,0,0,1,38.36-24.45,119.82,119.82,0,0,1,45.14-8.38,121.75,121.75,0,0,1,44.87,9,115.07,115.07,0,0,1,37.46,25,120.47,120.47,0,0,0-82.33-31.51,122.18,122.18,0,0,0-44,8.61,115.61,115.61,0,0,0-37.17,24,110.3,110.3,0,0,0-25,35.68,109.06,109.06,0,0,0-9,42.22C33.82,175.18,45.84,204.13,67,225.22Z" transform="translate(-31.65 -33.2)"/><path class="cls-1" d="M64.86,87.91A116.3,116.3,0,0,1,87.64,65.17a117.62,117.62,0,0,1,60.77-23.06A125.79,125.79,0,0,1,165,41.73a132.31,132.31,0,0,1,16.49,1.88,118.41,118.41,0,0,1,58.38,29,112.4,112.4,0,0,1,33.18,54.56,109.32,109.32,0,0,1-2.75,63.13A112.33,112.33,0,0,1,232.75,242a120.25,120.25,0,0,1-124.67,13.19,123,123,0,0,0,80,6.37,128.1,128.1,0,0,0,15.39-5.16,130.59,130.59,0,0,0,14.45-7.21,122.93,122.93,0,0,0,13.23-9.09,111.7,111.7,0,0,0,36.3-50.78,106.56,106.56,0,0,0,2.4-61.45,109.35,109.35,0,0,0-32-53.22A117.77,117.77,0,0,0,181,46,129.87,129.87,0,0,0,164.87,44a124.57,124.57,0,0,0-16.28.16A119.66,119.66,0,0,0,88.17,65.84,122,122,0,0,0,64.86,87.91Z" transform="translate(-31.65 -33.2)"/><path class="cls-1" d="M52.27,76.89a116.8,116.8,0,0,1,60.1-39.15,122,122,0,0,1,73,2.81,116.42,116.42,0,0,1,57.14,44,109.63,109.63,0,0,1,19,68,110.9,110.9,0,0,1-26.79,65.56,118.27,118.27,0,0,1-61.92,37.58,127.45,127.45,0,0,1-18.32,2.9,132.16,132.16,0,0,1-18.56.15,124.18,124.18,0,0,1-36-8.08,120.33,120.33,0,0,1-31.41-18.49,115.3,115.3,0,0,1-23.77-26.88,116.24,116.24,0,0,0,55.79,43.92,123,123,0,0,0,35.5,7.52,130,130,0,0,0,18.2-.36,125.74,125.74,0,0,0,17.91-3.06,117.21,117.21,0,0,0,60.21-37,107.85,107.85,0,0,0,25.81-63.88A106.57,106.57,0,0,0,240,86.1C226.87,66.51,207,51.26,184.44,42.83a120.16,120.16,0,0,0-71.64-3.59l-2.21.54-2.18.66-4.35,1.35c-2.84,1.06-5.73,2-8.48,3.27A111.51,111.51,0,0,0,79.5,53.44,118.58,118.58,0,0,0,52.27,76.89Z" transform="translate(-31.65 -33.2)"/></svg>
