<svg xmlns="http://www.w3.org/2000/svg" viewBox="0 0 482.02 1395"><defs><style>.a{fill:#d4d4d4;}</style></defs><title>curva02</title><path class="a" d="M482,0V1394.83c-.83.06-1.66.18-2.49.17-69-.38-137.54-5.19-205.13-19.75-48.65-10.47-95.55-25.82-138.57-51.45-43.44-25.89-78-60.14-99.17-106.68-20.51-45.07-25-92.58-20.87-141.32s16.55-95.45,33.09-141.22c26.68-73.84,63-142.94,103.67-209.86C173.06,691,195,658.06,214.77,623.93A3037.27,3037.27,0,0,0,361.5,338.09c47.44-106.23,88.09-214.9,117.34-327.64C479.75,6.93,481,3.48,482,0Z"/></svg>