<svg xmlns="http://www.w3.org/2000/svg" viewBox="0 0 154.52 281.96"><defs><style>.a{fill:#d4d4d4;}</style></defs><title>paragrafo</title><path class="a" d="M92.2,283.35h-17c-1.6-.36-3.17-.85-4.79-1.06-17.6-2.3-32.9-9.27-45-22.49-7.16-7.82-11.9-16.88-12-27.75-.09-7.63,5.25-15.08,12.11-17.31,7.08-2.3,15.11-.8,19.54,6.73,3,5.15,6.32,10.16,9.18,15.4,8.29,15.21,27.67,21.38,43.08,13.56,13.83-7,16.26-21.73,5.12-32.4a77.71,77.71,0,0,0-11.81-9.16c-16.94-10.87-34.15-21.32-51-32.36-8.46-5.55-16.91-11.37-24.32-18.2C4.13,148,1.42,134.44,4,119.82c2.54-14.4,12.1-23.66,23.79-31.18,1.88-1.22,3.82-2.34,5.88-3.59-2.78-3.07-5.24-5.54-7.44-8.24a42.31,42.31,0,0,1-4-48.13c7.34-13,19.08-20.07,33-24.08,4.91-1.42,10-2.16,15-3.22h17c1.59.37,3.15.86,4.75,1.1,11.66,1.77,22.66,5.34,32.41,12.12,8.68,6,15.6,13.54,18.29,24.12,2.4,9.44-2.29,17.52-11.63,20q-9.48,2.51-16.27-4.84c-5.4-5.86-10.41-12.33-16.68-17.09-10.18-7.74-21.89-7.67-33-2.05C53,40.81,51.66,54.4,62,63.08A104.5,104.5,0,0,0,76.47,72.8c13.62,8,27.49,15.59,41,23.72a218.62,218.62,0,0,1,21.89,14.79c24.62,19.17,24.56,56.38-1.87,75.54-2.79,2-5.65,4-8.59,6,1.66,1.76,3.11,3.33,4.61,4.85,16.21,16.39,19.37,39.35,7.83,58.08-8,13-20.23,20.39-34.64,24.4C102,281.52,97.05,282.31,92.2,283.35Zm29.11-131.18c-1.31-3.15-2-6.78-4.08-9.35-3.06-3.86-6.57-7.74-10.7-10.29-16.68-10.31-33.65-20.16-50.6-30a4.74,4.74,0,0,0-4.36.17c-4.25,3.66-8.8,7.22-12.12,11.67-5,6.63-4.55,14,1,20.15a64.63,64.63,0,0,0,13.31,11.14c13,8.28,26.38,16.13,39.66,24,10.59,6.3,10.68,6.26,19.5-2.62C116.93,163,120.57,158.66,121.31,152.17Z" transform="translate(-3.1 -1.38)"/></svg>