<svg xmlns="http://www.w3.org/2000/svg" viewBox="0 0 1401.89 971.28"><defs><style>.a{fill:none;stroke:#b94a5f;stroke-miterlimit:10;stroke-width:4px;}.b{fill:#b94a5f;}</style></defs><title>aspas</title><path class="a" d="M310.17,780V925.86h-228V705.71q0-267.87,228-280.7V539Q200.45,549,200.45,697.87H540.28M650,472v67Q540.29,549,540.28,697.87H650v228H422V705.71q0-234.37,174.54-273.51"/><path class="b" d="M579,439.46c35.11-6,70-10.64,105.68-10.54,35,.09,70,3.45,104.73,7.74,17.62,2.17,35.14,5.54,52.92,6.1,12.49.4,25,.22,37.49-.32,19.74-.86,39.44-2.71,59-5.43a616.58,616.58,0,0,0,73.6-14.79,557.94,557.94,0,0,0,81.5-28.47,488.23,488.23,0,0,0,83-46.51,452.73,452.73,0,0,0,77.57-68.59,469.05,469.05,0,0,0,65.7-95c20.85-39.7,36.32-82.12,47.26-125.57q4.48-17.79,8-35.8c.61-3.14-4.2-4.49-4.83-1.33-9,45.87-22.44,91-41.77,133.61a478,478,0,0,1-62.18,102,445.89,445.89,0,0,1-75.14,73.75,474.13,474.13,0,0,1-82.22,50.78,536.29,536.29,0,0,1-81.91,31.69A607.79,607.79,0,0,1,952.26,430a620,620,0,0,1-62.13,6.95c-14,.85-28,1.25-42.07,1-5.25-.09-10.57-.11-15.79-.63-16.62-1.65-33.16-4.46-49.74-6.44-17.25-2.06-34.53-3.86-51.86-5.1-34.55-2.48-69.31-2.71-103.74,1.38-16.51,2-32.91,4.74-49.3,7.53-3.17.54-1.83,5.36,1.33,4.82Z"/></svg>