
<svg xmlns="http://www.w3.org/2000/svg" viewBox="0 0 295 294.96">
<path d="M8.64,197a147.42,147.42,0,0,0,272.05,13.69A146.46,146.46,0,0,0,286.36,98a6,6,0,1,0-11.3,4A135.42,135.42,0,0,1,89.46,269.83,135.42,135.42,0,1,1,217,31.23a6,6,0,1,0,6.15-10.31A147.42,147.42,0,0,0,8.64,197Z" transform="translate(0 -0.02)"/>
<path d="M81.5,147.48a6,6,0,0,0,6,6H236.93a6,6,0,0,0,0-12H87.5A6,6,0,0,0,81.5,147.48Z" transform="translate(0 -0.02)"/>
<path d="M129.31,84.72a6,6,0,1,0-8.48-8.48l-67,67a6,6,0,0,0,0,8.48l67,67a6,6,0,1,0,8.48-8.48L66.55,147.48Z" transform="translate(0 -0.02)"/>
</svg>
