<svg id="Camada_1" data-name="Camada 1" xmlns="http://www.w3.org/2000/svg" xmlns:xlink="http://www.w3.org/1999/xlink" viewBox="0 0 1545.81 335.38"><defs><style>.cls-1{fill:url(#gradientId);}</style><linearGradient id="gradientId" x1="384.1" y1="-382.41" x2="1281.01" y2="514.49" gradientTransform="matrix(1, 0, 0, -1, 0, 341.89)" gradientUnits="userSpaceOnUse"><stop offset="0.07" stop-color="#ef4865"/><stop offset="0.22" stop-color="#ee4d63"/><stop offset="0.4" stop-color="#ec5a5b"/><stop offset="0.58" stop-color="#e9704f"/><stop offset="0.77" stop-color="#e5903e"/><stop offset="0.89" stop-color="#e1a831"/></linearGradient></defs><title>curvarodape1</title><path class="cls-1" d="M1504.58,96.43c-31.22,2.39-62.43,5.53-93.7,6.39-40,1.1-80,1.41-119.92-.07-37.91-1.4-75.78-4.86-113.55-8.63C1124,88.8,1071.05,80,1019,66.65,958.31,51.12,897.2,37.57,835.5,26.71,785.94,18,736.16,11,685.88,8.25h-.37q-3.64-.3-7.23-.56c-.79-.14-1.58-.3-2.36-.42h-3.83a698,698,0,0,0-89.16,0L554.13,10A685.85,685.85,0,0,0,352.46,60.73c-92.23,38.63-173,94.51-245.61,162.8A1054.56,1054.56,0,0,0,4.37,335.47C3,337.14,1.46,338.63,0,340.2a21.69,21.69,0,0,0,4.5,1q768.18.06,1536.38,0h4.93V92.2C1532.07,93.65,1518.35,95.38,1504.58,96.43Z" transform="translate(0 -5.85)"/></svg>
