
<svg xmlns="http://www.w3.org/2000/svg" viewBox="0 0 61.34 171.29"><defs><style>.a{fill:#d4d4d4;}</style></defs><path class="a" d="M3.48,92.48a4.67,4.67,0,0,1,0-3C5.55,86.6,7,82.61,9.81,81.05c10.54-5.85,13.88-14.83,13.8-26.16a247.57,247.57,0,0,1,1-27.38c1-9.93,6.83-16.67,16.31-20.07,1.84-.66,3.69-1.3,5.54-1.95a29.78,29.78,0,0,1,9.28.27,6.67,6.67,0,0,1,1.35.45c6.49,3,7.86,5.19,7.33,11.8-.45,5.57-3.75,8-9,9-7.15,1.39-8.57,3.28-9,10.9-.47,8.64-.62,17.29-1.16,25.92C44.86,71.21,43.22,78.35,38,84c-2.31,2.52-5,4.66-8,7.35,12.06,6.86,15.29,18,15.65,30.58.2,7.15.4,14.3.72,21.44.34,7.7,2.11,9.73,9.62,11.49,6,1.41,8.12,4.38,8.51,10.51s-4,9.16-8.69,10.9a29.7,29.7,0,0,1-8.22-.11c-1-.18-2.24-.5-2.84-.66-13-3.47-19.29-10.26-20.53-23.57-.87-9.23-.71-18.57-.88-27.86-.17-9.87-3.9-17.42-12.63-22.76C7.67,99.47,5.86,95.5,3.48,92.48Z" transform="translate(-3.23 -5.26)"/></svg>
