<svg id="Camada_1" data-name="Camada 1" xmlns="http://www.w3.org/2000/svg" viewBox="0 0 2688.51 7219.47"><defs><style>.cls-1{fill:#c54b63;}.cls-2{fill:none;stroke:#c54b63;stroke-miterlimit:10;stroke-width:4px;}</style></defs><title>desenho_unido</title><path class="cls-1" d="M257.72,859.77c3.21,0,3.22-5,0-5s-3.23,5,0,5Z"/><path class="cls-1" d="M489.67,517.58c1.61-20.26,4-40.65,4.64-61,.64-21.31-7.47-39.12-11.37-59.65-3.81-20.1-2.05-40.66-2-61,0-9.57,3.32-29.2-8.67-33.53-6.52-2.36-16,.1-22.57.63q-15.71,1.25-31.35,3.2-29,3.63-57.63,9.61-30.84,6.46-61,15.69c-16.08,4.92-36.68,9.18-48.47,22.24-9.82,10.88-12.87,27.15-16.93,40.77-6.68,22.42-12.81,45-18.07,67.81-9.28,40.21-15.89,81.14-18,122.37-2.13,41.05.19,82.47,8.42,122.79a358.86,358.86,0,0,0,15,54c4.21,11.22,9.78,23.12,22.59,25.93,15.22,3.33,32.06-6.87,44-15.13,14.23-9.88,26.41-22.38,37.89-35.26,11.22-12.58,22.21-25.6,28.1-41.62,6.89-18.74,7.24-39.33,5.42-59a248.18,248.18,0,0,0-32-100.74C319,521,300.79,504.62,297.8,487.52c-3.53-20.22,15.09-24.76,29.34-17,10.65,5.8,19.4,16.15,26.37,25.88C378.24,531,384.8,574.5,384,616.07c-.39,19.45-2.31,38.83-4.42,58.16-3,27.26-6.94,48.64-27.27,68.51-14.24,13.9-29.49,26.67-43.49,40.86q-9,9.14-17.67,18.62c-6.26,6.87-15.39,14.46-19.09,23.2-3.55,8.41.62,16.52,8.69,20.16,13.83,6.23,28.64-5.33,39.85-12,18.05-10.77,37.07-20.69,54.15-33,11.79-8.47,23.56-19.55,26-34.58,5.21-32.7-31.27-49.24-58.35-46-36.22,4.35-73.15,28-97.8,54.16-10.83,11.5-19,25.1-17.16,41.47,2.15,18.78,15.46,34.24,28.89,46.45l2.43-4.18a351,351,0,0,0-140.75-1.21,2.49,2.49,0,0,0-1.75,1.75c-4.76,16.89-8.89,34-13,51-11.16,46.78-20.95,93.9-29.74,141.18Q54.08,1155,41.34,1260.4q-15.81,130.42-21.1,261.85c-3.8,98.43-2.79,197.1,4.14,295.38,7.23,102.62,20.93,204.91,42.87,305.45,22.39,102.55,53.46,203.32,95.17,299.7,42.34,97.84,95.82,190.92,161,275.32A1159.42,1159.42,0,0,0,564,2930.41c102.33,73.55,216.19,130,335.14,171.23q23.48,8.15,47.22,15.5c11,3.41,19.58,2.74,31.08,2.21,3.21-.15,3.22-5.15,0-5-5.15.24-10.35.71-15.5.71-7.83,0-15-3-22.5-5.33q-24.4-7.72-48.55-16.26-48.66-17.23-96-37.92a1278.53,1278.53,0,0,1-167.13-88.27,1159.22,1159.22,0,0,1-264-227.47c-71.12-83.17-130-176.35-176.89-275.13-46-97-80.58-199.26-105.76-303.58-24.74-102.47-40.52-207-49.32-312-8.35-99.73-10.43-199.95-7.48-300,2.65-89.47,9.33-178.82,19.55-267.75q12.59-109.54,32.35-218.11c9-49.08,19-98,30.42-146.54q4.83-20.48,10.07-40.84c.91-3.53,1.6-13.21,4.26-16,.56-.59,9.34-.43,11.08-.72a332.82,332.82,0,0,1,43.32-4.12,344.29,344.29,0,0,1,82,7.66c2.29.49,4.4-2.39,2.43-4.18C246.3,846.3,232,830,232,810.65c0-20.64,18-36.27,32.74-48.29,25.88-21.11,68.21-46.5,102.79-35.71,17.4,5.43,32.64,22.49,27.51,41.71C390.45,785.63,373,796.31,358.7,805c-15,9.11-30.11,18-45.18,27-2.83,1.68-5.68,3.53-8.6,5.08L297,840.79q-18,7.66-15.95-19.64c3.65-7.53,13.23-15,18.84-21Q317.4,781.34,336.36,764c11.07-10.15,23.24-19.68,32.13-31.92C387,706.54,386,667.39,388,637.23c3.8-56.46-2.39-128.34-51.11-166.19-12.28-9.54-34.92-16.59-42.78,2.23-3.8,9.1-1,19.1,3.61,27.29,8.2,14.6,19.73,27.15,27.87,41.93a241.37,241.37,0,0,1,29.56,101.28c1.11,18.53-.09,37.44-7.63,54.63-7.64,17.43-21.42,31.91-34.46,45.53-11.58,12.1-24.29,23.51-39.15,31.43-11.47,6.11-27.1,12.94-38.51,1.65-7.85-7.78-10.65-21.15-13.81-31.25-10.64-33.92-16.46-69.22-18.4-104.68-4.05-74.12,8.87-148,28.47-219.19q4.31-15.61,9-31.12c3.36-11.12,6.17-24.48,14.09-33.39,12.92-14.55,38.39-18.76,56.33-23.95A698,698,0,0,1,436.6,309.27c8.11-.8,20.69-4.16,28.8-2.25,14.24,3.37,10.59,23.54,10.47,34.15-.21,18.22-1.23,36.53,1.83,54.59,3.52,20.8,12.25,39.3,11.61,60.85-.6,20.32-3,40.71-4.64,61-.26,3.21,4.74,3.19,5,0Z"/><path class="cls-1" d="M485.2,514.74c14.52,30.84,46.42,59.2,82.94,48.82,27.22-7.73,40.83-35.37,56.07-56.68,9-12.6,19.71-24.62,34.91-29.45L656,475.69a216.25,216.25,0,0,1,2,67.36l4.27-1.77c-19-19.95-53.93-19.67-72.57.66l4.18,2.43A422.9,422.9,0,0,1,614.38,472c1-2.71-3.15-4.28-4.57-1.93-16.73,27.8-54.26,25.56-80.07,13.89-14.66-6.62-28.87-15.44-41.92-24.84-5.94-4.27-11.93-9.43-15-16.26-3.52-7.93-1.51-16.24,2.66-23.48,4-6.88,9.35-12.81,14.28-19s9.87-12.83,14.46-19.5a339.93,339.93,0,0,0,25.18-43.05q5.16-10.51,9.59-21.37c3-7.4,5.76-15.52,3.89-23.57-2.27-9.79-14.68-18.29-23.72-11-5.14,4.16-6.16,11.36-6.46,17.56-.42,8.83.36,18,3.4,26.33C521.37,340.2,534,352,549.92,352l-2.5-2.5c.76,28,13.21,54.82,33.28,74.25,21,20.29,49.44,31.68,78.33,33.87,12.46.95,26.91,1,37.83-6,9.65-6.18,12.72-16.62,13.76-27.44,1-10-.67-23.39,6.12-31.75,4.09-5,11-5.44,15.75-9.58,4.13-3.6,6.3-8.88,7.07-14.21,2.13-14.73-7-27.48-7.46-41.91-.43-14.65,7.71-27.83,13.15-40.93s7.66-26.56,4.06-40.55c-3.5-13.59-11.37-26-21.28-35.81-22.45-22.3-54.26-33.26-82.64-45.72-14.85-6.52-29.95-13.13-46-15.9a92.81,92.81,0,0,0-39.86,1.81c-26.15,7-49.16,24.63-63.71,47.33C479.87,221.77,473.63,252,475,281.25a183.86,183.86,0,0,0,2.36,21.32c.47,2.78,5,2.12,4.91-.67a400.82,400.82,0,0,1,3-68.82c2.86-21.68,6.87-44.11,14.72-64.6,7.62-19.92,21-34.54,40.41-43.4,20.19-9.18,43.15-13.67,65.08-16,39.71-4.19,84.14-1.21,118.6,20.93,15.65,10.06,30.23,25,33.06,44.2,1.37,9.31-1.12,18.81-8.07,25.38-6.51,6.15-15.69,8.6-24.42,9.11-20.27,1.19-39.08-8.28-59.09-9.73-8.11-.59-17.93-.32-24.69,4.87-5.43,4.17-7.39,10.6-6.69,17.24,1.57,14.81,14.85,32.94,1,45.59-14.48,13.21-37.2,7.38-52.31,19.48-5.66,4.53-10.17,11.43-10.18,18.89,0,3.47,2.24,6.83-1.69,8.81-3.52,1.77-8.4.73-11.2-1.87-7.36-6.85-5-19.73-6.08-28.69-.93-7.37-3.72-14.76-10.58-18.49-14.48-7.87-29.91,4-34.38,17.69-3.06,9.39-1.91,18.88-1.29,28.53s-.88,23.25-12.82,25.08C481.11,338.2,482,309.36,466.25,317c-7.23,3.49-13.44,11.26-18.18,17.53a111.76,111.76,0,0,0-13,22.71c-7.28,16.7-11.49,34.49-15.42,52.22-4.83,21.81-9.63,43.88-10.15,66.3a144.08,144.08,0,0,0,2.85,32.43,2.51,2.51,0,0,0,3.67,1.5c17.08-12.26,40-23.39,60.49-12.34,18.05,9.74,28.81,30.59,36.6,48.69,8.9,20.65,15.15,42.56,21.56,64.08,6.67,22.41,12.51,45.32,14,68.75,1.52,24.67-1.84,49.81-13.24,72-1.47,2.86,2.85,5.39,4.32,2.53,22.59-44,14.34-94.56,1.13-140-6.66-22.93-13.39-46.23-22.71-68.24-8-18.9-18.95-40-37.12-51-22.46-13.6-48.16-2.68-67.51,11.21l3.67,1.5c-4.91-23.84-2.32-48.17,2.2-71.85,3.85-20.14,8-40.55,14.36-60.08,5.87-18.13,14.41-36,28.78-48.92,3.25-2.92,7.89-7.45,11.87-3.3,2.55,2.67,3.92,6.47,5.81,9.59,3.3,5.45,8,9.73,14.83,8.86s12.87-6.18,15.51-12.42c4.21-9.9,1.08-21,1.09-31.32,0-9.81,2.77-21.37,11.69-26.89,8.77-5.42,20.53-3.33,24.12,7.06,4.47,12.93-2.46,39,17.13,41.93,5.38.8,11.8-1.12,13.83-6.66,1.3-3.51-1.17-7.12-.28-11,1.15-5,4.63-9.4,8.69-12.39,8.78-6.47,20.68-7,31-9.27,8-1.79,16.11-4.93,22-10.87,12.33-12.56,4.28-28.57.58-42.89-2.32-9-1.36-17.92,8.81-21.14,10.69-3.39,23-.85,33.59,1.64,18,4.22,36.53,10.24,55,4.64,15.72-4.77,26.12-18.54,24.75-35.18-1.46-17.77-12.84-33.07-26.37-43.88-31-24.74-72.81-31-111.37-29.71a266.92,266.92,0,0,0-67.86,11c-18.4,5.54-36.56,14-48.64,29.53-12.34,15.81-17.55,35.94-21.81,55.17a401.52,401.52,0,0,0-9.07,69c-.5,11.49-.48,23,0,34.48l4.91-.66c-9.11-54.52,9.37-115.75,62.22-140.82a92.1,92.1,0,0,1,38-9.08c15-.19,29.51,4,43.37,9.44,14.31,5.6,28.29,12.12,42.35,18.32,13.1,5.79,26.21,11.74,38.27,19.53,23.2,15,44.75,41.23,38.88,70.72-2.6,13.09-9.84,24.61-14.39,37-4.72,12.9-4.36,24.5-.32,37.52,3.44,11,9.17,28.6-3.26,36.49-4.51,2.86-9.64,3.62-13.45,7.66a24.68,24.68,0,0,0-5.54,10.32c-2.75,9.73-1.67,20.06-3.25,30-2.08,13-9.89,20.89-22.87,23.5-14.88,3-31.53.7-46-3.09a120.29,120.29,0,0,1-42.06-20.09c-24.74-18.64-40.88-48.1-41.72-79.2a2.55,2.55,0,0,0-2.5-2.5c-16.84,0-28-14.7-31-30-1.52-7.54-2.1-16.44-.35-24,2-8.39,9.83-11.68,16.19-5.11s3.45,17,.52,24.65-6.46,15.3-10.1,22.74a343.13,343.13,0,0,1-23.21,40.16c-8.59,12.76-18.95,24.12-27.71,36.7-7.24,10.42-11.29,22.94-4.89,34.82,6.2,11.52,18.75,18.54,29.41,25.32,12.79,8.13,26,15.92,40.46,20.72,26,8.63,59.6,5.05,74.93-20.42l-4.57-1.93A422.87,422.87,0,0,0,589.12,543c-.43,2.28,2.36,4.42,4.18,2.43,16.84-18.37,48.29-18.72,65.49-.65,1.65,1.73,4,.23,4.27-1.77a220.51,220.51,0,0,0-2.2-68.69,2.51,2.51,0,0,0-3.07-1.75c-24.73,7.86-37.77,31.84-51.61,51.88C598.8,535.17,590.64,546,579.51,553c-15.1,9.54-34,9.56-50,2.3-18.53-8.36-31.47-25.07-40-43.07-1.37-2.91-5.68-.37-4.31,2.52Z"/><path class="cls-1" d="M538,752.9c-15.53-20.92-45.43-14.65-66.88-8.68a380.71,380.71,0,0,0-89.74,38,2.55,2.55,0,0,0-.9,3.42c2.89,5.83,9.31,7.25,15.29,7.73,10,.8,20.15,1,30.2,1.54,19.43,1,38.87,2,58.32,2.62,32.3.94,66.11.06,96.36-12.59,29.54-12.36,50.23-36.09,63.35-64.83,13.6-29.78,19.48-62,28.48-93.32,4.67-16.23,10.19-32.33,18.14-47.27a134.92,134.92,0,0,1,14.33-21.86c4.75-5.83,10.65-13.38,18.61-14.55,12-1.75,6,17.82,3.93,23.59-3.07,8.67-7.51,16.92-11.77,25a498,498,0,0,1-94.28,126.26,542,542,0,0,1-41.26,36c-7.78,6.16-15.62,12.25-23.25,18.59-5.38,4.46-11.75,9.58-13,16.93-2.71,15.73,19.83,12.44,28.41,9.23a55.1,55.1,0,0,0,29-26A52.58,52.58,0,0,0,607,754.21c.64-5.8.77-14-2.43-19.18-3.71-6-13.47-5.58-19.58-5.64a84.28,84.28,0,0,0-24.8,3.5,85.33,85.33,0,0,0-22.65,10.6c-2.68,1.76-.17,6.09,2.52,4.31a80.28,80.28,0,0,1,49.14-13.25c4.67.29,10.5.23,12,5.59a35.26,35.26,0,0,1,1,10.73,46.12,46.12,0,0,1-5.93,20.54c-6.77,12.18-18.6,21.88-32.45,24.53-3.33.64-7.61,1.26-10.93.28-6.23-1.85-4.24-7.68-1.42-11.6,5.21-7.23,14-12.67,20.86-18.15,27-21.4,52.81-43.46,75.88-69.1a505.82,505.82,0,0,0,58.2-78.85c8.36-14,16.43-28.42,23-43.36,3.81-8.68,13.29-32.09-1-36.65-12.12-3.88-23.25,10.58-29.45,18.64-9.34,12.13-16.32,25.81-21.93,40-22,55.82-22.4,128.71-73.38,168.7-25.15,19.73-57.78,25.52-89,26.7-35.52,1.34-71.3-1.72-106.75-3.52-6.63-.34-19.69,1.28-23.24-5.9l-.9,3.43A375.31,375.31,0,0,1,465.52,751c20-6,52.85-16.2,68.15,4.39,1.89,2.55,6.24.06,4.31-2.52Z"/><path class="cls-1" d="M335.69,822.54c-1.51,10.79-2.88,22.53,1.21,32.94,4.3,10.94,14.23,16.23,25.32,18.16,29.59,5.13,60.78,2.49,90.54.51,31.09-2.08,62.11-4.21,93.24-1.67,15.39,1.25,30.73,3.15,46.15,4A288,288,0,0,0,638.67,875c14.88-1.62,29.69-4,44.45-6.45C694,866.7,705,864.45,715.3,860.4c9.3-3.64,18.3-8.74,24.82-16.47s11.8-19.09,7.53-28.92c-4-9.11-14.41-11.19-23.38-11.14-6,0-20.29,1.72-19,10.89.78,5.41,6.87,4.65,11,4.67a74.75,74.75,0,0,0,20.5-2.73c8.85-2.46,21.63-7.53,22.22-18.42.21-3.89-2.76-8.09-1.6-11.87,1-3.26,4.92-5,7.56-6.72,4.18-2.71,7.68-5.8,9.22-10.72,3.33-10.6-2.65-22.07-11.9-27.38-10.92-6.27-25.15-5.91-37.11-3.39-11.36,2.39-22.51,8.07-27.77,18.9-1.4,2.89,2.91,5.43,4.31,2.53,8.5-17.51,36.29-21.72,53.15-15.92,9.56,3.29,18.1,13.24,14.5,23.94-2.71,8-13.11,8.75-16.36,16.35-2,4.63.75,8.48.92,13.1.23,6.06-5.66,9.85-10.58,12a63.86,63.86,0,0,1-18,4.77,69.94,69.94,0,0,1-8.19.52c-2.69,0-9.14.6-4.76-3,3.31-2.74,8.46-2.55,12.51-2.52,5,0,10.56.55,14.64,3.73,9.49,7.38,2.44,21.69-3.85,28.76-12,13.54-31.46,18.24-48.58,21.4-24.26,4.48-49,8.32-73.74,9S564,868.63,539.27,867c-25.28-1.69-50.58-.24-75.81,1.45-28.11,1.89-56.33,4-84.49,2-12.35-.89-28.49-1.29-35.68-13.21-5.88-9.74-4.28-22.66-2.77-33.37.44-3.15-4.38-4.51-4.83-1.33Z"/><path class="cls-1" d="M626.69,775.78c-3.08-15.6,9.32-30.16,20.65-39.27,11-8.85,24.31-14.57,37.84-18.31,24.35-6.73,56.6-11.18,79.5,2.28,10.61,6.23,25.3,25,11.5,35.71-2.54,2,1,5.49,3.53,3.54,10.78-8.36,7-24.68-.7-33.78-9.79-11.58-24.89-16.61-39.53-18.16-16.24-1.72-33.09.28-48.94,3.9s-31.47,9.65-44.48,19.53c-13.84,10.51-27.86,27.34-24.19,45.89.62,3.16,5.44,1.82,4.82-1.33Z"/><path class="cls-1" d="M623.91,776.2c6.76,6.68,16.49,3.78,24,0,11.31-5.65,22.7-11.9,33.41-18.63,10.48-6.59,18.4-15.19,27-24a109.63,109.63,0,0,1,30.79-22.19c2.89-1.4.36-5.72-2.52-4.32a112.5,112.5,0,0,0-25.6,17c-8.66,7.68-15.6,17.14-24.86,24.15-8.78,6.66-18.76,11.65-28.4,16.93-7.37,4-22.3,15.35-30.27,7.47-2.29-2.26-5.83,1.27-3.54,3.54Z"/><path class="cls-1" d="M746.45,391.4c26.48,44.55,61.36,91.91,58.29,146.33a132.55,132.55,0,0,1-22.63,66.75C775.43,614.29,767,622.3,759.05,631c-6.88,7.53-13.44,16.1-15,26.47-3.48,23.5,20.9,39,20.71,61.76,0,3.21,5,3.22,5,0,.17-21-19.76-35.09-21-55.51-.78-12.61,7.8-22.84,15.93-31.45,7.69-8.14,15.4-16,21.73-25.28a137.39,137.39,0,0,0,23-64.55c2.25-24.61-3.08-48.64-12.74-71.22-12.34-28.85-29.91-55.45-45.9-82.36-1.64-2.76-6-.25-4.31,2.53Z"/><path class="cls-1" d="M750.09,391.5c15.14,23.72,38.55,40.2,55.35,62.53A90.72,90.72,0,0,1,823,496.24c2.49,17.3,1.61,35.15,1,52.56a844.07,844.07,0,0,1-11.52,111.26c-3.07,17.89-6,36.3-12.38,53.36-6,16.05-15.72,30.42-21.93,46.4-6.77,17.43-10,36-12,54.52-1,9.24-1.58,18.51-2.11,27.78-.43,7.38-2,15.63,2.89,21.83,2,2.51,5.52-1,3.54-3.54-2.65-3.33-2-8.07-1.78-12q.33-6.27.72-12.54c.53-8.38,1.18-16.74,2.13-25.08,1.93-16.88,5.22-33.75,11.4-49.62s15.9-30.33,21.93-46.4c6.41-17.06,9.31-35.46,12.38-53.36a853.52,853.52,0,0,0,11.5-107.7c1.35-31.42,3.84-65.86-13.3-93.79C799,433.05,771.33,415.5,754.41,389c-1.72-2.71-6-.2-4.32,2.52Z"/><path class="cls-1" d="M774.47,771.54a249.65,249.65,0,0,0,37,3.9c2.37.07,3-2.7,1.77-4.27a262.65,262.65,0,0,0-43.74-43c-8.77-6.8-33.92-29.27-44.39-14.62-1.87,2.62,2.46,5.12,4.32,2.52,5.33-7.46,20.36,4.06,25.15,7.35a248.86,248.86,0,0,1,20.8,15.93A262.71,262.71,0,0,1,809.7,774.7l1.76-4.26a241.18,241.18,0,0,1-35.66-3.72c-3.15-.57-4.5,4.25-1.33,4.82Z"/><path class="cls-1" d="M587.72,695.14a16.76,16.76,0,0,1,4.29,2l3.22,1.84c1.88,1.07,3.77,2.12,5.67,3.17q6.08,3.36,12.24,6.58,11.5,6,23.25,11.55,23.77,11.21,48.43,20.38c3,1.13,4.32-3.7,1.33-4.82a620.44,620.44,0,0,1-63.07-27.61c-9.93-5-19.64-10.42-29.35-15.87-2.72-1.52-6.18-3.35-9.09-1.18a4.74,4.74,0,0,0-1.24,6.49c1.72,2.71,6.05.2,4.32-2.52Z"/><path class="cls-1" d="M585.53,691.85c-3-6.91,7.24-8.89,11.6-7.82,5.43,1.35,10.55,4.38,15.62,6.71q13.59,6.22,27.41,12,28.77,11.92,58.41,21.55c3.07,1,4.38-3.82,1.33-4.82a791.62,791.62,0,0,1-75.16-28.74c-5.75-2.54-11.46-5.19-17.16-7.84-5-2.33-10.32-4.81-16-4.23-7.7.8-13.67,8.3-10.38,15.77,1.29,2.93,5.6.39,4.32-2.53Z"/><path class="cls-1" d="M767.7,861.25a458.83,458.83,0,0,1,118.76-1.08,2.5,2.5,0,0,0,2.41-3.16,515.59,515.59,0,0,1-27.12-165.16c0-18.59,1.87-37.07,2.18-55.64.32-19-4.33-37.14-6.22-55.94s0-37.67,1.38-56.35c2.51-34.88,6.36-70.81,21.47-102.81,3.87-8.22,8.26-17.21,15.46-23,8-6.43,19.4-7.06,29.09-8.73L990.79,378c3.16-.55,1.82-5.37-1.33-4.82l-60.78,10.53c-9.12,1.57-18.95,2.37-27.6,5.81-6.77,2.7-11.93,7.53-16.1,13.43-9.62,13.62-15.62,30.49-20,46.45-4.68,17.18-7.27,34.85-9.06,52.54-1.84,18.34-3.29,36.87-3.85,55.3a176.76,176.76,0,0,0,1.35,29.09c1.34,10,3.43,19.92,4.6,30,2.26,19.53-.36,39.16-1,58.71a516.54,516.54,0,0,0,1.29,57.15,525.06,525.06,0,0,0,25.73,126.21l2.41-3.17a463.33,463.33,0,0,0-120.09,1.26c-3.17.45-1.82,5.27,1.33,4.82Z"/><path class="cls-1" d="M988.37,378c3.76,25.11,20.83,48.07,46.35,53.93a52.48,52.48,0,0,0,37-5c12.38-6.72,23.42-16.84,33.28-26.79a215.87,215.87,0,0,0,26.9-33.16c4.39-6.67,7.87-12.2,16.07-14.28,6-1.53,12-2.28,17.82-4.69a60.14,60.14,0,0,0,26.5-21.88c5.63-8.34,12.45-22.69,8-32.73-4-9.12-16-10.36-24.63-8.85-12.93,2.25-30.08,11.73-37.88-4.49-4.92-10.21-3.91-22.28-6.72-33.07a71,71,0,0,0-16.36-29.54c-15.81-17.39-39.29-27.47-62.8-26.44-25.05,1.09-48.79,13.38-65.89,31.43-18.56,19.59-28.47,45.68-30.94,72.3A154.26,154.26,0,0,0,957,336.42c.9,5,2.4,10,7.91,11.39a13.16,13.16,0,0,0,12.1-3.62c4-3.95,5-9.81,5.5-15.16a218.36,218.36,0,0,0,.52-23.45c-.32-16.44-1.78-32.84-2.58-49.27-1.39-28.36-.6-57.93,11.43-84.21,11.28-24.66,32-41.52,58.23-48.19,25.65-6.52,53-4.32,78.8.37,13,2.37,26.74,5.12,38.06,12.42,13.11,8.45,18.48,22.94,23.54,37,5.41,15,9.93,30.7,9.58,46.79-.32,15.11-5.45,29.48-9.5,43.88-3.75,13.31-6.53,27-4.52,40.81,1.84,12.64,7.2,24.42,13.18,35.59,6.29,11.73,13.46,23,18.8,35.26a101.61,101.61,0,0,1,8.2,45.11c-2.11,54.4-36.91,108-18.23,162.88a74.07,74.07,0,0,0,17.41,28.39l2.44-4.18c-39.69-10.82-73.42-39.49-89.6-77.43a138.14,138.14,0,0,1-10.56-65c1.84-22.93,10.1-44.73,20.77-64.93,5.82-11,12.36-21.66,19.12-32.13,6.17-9.57,12.62-22.25,24.65-25l-3.16-2.41a72.25,72.25,0,0,0,22.74,52c15.16,14.15,35.24,18.71,54.86,23.15,20.41,4.62,41,10.38,54.27,27.85,12.08,15.92,16.36,36.54,18.68,56,3.06,25.6,6.61,54.19-2.48,78.89-1.11,3,3.72,4.33,4.83,1.33,8.19-22.26,5.79-46.71,3.72-69.85-1.73-19.36-4.52-39.24-13.14-56.87-8.48-17.33-22.7-29.24-40.76-35.7-20.11-7.19-42.28-8.22-61.5-17.95a66.86,66.86,0,0,1-36.22-58.84,2.54,2.54,0,0,0-3.17-2.41c-9.54,2.21-15.85,9.69-21.16,17.45-6.9,10.1-13.43,20.53-19.56,31.12-12.14,21-22.44,43.54-26.22,67.64-7,44.91,8.43,91.77,41.29,123.25a143.08,143.08,0,0,0,61.27,34.68,2.52,2.52,0,0,0,2.43-4.18c-38.58-39-15.54-100-4.48-145.23,6.79-27.75,10.82-57.15.22-84.51-9-23.15-25.77-42.9-32.15-67.09-7.49-28.47,8-54.35,11.76-82,1.94-14.4-.16-28.82-4.11-42.71-3.66-12.89-8-26.57-14.82-38.2-12.79-21.93-38.7-27.1-61.9-30.81-23.89-3.83-48.81-5.3-72.56.26-22.58,5.29-42.61,17.76-55.65,37.15-13.46,20-18.76,44.58-20,68.35-1.68,31.07,3.41,62,2.82,93.11-.12,6.17.24,13.25-2,19.14-1.31,3.5-4.07,6.78-8.12,6.82-5.34.05-5.74-5.64-6.42-9.69a149.13,149.13,0,0,1-1.22-41.18c3-27.3,14.62-53.6,35.25-72.12,18.45-16.58,43.78-26.78,68.79-23.65,23.31,2.91,45.35,17.46,56.51,38.22,5.75,10.7,6.66,21.94,8.55,33.69,1.45,9,4.24,19,12.81,23.77,11.88,6.61,24-1.54,36-2.95,5.09-.61,11.65-.28,15.56,3.51,5.09,4.94,2.22,13.68.1,19.46a54.87,54.87,0,0,1-23,27.68,52.91,52.91,0,0,1-16.71,6.49c-5.78,1.22-11.8,2-16.69,5.57-4.59,3.39-7.31,8.63-10.4,13.28a208,208,0,0,1-14,18.74,211.53,211.53,0,0,1-29.47,28.78c-11.42,9.15-23.7,16.26-38.8,15.57a52.22,52.22,0,0,1-35.7-17c-8.84-9.59-14-21.88-15.91-34.68-.47-3.17-5.29-1.82-4.82,1.33Z"/><path class="cls-1" d="M1335.1,579.42A1064.51,1064.51,0,0,1,1345.56,781l4.66-1.26c-8.61-11.51-22.33-15.15-36.12-15.79-18.59-.87-37.56,1.83-56.08,3.2-42.47,3.14-85,6.23-127.52,7.73-42.1,1.48-84.31,1.39-126.33-1.82-10.63-.81-21.29-1.68-31.85-3.08-8.5-1.12-17.43-2.87-24.56-7.9-15.35-10.81-15.32-34.1-16.33-50.88A366.57,366.57,0,0,1,933,648.87c1-9.46,3-18.81,3.9-28.27.71-7.31.32-15.25-4-21.51-4.45-6.47-12-9.38-19.23-11.68a154.26,154.26,0,0,0-27.62-6.09,132.21,132.21,0,0,0-28.81-.93c-5.51.51-12.34,2.31-15.33,7.46A9.78,9.78,0,0,0,845,600.79c5.36,3.78,12.44,3.62,18.66,3,19.82-2.1,40.05-6.51,60-3.41,17.09,2.65,33.16,10.81,41.44,26.6,8.06,15.39,8.55,34.11,9.08,51.1.55,17.94-.48,37.16-11.28,52.29-9.7,13.6-25.13,22.33-32,38-3.7,8.42-5,17.55-6.28,26.58-1.4,9.93-2.73,19.95-1.36,29.95,2,14.52,11,28.78,26.19,31.68,8.23,1.56,16.69-.09,24.67-2.16,9.12-2.37,18.17-5,27.29-7.43,18.57-4.85,37.29-9.22,56.18-12.63,38-6.87,77.32-10.06,115.68-4.16a228.56,228.56,0,0,1,55.67,15.92c8.56,3.69,17,7.53,26.26,9.19s18.73,1.71,28.11,1.9c19.62.4,39.34.64,58.87-1.71a185.33,185.33,0,0,0,27.54-5.26c7.21-2,15.57-4.18,20.72-10,12.51-14.27-12.45-23.62-21.63-28.26q-28.5-14.44-57-28.88c-15.29-7.75-31.61-15.94-42.14-30-11.56-15.41-15.21-36.52-18.13-55.12-3-19.32-4.34-39.36-2.62-58.87,1.53-17.26,6.45-35.35,19.87-47.21,7-6.14,15.56-10.07,24.3-12.93a133.72,133.72,0,0,1,27.18-6.3c9.49-1,19.87.58,25.57,9s2.07,16.52-6.23,21.21c-28.33,16-64.72,14.62-88.57,39.05-23.32,23.89-24.61,59-23.14,90.33.85,18,.19,40-17,50.65a2.52,2.52,0,0,0,1.26,4.66,309.14,309.14,0,0,1,187.66,75.76l1.77-4.26c-51.21,3.66-103,7.33-154-.34-11.71-1.76-23.37-3.94-35.17-5-12.52-1.11-25-.47-37.48.88-25.17,2.73-50.17,6.22-75.49,7.53a501.44,501.44,0,0,1-85.41-2.41c-3.18-.38-3.16,4.62,0,5,50.53,6,101,2.32,151.26-4,12.5-1.57,25.08-2.94,37.7-2.59s25.18,2.52,37.67,4.5a467,467,0,0,0,74.51,5.56c28.86-.06,57.65-2.11,86.42-4.17,2-.15,3.52-2.74,1.76-4.27a314.65,314.65,0,0,0-191.19-77.23l1.26,4.65c13.94-8.64,19-24.87,19.64-40.48.76-18.33-2-36.35.68-54.65,2.39-16,7.85-32.18,18.79-44.47,11.42-12.84,27.46-19.24,43.52-24.19,15.23-4.69,31.25-8.24,45.38-15.88,5.87-3.17,11.23-7.88,12.15-14.84.81-6.11-1.84-12.19-5.88-16.67-11.43-12.69-30.45-8.67-45-5-15.59,3.89-31.66,9.75-42.39,22.31-10.17,11.9-14.44,27.38-16.13,42.65-2.09,18.87-1,38.28,1.57,57,2.44,18.08,5.76,37.47,14.16,53.87,7.65,14.93,21,25.07,35.3,33.13,17.15,9.64,35.07,18,52.62,26.92l28.07,14.21c3.5,1.77,7.95,3.43,10.57,6.47,4,4.64,1.29,9.17-3.16,12.09-7.5,4.92-17.85,6.72-26.5,8.46a217.5,217.5,0,0,1-30.21,3.7,497.6,497.6,0,0,1-58.95-.14,88.7,88.7,0,0,1-29.86-7.16c-8.6-3.64-17.1-7.37-26-10.3a240.83,240.83,0,0,0-52.61-10.8c-37.37-3.58-75.12.53-111.83,7.75-18.82,3.69-37.46,8.26-56,13.26-16.6,4.48-39.79,14.89-54.06.12s-9.73-38.16-6.77-56.16c1.49-9,3.76-17.89,9.08-25.51,4.89-7,11.46-12.61,17.49-18.59,12-11.88,19-25.35,21.15-42.17s1.16-34.5-1.12-51.17c-2.11-15.41-7.24-31-19.42-41.36-11.76-10-27.37-14.36-42.56-15.16-10-.53-20,.39-29.86,1.59-9.21,1.11-18.88,3.38-28.18,3.09-3.31-.11-8-.62-10.34-3.32-3.53-4.14,1.19-7.92,4.9-9.25,8.14-2.92,18.57-1.7,27-1a148.84,148.84,0,0,1,30.1,5.59c9.34,2.74,19.66,6.07,22.51,16.5,2.39,8.78-.25,18.47-1.55,27.22q-2.16,14.58-3.18,29.3a367.31,367.31,0,0,0,.85,60.43c1.44,14.83,3.84,31.27,16.53,40.9,13.49,10.24,33.22,10.23,49.33,11.67,20.65,1.84,41.36,2.9,62.09,3.36,42.18.93,84.38-.63,126.49-3.14,21.1-1.26,42.18-2.75,63.26-4.3,19.86-1.45,39.79-3.61,59.7-4.2,14.42-.42,31.63.82,41,13.37,1.45,1.94,4.55,1.38,4.66-1.26a1071.1,1071.1,0,0,0-10.64-202.91c-.47-3.17-5.29-1.82-4.82,1.33Z"/><path class="cls-1" d="M1010.9,863.24l.19,26.32a2.57,2.57,0,0,0,2.5,2.5c30.73,2.79,57.88,18.65,82.63,36,27.32,19.18,53.81,39.59,80.62,59.46,1.33,1,3.28-.08,3.67-1.49q18.75-67.23,39.35-133.91c13.28-43,26.26-86.2,41.23-128.62,8.19-23.22,17.7-46,30.21-67.26,1.63-2.78-2.69-5.3-4.32-2.52-22.08,37.56-34.72,79.5-47.85,120.77-14.16,44.46-28.21,89-41.46,133.69q-11.3,38.17-22,76.52l3.67-1.5c-27.72-20.54-55.06-41.8-83.44-61.43-24.77-17.13-51.83-32-82.33-34.74l2.5,2.5-.19-26.32c0-3.21-5-3.22-5,0Z"/><path class="cls-1" d="M1290.82,657.22c31.3-25.23,77.35-19.62,114.8-19.06l141.25,2.12,141.24,2.12,16.91.26c5.58.08,12.79-.95,17.94,1.6,7,3.45,8,12.48,7.89,19.39a47.6,47.6,0,0,1-2.5,15.05l-29.7,83.68-45.86,129.2-18.29,51.51-6.06,17.07c-1,2.94-2.71,6.16-3.28,9.24a9,9,0,0,1-.42,1.2l2.41-1.84H1220c-5.45,0-11.14-.46-16.58,0-.24,0-.5,0-.74,0a2.54,2.54,0,0,0-2.5,2.5v14.13a2.53,2.53,0,0,0,2.5,2.5l59.95-.66,142.87-1.59,172.63-1.91,149.25-1.65,49.46-.55c7.72-.08,15.58.24,23.3-.26.33,0,.67,0,1,0,3.22,0,3.22-5,0-5l-60,.67-142.86,1.58-172.64,1.91-149.24,1.65-49.46.55-15.36.17c-2.4,0-5.59-.49-7.94.09a4.86,4.86,0,0,1-1,0l2.5,2.5V971.26l-2.5,2.5h407.16c5.45,0,11.14.46,16.58,0,.24,0,.49,0,.74,0a2.58,2.58,0,0,0,2.41-1.83l24.08-67.86,47-132.47,32.08-90.38c4.92-13.87,6.52-39.61-12.39-43-4.68-.83-9.61-.52-14.34-.59l-18.9-.28-36.81-.55-71.61-1.08-145.23-2.18c-22.88-.34-45.79-1.09-68.67-.88-18.59.16-37.81,1.45-55.33,8.21a82.24,82.24,0,0,0-22.19,12.78c-2.5,2,1,5.53,3.54,3.53Z"/><path class="cls-1" d="M1331.75,3301.77c-4.89-3.86-11.81-7-18.15-5.18a10.09,10.09,0,0,0-6.7,12.85c2.27,6.81,10.29,10.61,16.41,13.08a182.1,182.1,0,0,1,26.52,13.22c35.71,21.68,65.31,53.11,95.7,81.4l57.65,53.65c2.36,2.2,5.9-1.33,3.54-3.53l-87.92-81.83c-24.7-23-49.89-46.64-80.44-61.71-7.76-3.83-17.77-6-24.08-12.19-3.62-3.53-4.06-9.63,2.14-10.4,4.09-.52,8.68,1.72,11.8,4.18,2.5,2,6.06-1.55,3.53-3.54Z"/><path class="cls-1" d="M1336.4,3308.61l-1.5-3a2.53,2.53,0,0,0-3.42-.9,2.57,2.57,0,0,0-.9,3.42l1.5,3a2.51,2.51,0,0,0,3.42.9,2.56,2.56,0,0,0,.9-3.42Z"/><path class="cls-1" d="M1334.24,3312.37c3.22,0,3.22-5,0-5s-3.22,5,0,5Z"/><path class="cls-1" d="M1328.13,3309.23c12.68,10,24.9,20.25,40.54,25.14,8.85,2.76,13.7,7.2,18.42,15.07a167.23,167.23,0,0,0,12.64,18.68,132.83,132.83,0,0,0,34.22,30.05c6.56,4,14.92,6.58,20.53,11.9,6,5.64,8.36,15.07,12.5,22a118.62,118.62,0,0,0,30.22,34c11.37,8.58,26.35,15.49,40.76,11.09,12-3.68,21.87-14.51,20.09-27.65-2-14.49-15.67-24.5-24.76-34.7a195.65,195.65,0,0,1-46.59-98.56l-4.57,1.93c13.14,18.53,34.1,39.88,59.21,30.58,23.12-8.56,22-37.76,8.43-54.23-9.74-11.8-23.9-18.63-37.45-25.05-1.88-.89-4.33.59-3.68,2.82a25.2,25.2,0,0,1-13.19,29.61,2.53,2.53,0,0,0-.9,3.42c4.08,7.21,13.21,8.63,20.41,5.45,9-4,12.12-14.31,12.35-23.39.57-22.07-10.6-44.62-26.74-59.27-9-8.16-19.76-13.82-30.88-18.54-13-5.54-26.35-10.41-39.54-15.53-25.4-9.86-51.42-18.82-76.27-30-21.38-9.63-44.39-23.58-49.64-48.23l-2.41,3.16c7.55.28,15.2.55,22.5,2.69,7.48,2.2,13.41,6.75,18.77,12.27,8.91,9.15,16.69,19.71,29.46,23.59,10.37,3.15,21.46-.32,26.51-10.28,4.86-9.59,3.67-21.28,2.1-31.53-.43-2.83-4.91-2.08-4.91.66,0,17.3,2,41.86,22.48,47.2,17.62,4.6,31.15-12.23,39.82-25l-4.32-2.52c-12.14,22.71-2.44,51.23,16.69,66.9,23.59,19.32,56.78,18.35,84.63,10.73,5.9-1.61,13.43-3.79,19.42-1.4,8.31,3.32,5.58,14,6.14,21.06.91,11.36,4.78,23.46,13,31.7s20.47,10.52,30.9,5c11.75-6.16,18.12-19.6,17-32.56a49.26,49.26,0,0,0-8.1-22.52,85.3,85.3,0,0,0-7.42-9.33c-2.07-2.4-3.48-5.76-.51-8,1.47-1.11,3.68-1.51,5.44-1.9,20.8-4.69,43.08-4.19,63.91-.12l-1.74-3.07c-1.82,12.64-3.83,26.27.9,38.55,3.42,8.87,10.56,17.06,20,19.63,12.32,3.36,22.17-6.07,34.07-6.21s20,10.65,24.44,20.4c4.09,8.88,6.54,19.93,3.08,29.44-1.54,4.24-4.62,7.83-9.28,8.58-5.59.91-10.83-2.34-15.46-5-7.17-4.13-15.11-8.7-23.52-5.27-9,3.68-12.87,14.17-15,22.9-3.26,13.51-5.22,29,1.43,41.86,5.28,10.21,16,17.9,27.76,16.76,3.17-.31,3.2-5.31,0-5-12.93,1.25-23-9.35-26-21.19s-.65-26.17,3.5-37.65c1.78-4.93,4.61-10.53,9.62-12.86s10.49-.28,15.12,2.2c7,3.77,14.15,9.27,22.6,8.26,17.66-2.12,17.47-25.8,13.24-38.46-5.86-17.51-19.85-34.54-40.13-28.5-6.38,1.9-12.64,5.57-19.46,5.56-6.38,0-12-3.49-16.07-8.22-10.53-12.26-8.17-29.71-6.06-44.44a2.55,2.55,0,0,0-1.75-3.08,169.42,169.42,0,0,0-50.14-2.41c-7.59.8-31.5,1.62-27.31,15,.77,2.44,2.56,4.43,4.23,6.3a62.78,62.78,0,0,1,7.88,10.61c3.93,6.9,6.34,14.84,5.72,22.83-1.1,14.24-14.38,28.32-29.46,24.31-12.26-3.27-18.49-16.87-20.69-28.26-2-10.44,2.64-26-9.57-31.34-11.1-4.84-24.79,1.93-35.77,4-15.33,2.88-31.55,3-46.54-1.76s-27.78-14.55-35.18-28.68c-7-13.29-8.53-29.36-1.31-42.87a2.5,2.5,0,0,0-4.32-2.52c-7.28,10.72-19.12,26.6-34.17,22.7-18-4.66-18.81-27.53-18.81-42.38l-4.91.67c1.44,9.4,2.82,21.38-2.79,29.76-8.21,12.26-24.37,5.89-33.2-2-8.41-7.54-14.73-17.3-24.43-23.39-10.17-6.38-22.44-7-34.1-7.43a2.53,2.53,0,0,0-2.41,3.17c8.42,39.55,55.94,53.22,88.58,65.89,25,9.7,50.07,19.12,74.92,29.13,21.7,8.74,40.58,20.87,51.39,42.32,5.42,10.75,9.09,23.86,7.82,36-.62,6-3,12.61-8.62,15.52-4.93,2.53-11.73,2-14.64-3.16l-.9,3.42a30.22,30.22,0,0,0,15.5-35.25l-3.68,2.82c12.48,5.91,25.49,12,34.88,22.46,8.6,9.54,13.62,24.9,7.4,37s-21.24,14.59-33.27,10.85c-14.13-4.39-24.13-16.86-32.35-28.46a2.51,2.51,0,0,0-4.57,1.92,200,200,0,0,0,32.87,81.67c8.36,12.07,18.42,22.22,28.23,33.05,5,5.57,10.2,12.32,10.32,20.18.12,7.65-5,14.07-11.45,17.64-14.79,8.18-31.6,0-43.55-9.49a114.86,114.86,0,0,1-29.43-35.4c-3.27-6.07-5.4-13.18-10.31-18.2s-12-7.46-18-10.84a128.38,128.38,0,0,1-34.26-28,142.68,142.68,0,0,1-14.52-20.66c-3.53-6-7.49-11.9-13.87-15.07-7.63-3.8-15.87-5.3-23.29-9.8-8.14-4.94-15.49-11.13-23-17-2.5-2-6.07,1.55-3.54,3.54Z"/><path class="cls-1" d="M1739.72,3366.87l0,22.53,1.24-2.16a92.61,92.61,0,0,1-85.66-4.48l1.24,2.16c.61-15.64,15.56-28.86,12.36-44.91-3.26-16.36-23-20.23-37.06-18.86-16.08,1.58-31.67,11.27-33.73,28.45a24.44,24.44,0,0,0,6.76,20c5.44,5.83,15.29,11,15.41,20,.19,14.28-17.2,18.18-28.17,19.13a186.7,186.7,0,0,1-38.83-.87l2.41,3.17a90.8,90.8,0,0,0,1.63-37.2l-2.41,3.16c30,.25,60.06-.09,90-2.66,29.74-2.55,59-8,88.21-14,27.73-5.66,55.68-11.17,82.29-21.07,15.46-5.76,54.55-27.06,59.25,2.57,2.81,17.78-10,40.71,7.29,54.35,15,11.84,39.86,4.48,51.62-8.55,6.44-7.14,10.34-17.38,4.61-26.12-2.26-3.44-5.51-6.07-8.68-8.63-3.35-2.7-8-5.72-9.25-10.07-1.73-6,4.17-10,8.82-12.27,7-3.41,14.39-6,21.55-8.91l20.26-8.26c6.17-2.51,13.07-4.49,18.75-8,11.42-7,6.39-23,4.93-33.84q-3.27-24.27-8.33-48.25a657.05,657.05,0,0,0-27.38-93.94c-.43-1.13-1.74-2.3-3.08-1.74a120.23,120.23,0,0,1-65.66,8.05l1.84,2.41,1.51-30.21c.38-7.75,1.34-16.46-3.7-23-4.63-6-12.34-8.43-19.34-10.46-8.65-2.52-17.85-4.56-26.85-2.75-12.92,2.61-24.53,16.27-17.9,29.5,3.27,6.51,9.64,10.57,15,15.21,5.67,4.94,13.15,16.53,3.54,21.61-4.92,2.6-11.48,3.48-16.86,4.78q-7.8,1.88-15.67,3.35a314.13,314.13,0,0,1-35.78,4.57,2.53,2.53,0,0,0-2.5,2.5l3.56,62a2.55,2.55,0,0,0,3.17,2.41c7.45-1.14,13.71,5.38,21.08,5.57,8,.21,11.9-7,18.28-10.47,14.26-7.67,33.35-1.5,40.2,13.14a30.22,30.22,0,0,1-17.75,41.54c-9,3-16.59.78-25.24-1.93-6.82-2.14-14.61-3.31-20.85,1.09-7.35,5.18-5.9,16-5.55,23.86a167.67,167.67,0,0,0,4.85,33,2.55,2.55,0,0,0,3.07,1.75,1798.49,1798.49,0,0,1,179-28.71l-2.41-3.17a22.3,22.3,0,0,1-8.94,12.78c-2.62,1.83-.13,6.16,2.52,4.32a27.61,27.61,0,0,0,11.24-15.77c.4-1.42-.76-3.34-2.41-3.16a1814.74,1814.74,0,0,0-180.31,28.88l3.07,1.75a161.24,161.24,0,0,1-4.74-33.5c-.16-5-1.4-12.77,2.2-16.81s9.92-3.58,14.61-2.44c8.69,2.12,16,5.62,25.12,4.32a36.85,36.85,0,0,0,19.79-9.47c11.43-10.67,13.66-28.47,6.41-42.12-6.95-13.1-22.27-19.55-36.65-17a31.47,31.47,0,0,0-10.86,4c-4,2.41-7.15,7.25-11.52,8.73-4.67,1.58-9.71-1.55-13.9-3.24a21.19,21.19,0,0,0-11.63-1.74l3.16,2.41-3.56-62-2.5,2.5a322.53,322.53,0,0,0,53.69-8.33c6.81-1.66,16.68-2.71,21.48-8.42,3.62-4.31,3.19-10.28,1.18-15.21-2.55-6.27-7.33-10.31-12.43-14.49-5.76-4.73-12.94-10.86-10.7-19.26,5.41-20.23,32.87-13.83,46.76-8.56,4.67,1.76,9.11,4.24,11.33,8.91s1.61,10.52,1.36,15.67q-.78,16-1.6,32.1a2.51,2.51,0,0,0,1.83,2.41,124.89,124.89,0,0,0,68.32-8.05l-3.07-1.75a658.51,658.51,0,0,1,24.52,81.07q4.7,20.17,8.11,40.63,1.8,10.82,3.24,21.69c.85,6.44,2.93,14.22,1.67,20.64-1.44,7.27-10.52,9.16-16.49,11.6l-22.11,9-18.41,7.51c-4.93,2-10.19,3.85-14.29,7.37-6.1,5.24-6.88,13.19-1.81,19.41,5.68,7,18,11.42,17.59,21.93-.47,11.85-13.62,20.45-23.79,23.54-9.07,2.75-20.68,3.19-28.17-3.58-15.62-14.11,1.16-39.45-6.28-56.7-8.75-20.31-33.77-12.73-49.19-6.27-25.39,10.66-51.6,17.57-78.51,23.22-32.24,6.77-64.59,13.58-97.41,16.84-32.48,3.23-65.16,3.65-97.77,3.38a2.54,2.54,0,0,0-2.41,3.17,84.53,84.53,0,0,1-1.63,34.54,2.55,2.55,0,0,0,2.41,3.16,189.57,189.57,0,0,0,33,1.26c8.52-.44,17.55-1.06,25.33-4.86,6.89-3.37,12.57-9.74,13.52-17.55.78-6.47-2.45-12-6.85-16.48-5.67-5.73-13.32-10.19-15-18.68-1.81-9,2.85-18.4,10-23.69,7.53-5.57,17.2-7.33,26.39-6.95,8,.34,17.77,2.65,22.35,9.95,5.1,8.13.62,17.72-3,25.46-3.51,7.56-7.16,15.09-7.49,23.57a2.48,2.48,0,0,0,1.24,2.16,97.84,97.84,0,0,0,90.7,4.48,2.45,2.45,0,0,0,1.24-2.16l0-22.53c0-3.22-5-3.22-5,0Z"/><path class="cls-1" d="M1331.45,3013.55c-24.43-4.91-50.44-10-74.91-2.53-23,7-41.73,23.61-63.72,33-11.63,5-23.57,9.2-35.22,14.15-11.13,4.73-22.09,9.83-33,15-22.16,10.43-44.26,21.15-67.39,29.28-25.67,9-52.51,14.4-79.79,11.9-3.2-.3-3.18,4.71,0,5,47.41,4.35,92-14.81,134-34.46,22.49-10.53,44.87-21.1,68-30.1,11.49-4.46,22.93-9.05,33.67-15.14,10.29-5.83,20-12.63,30.59-18,27.62-14,57.35-9.15,86.46-3.3,3.15.63,4.49-4.19,1.33-4.82Z"/><path class="cls-1" d="M1335.4,3016.16c40.38,14.94,80.84,29.68,121.14,44.84,18.48,6.95,37.07,14.53,53.33,25.93,7.63,5.34,14.77,11.81,19.12,20.16,4.87,9.33,5.65,20.2,6.47,30.5a475.28,475.28,0,0,1,0,73.36c-.24,3.2,4.76,3.19,5,0a475.62,475.62,0,0,0,.25-69.4c-.68-9.74-1.22-19.88-4.23-29.23a51.36,51.36,0,0,0-14.28-21.86c-14.07-13.1-32.41-21.51-50-28.7-20.69-8.44-41.86-15.78-62.81-23.53l-72.68-26.89c-3-1.12-4.33,3.71-1.33,4.82Z"/><path class="cls-1" d="M1968,3173.29c25.92-12.15,54.39-7.52,82-7.56a475.56,475.56,0,0,0,73.74-5.92c10.81-1.72,32.53-.65,31.68-16.12-.23-4.14-5.4-9.42-7.48-12.27-11-15-24.78-28.43-18.87-48.84l-4.91-.66c-.46,20.07-62.94,17-65.53-.06l-4.82,1.33c8.08,34.1-29.85,48.68-54.23,59.53-23.24,10.35-42.92,37-69.22,35.94-24.39-1-42.57-20.62-29.79-45.16,6.35-12.19,19.23-22.58,28.66-32.35,18.88-19.56,37.18-40,57-58.54,39.5-36.94,91.07-40.49,142.57-40.58,18.1,0,38.87,2.94,56-4.21,12.62-5.26,23.7-12.69,37-16.74,13.79-4.21,28.24-6,42.53-7.52l-1.76-4.27c-23.16,20.39-48.08,41.67-67,66.2-16.68,21.61-18.22,45.55-15.8,72,1.54,17,4.5,34.16,2.82,51.28-1.84,18.79-9.76,35.79-19.08,52-17.63,30.56-36.46,53.86-67.33,71.85-20.74,12.09-48,25.39-62.79,45.21-8.59,11.53-10.91,30,4,37.69,16.85,8.71,33.33-4.23,45.76-14.08,14.49-11.48,26.68-14.61,43.4-19.82,10-3.13,31.68-22.3,40.67-18.52,2.43,1,4-2.54,2.44-4.18l-31.94-32.73-2.43,4.18c66.36,21.14,111.35,81.52,162.91,125,21,17.66,45.15,44.82,72.87,51.13,32.27,7.35,68.44,6,101.4,8.47,3.23.24,3.17-4.7,0-5-44.85-4.31-86-43.54-119-71.19a449.48,449.48,0,0,1-87.08-97.3c-23.92-36.34-43.13-76.42-54.34-118.53-10.57-39.66-20.27-96.71,5.2-132.93,7.77-11,19.11-18.49,30.15-25.88,7.7-5.15,15.66-12.31,24.15-16,7.88-3.38,7.85-5.76,14.5.19,3.93,3.52,6.9,10.68,9.76,15.08q9.8,15.07,19.64,30.1c25,38.17,49.18,77.58,76.41,114.21,7,9.37,16.6,19.67,29.28,19.93,1.34,0,8.7-2.42,9.68-2.23.45.09.82.58,1.27.71,6,1.73,12.62,8.4,17.31,12.18a255.48,255.48,0,0,1,32,31.21c35.14,40.39,59.87,89.32,77.62,139.53,30.75,87,41.76,180.2,43.3,272.05,2.49,148.84-19.77,297.63-52,442.6-49.12,221.09-122.91,436.43-206.84,646.52-56.12,140.48-117.35,278.89-182,415.62q-55.8,118-114.89,234.33-30.61,60.42-62,120.45c-17.15,32.82-36.7,65.14-52.14,98.78-11.58,25.24-21.32,51.44-32.59,76.84Q1858.7,5758.92,1812,5849c-91,176.47-196.07,347.62-323.31,500.46-128.77,154.69-289.72,303.8-488,359.44a578.51,578.51,0,0,1-64.94,14.31c-21.47,3.44-38.11,3.32-59.37.16-3.14-.47-4.5,4.35-1.32,4.82,16.75,2.49,30.23,4.27,47,2a573.27,573.27,0,0,0,65.61-12.67c43-10.94,84.74-26.72,124.68-46.05,85.6-41.41,162.86-98.77,232.76-162.87,146-133.87,263.63-297.62,365.26-466.79A3394.41,3394.41,0,0,0,1911,5653.28c9.92-22.71,18-46.81,29.62-68.7,80-151.05,157.78-303.16,230.65-457.78,111.25-236.1,213-477.45,293.74-725.81,56.13-172.66,102.74-349.54,126.86-529.73,15.61-116.64,22.15-235.81,8-353-8.82-73.1-25.78-146.17-57.56-212.9-18.43-38.7-42.11-75.78-72.87-105.9-9.74-9.54-22.84-23.65-36.15-28.46-4.84-1.75-12.66,1.66-16,.93-11.57-2.49-19.44-14.53-25.66-23.36-12.39-17.63-24.15-35.75-36.11-53.68q-35.89-53.82-70.93-108.2a2.53,2.53,0,0,0-3.42-.9c-21.34,14.1-48,27-64.65,47-14.11,17-18.42,39.33-19.24,60.84-2.14,56.29,16.44,112.45,42.24,161.81a449,449,0,0,0,102.73,130.13c20.26,17.65,41.84,34.07,63.58,49.86,20.34,14.78,41.32,27,66.75,29.4v-5l-55.38-4.19c-19.5-1.47-42.35,0-59.87-9.8-14.06-7.83-26.83-20.54-39.32-30.75-14.44-11.82-28.72-23.83-42.52-36.39-42.82-39-81.79-85.09-138.76-103.24-2.44-.78-4.12,2.45-2.43,4.18l31.93,32.72,2.43-4.18c-6.18-2.59-10.05-1.69-15.74,1.58-11.86,6.81-18.91,14.41-32.85,18.3-9.11,2.55-18.18,4.13-26.39,9.07-9.71,5.85-17.14,15-27,20.62a35.28,35.28,0,0,1-15.79,5.15q-14,2.51-12-14.54-9.89-12.79,1.88-21.44a62.63,62.63,0,0,1,7.63-6.55,320.54,320.54,0,0,1,37.61-26.12c19.8-11.89,40.24-22.24,55.16-40.39a261.45,261.45,0,0,0,38.24-63.38c9.16-22.05,9.43-43.51,7.07-67-3.3-32.92-6.15-62.84,17-89.82,18.88-22,41-41.83,62.67-61,1.55-1.36.38-4.49-1.77-4.27-22.25,2.29-44.53,5.88-64.77,15.86-14.66,7.23-26.33,12.51-43.19,12.64-13.29.11-26.58-.13-39.88,0-44.92.58-91.18,5.58-126.77,35.67-22.11,18.69-41.35,41.36-61.44,62.16-13.63,14.12-37,31.94-38.09,53.58-1.9,37.82,51.3,41.08,73.84,24.11,12.7-9.56,23.38-19,38.07-25.58,11.69-5.2,24.1-9.5,34.6-17,15.89-11.32,26.59-28.53,21.93-48.21-.76-3.2-5.29-1.77-4.82,1.33,2.71,17.92,29.73,16.56,42.81,16.52,12.67,0,32.16-1.33,32.54-17.79.07-2.85-4.13-3.35-4.91-.67-4.4,15.2.83,28.14,9.82,40.59,7.21,10,21.07,21.36,6.39,29.89-11.06,6.43-34.22,5.67-46.5,6.87-23.85,2.33-47.55,2.1-71.46,1.48-20-.52-38.69.29-57.06,8.89-2.91,1.37-.37,5.68,2.53,4.32Z"/><path class="cls-1" d="M1943.29,3179.28c-28,2.68-55.34,23.75-54.24,53.94.46,12.8,5.94,25.71,16.19,33.69,6.53,5.09,14.52,7.62,22.52,9.32a239.43,239.43,0,0,0,27.56,4.24c20.13,1.86,38.43-2,57.72-7.29a225,225,0,0,1,30.69-6.46c8.94-1.15,19.21-2.76,28.16-1,4.4.85,9,3.19,10.29,7.84,1.69,5.88-3.48,8.36-7.86,10.58a114.39,114.39,0,0,0-18.34,11.81c-11.17,8.64-21.1,18.71-31.67,28-12.1,10.69-25.51,20.73-41.62,24.14-9.9,2.09-22.61.83-23.08-11.88-.4-10.68,8.7-18.37,16.05-24.7,2.44-2.1-1.11-5.62-3.54-3.53-10.42,9-24.33,24.13-14.36,38.61,8.58,12.45,28.11,7,39.39,2,28-12.36,45.89-39.37,71.41-55.51,5.48-3.47,14-5.76,17.49-11.6,3.37-5.67.64-13-4.2-16.86-6.16-4.94-14.79-4.66-22.24-4.32a202,202,0,0,0-29.51,3.57c-20.94,4.1-40.81,12.34-62.45,12.2-11.21-.07-22.34-1.66-33.35-3.69-9.27-1.7-19.06-3.74-26.55-9.85-13.62-11.13-17.26-32-10.28-47.78,7.91-17.9,26.87-28.69,45.82-30.51,3.18-.31,3.21-5.31,0-5Z"/><path class="cls-1" d="M1947.27,3199c-1.71,19.51-2.68,40.9,10.43,57l1.77-4.27c-9.7.24-20.45,1.72-30-.43-9.24-2.09-14.47-9.14-16.93-17.93s-3.64-19.26,4.48-25.29,19.09-4.66,28.54-3.54v-5c-14.06-.11-28.88,3.23-40.85,10.86-5.47,3.49-7.3,7.63-8.26,13.91-1,6.63-1.62,13.53,1.34,19.76,2.65,5.59,7.61,9.52,12.64,12.88,6.47,4.31,13.16,8.33,19.74,12.48,6,3.75,11.94,7.43,18.78,9.35,7.39,2.07,15.13,2.33,22.76,2.19,3.21,0,3.22-5,0-5-13,.23-24.2-1.72-35.39-8.59-5.16-3.17-10.26-6.45-15.38-9.67s-10.56-6.2-14.81-10.5c-4.91-5-6-11.12-5.34-17.87.31-3.07.54-6.66,1.76-9.53,1.3-3.05,3.88-4.68,6.69-6.25a73.12,73.12,0,0,1,36.32-9c3.3,0,3.11-4.63,0-5-11-1.31-23.3-2.26-32.48,5.31-8.25,6.81-8.14,17.26-6.07,26.95,2,9.32,6.78,18.49,15.83,22.57,11,4.94,25,2.64,36.63,2.36a2.53,2.53,0,0,0,1.77-4.26c-12.11-14.84-10.54-35.56-9-53.44.29-3.21-4.72-3.19-5,0Z"/><path class="cls-1" d="M1508.87,3215.81c6.07,19.54,12.58,40,26.45,55.53,7.39,8.29,17.69,13.31,24.91,21.68,5.69,6.59,8.42,15.31,8.55,23.94.26,18.19-10.45,35.09-28.4,39.94-21.3,5.74-46.59-1.47-66.49-9.4a170.28,170.28,0,0,1-55.19-35.62c-8.16-7.88-14.91-17.29-23.79-24.4a59.89,59.89,0,0,0-27.66-11.89c-21.56-3.59-44.5,1-64.42,9.47-11.65,4.93-22.33,11.68-33.47,17.59a257.73,257.73,0,0,1-32.84,14.54c-50.26,18.26-104.41,22-157.46,21.12-3.25-.06-3.18,4.78,0,5q82.21,5.74,164.69,4.4l-2.16-3.76c-17,25.73-47.67,40.41-74.58,53.43a511.75,511.75,0,0,1-91.45,33.85,519.84,519.84,0,0,1-53.82,11.23c-2.81.44-2.11,5,.66,4.91,37.41-.74,74-9,109.8-19.43,18.09-5.28,36-11.11,54-16.8,18.2-5.76,36.61-12.29,55.34-16.09a52.56,52.56,0,0,1,28.56,1.68c8.75,3.08,16.74,8,24.55,12.95,16.88,10.64,33.81,21.22,50.87,31.57,33.81,20.5,67.88,41.08,102.89,59.48,14.94,7.86,32.39,11.63,45.9-1.11,12.14-11.46,12.22-30.26,1.83-42.84-2.05-2.49-5.57,1.07-3.53,3.53,11.32,13.71,6.21,34.75-10.5,41.25-17,6.6-35.23-7.29-49.35-15.21q-49.12-27.55-97.15-57c-15.57-9.55-30.8-19.75-46.56-29-14-8.23-28.68-13.44-45.12-10.83-17.6,2.8-35,9.21-52,14.54-16.82,5.28-33.57,10.74-50.44,15.86-38.77,11.76-78.4,21.61-119.11,22.42l.67,4.91c65-10.06,130.42-32.14,186.33-67.23,14.16-8.89,27.24-19.51,36.51-33.58a2.52,2.52,0,0,0-2.16-3.76q-82.39,1.35-164.69-4.4v5c48,.8,96.86-2.19,143.11-16.1,23.69-7.13,45.11-17.8,66.7-29.68s46.3-19.92,71.23-17.83c12.47,1,24.48,5.21,33.94,13.57,8.84,7.81,15.89,17.47,24.63,25.44a176.43,176.43,0,0,0,54.63,33.9c19.83,7.77,43.8,14.13,65.11,9.88,17.39-3.47,30.12-16.35,34.07-33.56a47.9,47.9,0,0,0-1.26-26.63c-3.52-9.77-10.36-16.27-18.5-22.41-10.69-8.06-19-17-25.21-28.94-6-11.56-10-24.06-13.82-36.47-1-3.06-5.78-1.76-4.82,1.33Z"/><path class="cls-2" d="M384.16,7073.61v145.86h-228V6999.33q0-267.87,228-280.7v114q-109.73,10-109.71,158.87H614.28M724,6765.61v67q-109.72,10-109.72,158.87H724v228H496V6999.33q0-234.37,174.54-273.51s62.68-24.5,205.17,0"/></svg>