
<svg xmlns="http://www.w3.org/2000/svg" viewBox="0 0 2046.82 1427.02"><defs><style>.a{fill:#c54b63;}</style></defs><path class="a" d="M419.68,784c3.21,0,3.22-5,0-5s-3.23,5,0,5Z"/><path class="a" d="M651.62,441.83c1.63-20.38,4-40.85,4.66-61.28a100.06,100.06,0,0,0-2.74-28.12c-2.41-9.5-6-18.69-8-28.28-4.34-20-2.85-40.68-2.64-61,.09-8.93.77-18.81-1.17-27.59-1.47-6.68-6.2-9.42-12.77-9.36-19.43.17-39.24,3-58.45,5.64q-30.13,4.18-59.84,10.95T452,258.88c-14.76,4.75-31.93,9.21-41.43,22.51-4.69,6.56-7.21,14.36-9.58,22q-4.56,14.6-8.76,29.29c-5.51,19.24-10.57,38.62-15,58.15-8.81,39-15.07,78.74-17.11,118.73-2,38.88.05,78.06,7.28,116.35a396,396,0,0,0,15.15,57c4.65,13.31,11.14,28.29,27.22,29.44s32.9-9.81,45.14-19.13c13.73-10.45,25.57-23.08,36.88-36,12-13.74,22.43-28.13,27-46,4.55-17.67,4.3-36.28,2.32-54.29a246.3,246.3,0,0,0-48.58-122.26c-5.55-7.38-12.09-15.31-13.12-24.83-1-9.27,3.86-18.77,14-19.29,8.59-.44,17.25,4.45,23.61,9.84,26.6,22.52,40.53,57.64,45.95,91.27,6.57,40.78,1.63,83-3.41,123.68-1.28,10.35-3.18,20.83-8.12,30.14-4.31,8.11-10.47,15-17,21.39-13.69,13.31-28.31,25.59-41.79,39.14q-10.51,10.57-20.54,21.61c-5.77,6.35-12.73,12.8-17.13,20.23-7.41,12.53,4.43,24.69,17.47,23.82,8.41-.56,15.87-5.28,22.91-9.48l26.76-16c14.81-8.83,30.74-16.94,43.68-28.5,10.44-9.32,18.72-22.08,17-36.64-1.63-13.89-11.86-25.58-24.05-31.72C507.24,633.32,467,653,440.29,670.51c-24.77,16.26-59,42.69-49.57,76.49,4.36,15.67,15.57,28.74,27.49,39.35l2.43-4.18a342.47,342.47,0,0,0-107-6.3c-8.46.85-16.9,2-25.27,3.48-2.63.46-5.45,1.41-8.1,1.49-.94,0-1.94-.2-2.88-.27a165.43,165.43,0,0,0-35.72,1.32c-18.22,2.57-36.31,8.21-51.83,18.27-19,12.33-32.57,30.83-39.47,52.34-10.63,33.12-6.66,69.67.87,103,5.93,26.24,14.65,51.82,24.68,76.77,4,10,8.53,23.47,14.46,31.29a284,284,0,0,1,26.31,42.23c12.11,23.65,21.3,49.29,24.48,75.77,3.7,30.79-1.44,62-17.08,89-22.11,38.18-60.67,63.74-100,81.69a444.2,444.2,0,0,1-41.8,16.38c-3,1-1.73,5.86,1.32,4.82,45.74-15.5,92.24-37.33,125.18-73.72,22-24.33,35.81-54.64,38.17-87.47,2-28-3.89-56.1-13.93-82.12a291,291,0,0,0-30-57.42c-3.14-4.67-6.52-9.13-9.84-13.66a18.43,18.43,0,0,1-1.84-3.11c-7-14.14-12.53-29.33-18-44.15-14.82-40.53-27.28-84.76-23.83-128.37,2-25.09,10.53-49.91,28.85-67.78,13.9-13.55,31.91-21.88,50.65-26.3a161.73,161.73,0,0,1,42.24-4.06c2.95.09,6,.61,8.93.58a19.48,19.48,0,0,0,2-.26c9.41-1.19,18.69-3.32,28.15-4.37A335.49,335.49,0,0,1,419.31,787c2.28.5,4.42-2.41,2.43-4.18-12.27-10.92-24.27-24.75-27.19-41.45-3.26-18.6,8.71-33.27,21.36-45.24a195.91,195.91,0,0,1,41.94-30.24c16.25-8.73,34.55-16.48,53.23-17.17,16.72-.63,33.94,5.84,42.7,20.84,8.56,14.65,2.81,30.44-8.45,41.65-11.68,11.62-26.91,19.36-40.92,27.72l-24.85,14.83c-7.91,4.72-16.23,11.06-25.52,12.53-9.86,1.56-20.9-6.45-14.25-16.74,4.89-7.57,12-14.24,18-20.87q18.72-20.4,39.1-39.19c11.91-11,25-21.15,34.46-34.49,10.12-14.32,12.28-31.19,14.19-48.18,7.41-66.31,13.65-142.42-32.43-197.25-8.88-10.56-20.18-21.51-34.4-23.78-12-1.92-22.56,5.28-24.2,17.55-2.12,15.86,9.85,28.12,18.32,40a243.16,243.16,0,0,1,24.86,44.18c13.81,31.87,21.95,68.34,19.33,103.17-1.43,19-7.61,36.15-19.2,51.31a289.58,289.58,0,0,1-34.48,37.59c-12.23,11.17-27,22.29-43.26,26.58-9.76,2.58-19.07.7-25.08-7.81-4.75-6.73-7.16-15.08-9.72-22.82-11.74-35.53-18.11-72.68-20.17-110C361,490,374.44,414.88,394.65,342.4q3.81-13.68,7.93-27.27c2.54-8.39,4.71-17.19,8.62-25.08,8.14-16.45,25.9-21.14,42.09-26.35a702.17,702.17,0,0,1,109.9-25.79q29.22-4.41,58.74-6.31c4.38-.28,9.5-1.57,12.74,1.78,3.7,3.83,2.91,10.76,3.08,15.85.3,9.28,0,18.57-.14,27.86-.35,17.94-.31,36.05,4.31,53.52,2.32,8.79,5.55,17.32,7.52,26.21,2.13,9.58,2.17,19.35,1.58,29.11-1.12,18.65-2.91,37.28-4.4,55.9-.25,3.21,4.75,3.19,5,0Z"/><path class="a" d="M647.16,439c14.52,30.84,46.42,59.19,82.94,48.82,27.22-7.73,40.83-35.37,56.07-56.69,9-12.59,19.71-24.61,34.91-29.44L818,399.93a216.32,216.32,0,0,1,2,67.37l4.26-1.77c-19-20-53.92-19.67-72.56.65l4.18,2.43a423,423,0,0,1,20.43-72.39c1-2.71-3.15-4.29-4.56-1.93-16.73,27.79-54.26,25.56-80.08,13.89-14.66-6.63-28.86-15.45-41.91-24.84-5.94-4.28-11.93-9.43-15-16.26-3.52-7.93-1.52-16.25,2.66-23.48,4-6.89,9.35-12.81,14.28-19s9.87-12.84,14.46-19.51a339.93,339.93,0,0,0,25.18-43q5.16-10.5,9.58-21.36c3-7.4,5.77-15.52,3.9-23.57-2.27-9.8-14.68-18.29-23.72-11-5.14,4.17-6.16,11.37-6.46,17.57-.42,8.82.36,18,3.4,26.32,5.23,14.42,17.82,26.2,33.78,26.16l-2.5-2.5c.76,28,13.21,54.83,33.28,74.26,21,20.28,49.44,31.67,78.33,33.87,12.46.94,26.91,1,37.83-6,9.65-6.18,12.72-16.62,13.76-27.45,1-10-.67-23.38,6.12-31.74,4.09-5,11-5.44,15.75-9.58,4.12-3.6,6.3-8.88,7.07-14.21,2.13-14.73-7-27.49-7.46-41.91-.43-14.66,7.71-27.84,13.15-40.93s7.66-26.56,4.06-40.55c-3.5-13.59-11.38-26-21.28-35.82-22.45-22.29-54.26-33.25-82.65-45.72-14.84-6.52-29.94-13.12-46-15.89a92.71,92.71,0,0,0-39.87,1.81c-26.14,7-49.16,24.63-63.7,47.33C641.82,146,635.59,176.24,637,205.5a183.69,183.69,0,0,0,2.36,21.31c.47,2.79,5,2.13,4.91-.66a399.77,399.77,0,0,1,3-68.82c2.86-21.68,6.87-44.11,14.72-64.6,7.62-19.92,21-34.55,40.41-43.4,20.19-9.19,43.15-13.67,65.08-16,39.71-4.19,84.14-1.22,118.6,20.93,15.65,10.06,30.23,25,33.06,44.19,1.37,9.32-1.12,18.81-8.07,25.39-6.51,6.15-15.69,8.6-24.42,9.11-20.27,1.19-39.08-8.28-59.09-9.74-8.11-.59-17.93-.32-24.69,4.87-5.43,4.18-7.4,10.61-6.69,17.25,1.57,14.81,14.85,32.93,1,45.59-14.48,13.21-37.2,7.37-52.31,19.47-5.66,4.54-10.17,11.44-10.18,18.89,0,3.48,2.24,6.83-1.69,8.82-3.52,1.77-8.4.72-11.2-1.88-7.36-6.85-4.95-19.72-6.08-28.69-.93-7.37-3.72-14.75-10.58-18.48-14.48-7.87-29.91,4-34.38,17.69-3.06,9.39-1.91,18.87-1.29,28.53s-.88,23.24-12.82,25.08c-13.6,2.08-12.67-26.76-28.45-19.16-7.24,3.49-13.45,11.25-18.18,17.53a111.29,111.29,0,0,0-13,22.71c-7.28,16.7-11.49,34.49-15.42,52.21C576.8,355.46,572,377.54,571.48,400a144.08,144.08,0,0,0,2.85,32.43,2.5,2.5,0,0,0,3.67,1.49c17.08-12.25,40-23.38,60.49-12.33,18,9.74,28.81,30.58,36.6,48.68,8.9,20.65,15.15,42.57,21.56,64.09,6.67,22.41,12.51,45.32,14,68.74,1.52,24.68-1.84,49.81-13.24,72-1.47,2.86,2.85,5.39,4.32,2.52,22.59-43.95,14.34-94.56,1.13-140-6.67-22.93-13.39-46.23-22.72-68.25-8-18.89-18.94-40-37.11-51-22.46-13.6-48.16-2.68-67.51,11.21l3.67,1.49c-4.91-23.83-2.32-48.17,2.2-71.85,3.85-20.13,8-40.54,14.36-60.07,5.87-18.14,14.41-36,28.78-48.92,3.25-2.93,7.89-7.46,11.87-3.3,2.55,2.67,3.92,6.46,5.81,9.58,3.3,5.46,8,9.73,14.82,8.87s12.87-6.19,15.52-12.42c4.21-9.91,1.08-21,1.08-31.32,0-9.81,2.77-21.38,11.7-26.89,8.77-5.42,20.53-3.33,24.12,7.06,4.47,12.92-2.46,39,17.13,41.92,5.38.8,11.79-1.12,13.83-6.65,1.3-3.52-1.18-7.13-.28-11,1.15-5,4.63-9.4,8.69-12.39,8.78-6.47,20.68-7,31-9.27,8-1.79,16.11-4.94,21.94-10.88C814,181,806,165,802.28,150.64c-2.32-9-1.36-17.92,8.81-21.15,10.69-3.39,23-.84,33.59,1.64,18,4.23,36.52,10.25,55,4.65,15.72-4.77,26.12-18.54,24.75-35.19C922.93,82.82,911.56,67.52,898,56.72c-31-24.74-72.81-31-111.37-29.71A266.46,266.46,0,0,0,718.8,38c-18.41,5.55-36.56,14-48.65,29.54-12.33,15.8-17.55,35.94-21.8,55.17a401.39,401.39,0,0,0-9.07,69c-.5,11.49-.48,23,0,34.48l4.91-.67C635.07,171,653.55,109.73,706.4,84.66a91.94,91.94,0,0,1,38-9.07c15-.2,29.51,4,43.37,9.43,14.31,5.6,28.29,12.13,42.35,18.33,13.1,5.78,26.21,11.74,38.27,19.52,23.2,15,44.75,41.24,38.88,70.73-2.6,13.09-9.84,24.61-14.39,37-4.72,12.9-4.36,24.5-.32,37.51,3.43,11.05,9.17,28.6-3.26,36.49-4.51,2.86-9.64,3.62-13.45,7.67a24.68,24.68,0,0,0-5.54,10.32c-2.75,9.72-1.67,20.05-3.26,29.95-2.07,13-9.88,20.9-22.86,23.5-14.88,3-31.53.71-46-3.08A120.46,120.46,0,0,1,756.1,352.9c-24.74-18.64-40.88-48.1-41.72-79.21a2.55,2.55,0,0,0-2.5-2.5c-16.84,0-28-14.69-31-30-1.53-7.53-2.1-16.44-.35-24,1.95-8.39,9.83-11.69,16.19-5.11s3.45,17,.52,24.64-6.46,15.31-10.11,22.75a339.39,339.39,0,0,1-23.21,40.15c-8.58,12.76-18.94,24.12-27.7,36.71-7.24,10.42-11.29,22.94-4.9,34.81,6.21,11.53,18.76,18.54,29.42,25.32,12.79,8.13,26,15.92,40.46,20.72,26,8.64,59.6,5.06,74.93-20.42l-4.57-1.92a422.87,422.87,0,0,0-20.43,72.4c-.43,2.27,2.36,4.41,4.18,2.43,16.84-18.37,48.29-18.72,65.49-.65,1.65,1.73,4,.23,4.27-1.77a220.57,220.57,0,0,0-2.2-68.7,2.51,2.51,0,0,0-3.07-1.74C795,404.72,782,428.69,768.14,448.74c-7.38,10.68-15.54,21.47-26.67,28.5-15.1,9.54-34,9.55-50.05,2.3-18.53-8.36-31.47-25.08-39.95-43.07-1.37-2.91-5.68-.38-4.31,2.52Z"/><path class="a" d="M699.94,677.14c-15.54-20.92-45.43-14.65-66.88-8.68a381.12,381.12,0,0,0-89.74,38,2.57,2.57,0,0,0-.9,3.43c2.88,5.82,9.31,7.24,15.29,7.72,10,.81,20.15,1.05,30.2,1.55,19.43,1,38.87,2,58.32,2.61,32.3,1,66.11.07,96.36-12.58,29.54-12.36,50.23-36.09,63.35-64.83,13.6-29.78,19.48-62,28.48-93.33,4.67-16.22,10.19-32.32,18.14-47.26A134.65,134.65,0,0,1,866.88,482c4.76-5.83,10.66-13.39,18.62-14.55,12-1.75,6,17.81,3.93,23.59-3.07,8.67-7.51,16.91-11.77,25A498.48,498.48,0,0,1,783.38,642.3a542.47,542.47,0,0,1-41.27,36c-7.77,6.16-15.61,12.25-23.24,18.59-5.38,4.46-11.76,9.58-13,16.92-2.72,15.73,19.83,12.45,28.41,9.24a55.07,55.07,0,0,0,29-26A52.46,52.46,0,0,0,769,678.46c.64-5.8.77-14-2.43-19.18-3.71-6-13.47-5.58-19.59-5.64a84.26,84.26,0,0,0-24.79,3.49,85.81,85.81,0,0,0-22.65,10.6c-2.68,1.76-.18,6.1,2.52,4.32a80.36,80.36,0,0,1,49.14-13.26c4.67.3,10.5.24,12,5.6a35.22,35.22,0,0,1,1.05,10.73,46.09,46.09,0,0,1-5.94,20.53c-6.76,12.19-18.59,21.88-32.44,24.54-3.33.63-7.61,1.26-10.93.28-6.23-1.85-4.24-7.68-1.42-11.6,5.21-7.23,14-12.67,20.86-18.16,27-21.4,52.81-43.45,75.88-69.1a505.52,505.52,0,0,0,58.2-78.85c8.36-14,16.43-28.41,23-43.36,3.81-8.67,13.29-32.09-1-36.65-12.11-3.87-23.24,10.59-29.44,18.64-9.34,12.14-16.32,25.82-21.93,40-22,55.81-22.4,128.71-73.38,168.7-25.16,19.73-57.78,25.52-88.95,26.69-35.52,1.34-71.3-1.71-106.75-3.52-6.63-.33-19.69,1.29-23.24-5.89l-.9,3.42a375.28,375.28,0,0,1,81.64-35.54c20-6,52.85-16.2,68.14,4.39,1.9,2.55,6.24.06,4.32-2.53Z"/><path class="a" d="M497.65,746.79c-1.52,10.79-2.88,22.53,1.21,32.94,4.3,10.94,14.23,16.23,25.32,18.15,29.59,5.14,60.77,2.5,90.54.51,31.09-2.07,62.11-4.2,93.24-1.67,15.39,1.25,30.73,3.15,46.15,4a286.92,286.92,0,0,0,46.52-1.49c14.88-1.62,29.69-4,44.45-6.44,10.91-1.83,21.85-4.08,32.18-8.12,9.3-3.64,18.3-8.74,24.82-16.47s11.8-19.09,7.53-28.92c-4-9.12-14.42-11.19-23.38-11.14-6,0-20.29,1.71-19,10.88.78,5.41,6.87,4.66,11,4.68a75.53,75.53,0,0,0,20.5-2.73c8.85-2.47,21.62-7.54,22.22-18.42.21-3.9-2.77-8.1-1.6-11.88,1-3.25,4.92-5,7.56-6.71,4.18-2.71,7.68-5.8,9.22-10.72,3.32-10.6-2.65-22.08-11.9-27.39-10.92-6.27-25.15-5.9-37.11-3.39-11.36,2.39-22.51,8.08-27.77,18.91-1.4,2.88,2.91,5.42,4.31,2.52,8.5-17.5,36.29-21.72,53.15-15.91,9.56,3.28,18.1,13.24,14.5,23.93-2.71,8.05-13.12,8.76-16.36,16.36-2,4.62.75,8.48.92,13.1.23,6.06-5.66,9.84-10.59,12a64,64,0,0,1-17.95,4.77,69.93,69.93,0,0,1-8.19.51c-2.69,0-9.14.6-4.76-3,3.31-2.75,8.46-2.56,12.51-2.53,5,0,10.56.56,14.64,3.73,9.49,7.39,2.44,21.69-3.85,28.76-12.05,13.55-31.46,18.24-48.58,21.4-24.26,4.48-49,8.33-73.74,9s-49.44-3.14-74.17-4.8c-25.27-1.7-50.57-.25-75.8,1.45-28.11,1.89-56.33,4-84.5,2-12.34-.88-28.48-1.28-35.67-13.2-5.88-9.74-4.28-22.66-2.78-33.38.45-3.14-4.37-4.5-4.82-1.32Z"/><path class="a" d="M788.65,700c-3.08-15.6,9.31-30.16,20.65-39.27,11-8.85,24.31-14.58,37.84-18.31,24.35-6.73,56.6-11.18,79.49,2.27,10.62,6.24,25.31,25,11.51,35.72-2.54,2,1,5.48,3.53,3.53,10.78-8.36,7-24.67-.7-33.78-9.79-11.57-24.89-16.6-39.53-18.15-16.24-1.72-33.09.28-48.94,3.9S821,645.59,808,655.47c-13.84,10.5-27.86,27.33-24.19,45.89.62,3.15,5.44,1.82,4.82-1.33Z"/><path class="a" d="M785.87,700.44c6.76,6.68,16.48,3.78,24,0,11.31-5.66,22.7-11.9,33.41-18.63,10.47-6.59,18.4-15.19,27-24a109.4,109.4,0,0,1,30.79-22.18c2.89-1.41.36-5.72-2.53-4.32a112.66,112.66,0,0,0-25.59,17c-8.66,7.68-15.6,17.14-24.86,24.15-8.79,6.65-18.76,11.65-28.4,16.93-7.37,4-22.3,15.35-30.27,7.47-2.29-2.27-5.83,1.27-3.54,3.53Z"/><path class="a" d="M908.41,315.64C934.89,360.2,969.77,407.56,966.7,462a132.4,132.4,0,0,1-22.64,66.75c-6.67,9.81-15.1,17.83-23,26.53-6.89,7.53-13.44,16.11-15,26.47-3.48,23.51,20.9,39,20.71,61.76,0,3.22,5,3.22,5,0,.17-21.05-19.76-35.09-21-55.5-.78-12.62,7.8-22.84,15.93-31.45,7.69-8.14,15.4-16,21.73-25.28a137.27,137.27,0,0,0,23-64.55c2.26-24.61-3.08-48.65-12.73-71.22-12.34-28.86-29.91-55.46-45.9-82.36-1.64-2.76-6-.25-4.31,2.52Z"/><path class="a" d="M912.05,315.75c15.14,23.72,38.55,40.2,55.35,62.53A90.69,90.69,0,0,1,985,420.48c2.49,17.31,1.6,35.16,1,52.57A843.92,843.92,0,0,1,974.42,584.3c-3.07,17.9-6,36.31-12.38,53.37-6,16.05-15.72,30.41-21.93,46.4-6.77,17.43-10,36-12,54.52-1,9.24-1.58,18.51-2.11,27.78-.43,7.38-2,15.62,2.89,21.82,2,2.52,5.52-1,3.54-3.53-2.65-3.33-2-8.07-1.78-12,.22-4.18.46-8.37.72-12.54.53-8.38,1.18-16.75,2.13-25.08,1.93-16.88,5.22-33.75,11.4-49.62s15.9-30.34,21.93-46.4c6.4-17.07,9.31-35.47,12.38-53.37a853.36,853.36,0,0,0,11.5-107.69c1.35-31.42,3.84-65.86-13.3-93.79-16.47-26.86-44.15-44.4-61.07-70.93-1.72-2.7-6-.2-4.32,2.53Z"/><path class="a" d="M936.43,695.79a249.64,249.64,0,0,0,37,3.89c2.37.07,3-2.69,1.77-4.27a263.43,263.43,0,0,0-43.74-43c-8.77-6.79-33.92-29.27-44.39-14.62-1.87,2.63,2.46,5.13,4.32,2.53,5.33-7.46,20.36,4.06,25.15,7.35a252.58,252.58,0,0,1,20.8,15.92A262.79,262.79,0,0,1,971.66,699l1.76-4.27A241,241,0,0,1,937.76,691c-3.15-.57-4.5,4.25-1.33,4.82Z"/><path class="a" d="M749.68,619.38a16.79,16.79,0,0,1,4.29,2l3.22,1.84c1.88,1.06,3.77,2.12,5.66,3.16q6.09,3.36,12.25,6.59,11.5,6,23.24,11.55,23.79,11.21,48.44,20.38c3,1.13,4.32-3.7,1.33-4.82A623.93,623.93,0,0,1,785,632.47c-9.93-5-19.64-10.42-29.35-15.87-2.72-1.52-6.18-3.35-9.1-1.19a4.76,4.76,0,0,0-1.23,6.5c1.72,2.71,6,.2,4.32-2.53Z"/><path class="a" d="M747.49,616.1c-3-6.91,7.24-8.9,11.6-7.82,5.42,1.35,10.55,4.38,15.62,6.7q13.59,6.24,27.41,11.95,28.77,11.93,58.41,21.56c3.07,1,4.38-3.82,1.33-4.82a797.07,797.07,0,0,1-75.16-28.74c-5.75-2.55-11.46-5.2-17.16-7.84-5-2.33-10.32-4.82-16-4.23-7.7.79-13.67,8.3-10.38,15.76,1.29,2.94,5.6.4,4.32-2.52Z"/><path class="a" d="M929.66,785.5a458.83,458.83,0,0,1,118.76-1.08,2.51,2.51,0,0,0,2.41-3.17,515.5,515.5,0,0,1-27.12-165.15c0-18.59,1.87-37.08,2.18-55.65.32-19-4.33-37.14-6.22-55.94s0-37.67,1.37-56.34c2.52-34.88,6.37-70.81,21.48-102.82,3.87-8.21,8.26-17.2,15.46-23,8-6.43,19.39-7.06,29.08-8.74l65.69-11.38c3.16-.55,1.82-5.36-1.33-4.82l-60.78,10.53c-9.12,1.58-19,2.37-27.6,5.82-6.78,2.7-11.93,7.53-16.1,13.43-9.63,13.62-15.62,30.48-20,46.45-4.68,17.17-7.27,34.85-9.06,52.53-1.84,18.35-3.29,36.87-3.85,55.3a178,178,0,0,0,1.34,29.1c1.35,10,3.44,19.92,4.61,30,2.26,19.53-.36,39.16-1,58.71a516.67,516.67,0,0,0,1.29,57.16A524.88,524.88,0,0,0,1046,782.58l2.41-3.16a463.32,463.32,0,0,0-120.09,1.26c-3.17.45-1.82,5.26,1.33,4.82Z"/><path class="a" d="M1150.33,302.23c3.76,25.11,20.83,48.07,46.35,53.93a52.43,52.43,0,0,0,37-5c12.38-6.72,23.42-16.84,33.28-26.78a215.87,215.87,0,0,0,26.9-33.16c4.39-6.67,7.87-12.2,16.07-14.28,6-1.53,12-2.28,17.82-4.7a60.14,60.14,0,0,0,26.5-21.88c5.62-8.33,12.45-22.69,8-32.72-4.06-9.12-16-10.36-24.63-8.86-12.93,2.25-30.08,11.73-37.88-4.49-4.92-10.21-3.91-22.27-6.73-33.07a70.81,70.81,0,0,0-16.35-29.53c-15.81-17.39-39.29-27.47-62.8-26.44-25,1.09-48.79,13.38-65.89,31.43C1129.41,166.3,1119.5,192.39,1117,219a154.33,154.33,0,0,0,1.93,41.66c.9,5,2.4,10,7.91,11.39a13.2,13.2,0,0,0,12.1-3.62c4-4,5-9.82,5.5-15.16a218.42,218.42,0,0,0,.52-23.45c-.32-16.45-1.78-32.84-2.59-49.27-1.38-28.36-.59-57.93,11.44-84.21,11.28-24.67,32-41.52,58.23-48.19,25.65-6.53,53-4.32,78.8.36,13.05,2.38,26.74,5.12,38.06,12.42,13.11,8.46,18.48,23,23.54,37,5.41,15,9.93,30.71,9.58,46.8-.33,15.11-5.45,29.48-9.5,43.87-3.76,13.32-6.53,27-4.52,40.82,1.84,12.64,7.2,24.42,13.18,35.58,6.28,11.74,13.46,23.05,18.8,35.27a101.75,101.75,0,0,1,8.2,45.11c-2.11,54.4-36.91,108-18.23,162.88a73.91,73.91,0,0,0,17.41,28.38l2.43-4.17c-39.68-10.82-73.41-39.49-89.59-77.44a138.08,138.08,0,0,1-10.56-65c1.84-22.93,10.09-44.74,20.77-64.94,5.82-11,12.36-21.65,19.12-32.12,6.17-9.58,12.62-22.25,24.65-25l-3.16-2.41a72.26,72.26,0,0,0,22.74,52c15.16,14.15,35.24,18.7,54.86,23.14,20.41,4.63,41,10.39,54.27,27.85,12.08,15.93,16.36,36.54,18.68,56,3.06,25.6,6.61,54.19-2.48,78.88-1.11,3,3.72,4.33,4.82,1.33,8.2-22.26,5.8-46.71,3.73-69.85-1.73-19.35-4.52-39.23-13.14-56.87-8.48-17.32-22.7-29.24-40.76-35.69-20.11-7.19-42.28-8.22-61.5-17.95a66.86,66.86,0,0,1-36.22-58.84,2.53,2.53,0,0,0-3.17-2.41c-9.54,2.21-15.85,9.69-21.16,17.45-6.91,10.1-13.43,20.53-19.56,31.12-12.14,21-22.44,43.53-26.22,67.64-7,44.91,8.43,91.77,41.28,123.25a143.22,143.22,0,0,0,61.28,34.68,2.52,2.52,0,0,0,2.43-4.18c-38.58-39-15.54-100-4.48-145.23,6.79-27.75,10.81-57.15.22-84.52-9-23.14-25.77-42.89-32.15-67.09-7.49-28.47,8-54.35,11.76-82,1.94-14.4-.16-28.82-4.11-42.71-3.66-12.88-8-26.57-14.82-38.19-12.79-21.93-38.7-27.1-61.9-30.81-23.89-3.83-48.81-5.3-72.56.26-22.58,5.29-42.61,17.76-55.65,37.14-13.46,20-18.76,44.59-20,68.35-1.69,31.08,3.41,62,2.82,93.12-.12,6.17.24,13.25-2,19.14-1.31,3.49-4.07,6.77-8.12,6.81-5.34.06-5.74-5.64-6.42-9.68a149.13,149.13,0,0,1-1.22-41.18c3-27.3,14.62-53.6,35.25-72.12,18.45-16.58,43.78-26.78,68.79-23.65,23.31,2.91,45.34,17.45,56.51,38.22,5.75,10.7,6.66,21.93,8.55,33.69,1.45,9,4.24,19,12.81,23.77,11.88,6.61,24-1.54,36-3,5.09-.6,11.65-.28,15.56,3.52,5.09,4.93,2.22,13.68.1,19.46a54.87,54.87,0,0,1-23,27.68,53.15,53.15,0,0,1-16.71,6.49c-5.78,1.22-11.8,2-16.69,5.57-4.59,3.38-7.31,8.62-10.4,13.27a205.17,205.17,0,0,1-14,18.74A211.13,211.13,0,0,1,1245.55,337c-11.41,9.15-23.69,16.25-38.79,15.56a52.16,52.16,0,0,1-35.7-17c-8.84-9.59-14-21.88-15.91-34.68-.47-3.17-5.29-1.83-4.82,1.33Z"/><path class="a" d="M1497.06,503.66a1065.45,1065.45,0,0,1,10.46,201.59l4.66-1.26c-8.61-11.51-22.33-15.15-36.12-15.8-18.59-.86-37.56,1.83-56.08,3.2-42.47,3.14-85,6.24-127.52,7.73-42.1,1.49-84.31,1.39-126.33-1.81-10.63-.81-21.29-1.68-31.86-3.08-8.49-1.13-17.42-2.88-24.56-7.9-15.34-10.82-15.31-34.1-16.32-50.89a366.63,366.63,0,0,1,1.57-62.33c1-9.45,3-18.8,3.9-28.26.71-7.32.32-15.25-4-21.51-4.44-6.47-12-9.38-19.22-11.68a153.59,153.59,0,0,0-27.62-6.09,132.86,132.86,0,0,0-28.81-.94c-5.52.52-12.34,2.31-15.34,7.47A9.79,9.79,0,0,0,1007,525c5.36,3.78,12.44,3.61,18.66,3,19.82-2.09,40-6.5,60-3.4,17.09,2.65,33.16,10.81,41.43,26.59,8.07,15.4,8.56,34.11,9.09,51.11.55,17.94-.49,37.16-11.28,52.28-9.7,13.61-25.13,22.34-32,38.06-3.7,8.42-5,17.55-6.28,26.58-1.4,9.92-2.73,19.95-1.36,29.95,2,14.52,11,28.78,26.19,31.67,8.23,1.56,16.69-.08,24.67-2.15,9.12-2.37,18.17-5,27.29-7.43,18.57-4.86,37.28-9.22,56.18-12.64,38-6.86,77.32-10.05,115.67-4.15a227.62,227.62,0,0,1,55.68,15.92c8.56,3.68,17,7.52,26.26,9.19s18.73,1.71,28.11,1.9c19.62.4,39.34.64,58.87-1.71a186.62,186.62,0,0,0,27.54-5.26c7.21-2,15.57-4.18,20.71-10,12.52-14.26-12.44-23.61-21.62-28.26l-57-28.87c-15.29-7.75-31.61-15.94-42.14-30-11.56-15.41-15.21-36.53-18.13-55.13-3-19.31-4.34-39.35-2.62-58.87,1.52-17.25,6.45-35.34,19.87-47.2,7-6.14,15.56-10.08,24.3-12.94a133.72,133.72,0,0,1,27.18-6.3c9.49-1,19.86.59,25.57,9s2.07,16.51-6.23,21.2c-28.33,16-64.73,14.62-88.57,39.06-23.32,23.89-24.62,59-23.14,90.32.85,18,.19,40-17,50.65a2.52,2.52,0,0,0,1.26,4.66,309.21,309.21,0,0,1,187.66,75.77l1.77-4.27c-51.21,3.67-103,7.34-154-.33-11.71-1.76-23.37-3.94-35.17-5-12.52-1.11-25-.47-37.48.88-25.18,2.73-50.17,6.21-75.49,7.53A500.41,500.41,0,0,1,1176,784c-3.18-.38-3.16,4.63,0,5,50.53,6,101,2.32,151.25-4,12.51-1.56,25.09-2.93,37.71-2.58s25.17,2.52,37.67,4.5a468.15,468.15,0,0,0,74.51,5.56c28.86-.07,57.65-2.12,86.42-4.18,2-.14,3.52-2.73,1.76-4.27a314.65,314.65,0,0,0-191.19-77.23l1.26,4.66c13.94-8.64,19-24.88,19.64-40.49.76-18.32-2.06-36.34.68-54.64,2.39-16,7.85-32.19,18.78-44.47,11.43-12.84,27.47-19.25,43.53-24.19,15.23-4.69,31.24-8.25,45.37-15.88,5.88-3.18,11.24-7.88,12.16-14.85.81-6.1-1.84-12.18-5.88-16.66-11.43-12.69-30.45-8.68-45-5.05-15.59,3.89-31.66,9.75-42.39,22.32-10.17,11.9-14.44,27.38-16.13,42.65-2.09,18.86-1,38.27,1.57,57,2.44,18.09,5.76,37.48,14.16,53.87,7.65,14.94,20.95,25.07,35.3,33.14,17.15,9.63,35.07,18,52.62,26.91l28.07,14.22c3.49,1.77,7.94,3.43,10.57,6.46,4,4.64,1.29,9.17-3.16,12.1-7.5,4.92-17.85,6.72-26.5,8.46a217.5,217.5,0,0,1-30.21,3.7,497.59,497.59,0,0,1-58.95-.14,88.94,88.94,0,0,1-29.86-7.16c-8.6-3.65-17.1-7.38-26-10.31a240.81,240.81,0,0,0-52.61-10.79c-37.37-3.58-75.12.53-111.83,7.74-18.82,3.7-37.46,8.27-56,13.26-16.6,4.48-39.79,14.9-54.06.12s-9.73-38.15-6.77-56.16c1.49-9,3.76-17.89,9.08-25.5,4.89-7,11.46-12.62,17.49-18.59,12-11.88,19-25.35,21.15-42.17s1.16-34.51-1.12-51.18c-2.11-15.41-7.24-31-19.43-41.35-11.75-10-27.36-14.36-42.55-15.16-10-.53-20,.39-29.86,1.59-9.21,1.11-18.88,3.38-28.18,3.08-3.31-.1-8-.61-10.34-3.32-3.53-4.13,1.19-7.92,4.9-9.24,8.14-2.92,18.57-1.71,27-1a149.31,149.31,0,0,1,30.09,5.59c9.35,2.75,19.67,6.07,22.52,16.51,2.39,8.78-.25,18.47-1.55,27.21q-2.16,14.58-3.18,29.31a366.22,366.22,0,0,0,.85,60.43c1.44,14.83,3.84,31.27,16.53,40.9,13.49,10.24,33.22,10.22,49.33,11.66,20.65,1.85,41.36,2.91,62.09,3.37,42.18.93,84.38-.63,126.48-3.14,21.1-1.26,42.19-2.76,63.27-4.3,19.85-1.46,39.79-3.61,59.69-4.2,14.43-.42,31.64.82,41,13.37,1.45,1.93,4.55,1.37,4.66-1.26a1072.71,1072.71,0,0,0-10.64-202.91c-.47-3.18-5.29-1.83-4.82,1.32Z"/><path class="a" d="M1172.86,787.49l.19,26.32a2.57,2.57,0,0,0,2.5,2.5c30.72,2.79,57.88,18.65,82.63,36,27.31,19.17,53.81,39.59,80.62,59.46,1.33,1,3.28-.08,3.67-1.5q18.75-67.21,39.35-133.9c13.28-43,26.26-86.21,41.22-128.62,8.2-23.23,17.71-46,30.22-67.26,1.63-2.78-2.69-5.3-4.32-2.52-22.08,37.55-34.72,79.5-47.85,120.76-14.16,44.47-28.22,89-41.46,133.7q-11.3,38.16-22,76.51l3.67-1.49c-27.72-20.55-55.06-41.8-83.45-61.43-24.76-17.13-51.82-32-82.32-34.74l2.5,2.5-.19-26.32c0-3.22-5-3.23-5,0Z"/><path class="a" d="M1452.77,581.47c31.31-25.24,77.36-19.62,114.81-19.06l141.25,2.12,141.24,2.12,16.91.25c5.58.09,12.79-.94,17.94,1.6,7,3.45,8,12.49,7.89,19.4a47.64,47.64,0,0,1-2.5,15.05l-29.7,83.68-45.86,129.19-18.29,51.52-6.06,17.07c-1,2.94-2.72,6.16-3.28,9.23a8.53,8.53,0,0,1-.42,1.2l2.41-1.83H1382c-5.45,0-11.14-.46-16.58,0-.24,0-.5,0-.74,0a2.53,2.53,0,0,0-2.5,2.5v14.13a2.53,2.53,0,0,0,2.5,2.5l59.95-.67,142.87-1.58L1740.08,908l149.25-1.65,49.46-.55c7.72-.09,15.58.24,23.3-.26.33,0,.67,0,1,0,3.21,0,3.22-5,0-5l-60,.66-142.86,1.58-172.64,1.92-149.24,1.65-49.46.55-15.36.17c-2.4,0-5.59-.5-7.94.09a5.67,5.67,0,0,1-1,0l2.5,2.5V895.51l-2.5,2.5h407.16c5.45,0,11.13.46,16.57,0,.25,0,.5,0,.75,0a2.58,2.58,0,0,0,2.41-1.84l24.08-67.85,47-132.48,32.08-90.37c4.92-13.87,6.52-39.61-12.39-43-4.68-.83-9.61-.52-14.34-.59l-18.9-.29-36.81-.55L1740.66,560l-145.23-2.18c-22.88-.34-45.79-1.09-68.67-.89-18.6.17-37.81,1.46-55.33,8.21a82.35,82.35,0,0,0-22.19,12.78c-2.51,2,1,5.54,3.53,3.54Z"/></svg>
