<svg xmlns="http://www.w3.org/2000/svg" viewBox="0 0 4791.47 2420.01"><defs><style>.a{fill:#c5c4c3;}</style></defs><title>mapamobile</title><path class="a" d="M19.33,718.85c66.11,3.22,127.07-25.81,169.4-76,20.78-24.62,38.59-52.12,63.1-73.37,24.73-21.43,55.37-32.6,87.62-36.13,60.36-6.61,120.62,8.37,181,7.81,27.79-.26,55.85-3.85,81.65-14.64,27.58-11.52,50.39-31.08,69.59-53.67,19.79-23.28,36.1-49.21,53.38-74.33,19.69-28.62,41.58-55.14,67-78.93,51.5-48.3,112.37-85.14,173.48-119.85,66.93-38,134.52-78.36,210-96.53a429.93,429.93,0,0,1,118.39-11.47c36,1.51,79.26,4.74,108,29.09,23.81,20.14,37.2,67.05,2.58,84.07-12.25,6-30,6.91-40.42-3.32-15.44-15.12,3.61-34.31,16.65-42.21,14.54-8.8,30.9-12.56,47.19-16.68q29.89-7.54,60.07-14,59.25-12.57,119.32-20.79a1649.31,1649.31,0,0,1,243.17-15c27,.32,66,1,83.51,25.9,22.32,31.79-21.83,53.78-44.77,64-19.87,8.83-49,28.35-43.85,54.2,5.59,28,42.67,23.22,55.58,44.42,10.34,17-3.94,36.2-16.14,47.61-11.57,10.82-26,17.87-38,28.18-20.11,17.28-29.26,38.78-13.24,62.08,4.36,6.33,10.1,12.67,12.1,20.28,2.91,11.11-4.5,19.44-13.58,24.54-12.13,6.8-26.35,9.79-39,15.67-24.47,11.38-49.3,27.92-63.8,51.27-12.51,20.12-13.68,44.93,0,64.89S1767.18,624,1790,627.1a224.14,224.14,0,0,0,76.68-3.52c23.38-5.1,48.84-14.21,65.2-32.57a53.89,53.89,0,0,0,13.3-27c.5-3,2-8.59.37-11.37-2.39-4.17-11.88-7.57-16.09-9.6-27.3-13.13-58.24-15.68-88-11.75-68,9-123.22,49.45-179.17,85.87-54.42,35.43-149,94-202.4,26.65-22.68-28.64-27.21-66-22.83-101.32,4.62-37.27,19.29-72.27,24.63-109.34,3.56-24.7,3.31-52.59-12.34-73.43-13.77-18.32-36.09-25.79-57.63-30.44-22.53-4.86-47.56-6-68.3-16.89-10.38-5.44-18.36-14-21.26-25.57-3.22-12.82-1-26.68-10.37-37.33-14.85-16.9-42.46-12.24-60.91-5.13-25,9.61-51.19,29.38-63.54,53.49C1140.18,351,1181,410.11,1224.71,438.81c57.85,38,133,50.28,175.84,109.06,18.13,24.9,28.7,60.2,12,88.49-12.87,21.77-39.81,39.12-65.77,35.58-35.63-4.87-39.39-44.88-44.65-73.28a137.29,137.29,0,0,0-38.43-73.34c-39.77-39.4-99-51.83-150.23-28.28a142.83,142.83,0,0,0-61.77,54.58c-12.51,20.43-26.67,54-8.51,75.13,15.22,17.68,44.08,17,64.21,9.78,16-5.7,30.39-15,46-21.54,8-3.33,21.72-9.4,30.25-5.86,6.82,2.83,6.6,12.83,5.1,18.6-10.52,40.32-61,12.32-87.73,11.54-25.82-.75-50.63,13.3-65.85,33.71-34,45.54-5.1,109.75,49.17,121.2,27.59,5.82,54-6.11,75.36-22.94C1180.83,754.6,1203.1,733.6,1213,708c5.41-14,9.07-43-12.42-46.68-18.81-3.2-30.25,20.24-30.74,35.34-.77,24.15,18.43,40.08,41,43.86,30.68,5.13,58.45-9.36,85.31-22,30.57-14.41,61.07-21.18,94.37-12.39a142.77,142.77,0,0,1,72.35,46c41.16,49.16,36.1,119.4-1.15,169.26-20.16,27-47.91,44.85-80.13,54-32.72,9.33-68.58,12.08-98,30.47-22.26,13.92-42.44,37.2-41.59,64.91.48,16,8.56,29.86,13.74,44.6,5.52,15.72,6.94,42.27-14.07,47.18-12.77,3-25-1.53-37.26,4.91-8.3,4.37-14.95,11.71-19.29,20-9.07,17.24-8.74,38.67,4.7,53.46l3.07-4a546.54,546.54,0,0,0-224-52.19,2.57,2.57,0,0,0-2.51,2.51,230.25,230.25,0,0,0,16.63,119.65,226.39,226.39,0,0,0,30.53,51.67c10.09,12.79,23.16,30.41,40.93,31.51,19.63,1.2,35.84-15.1,49.48-27,18-15.65,36.55-32.48,59.67-40,18.49-6,41.3-4.69,57.17,7.31,21.72,16.42,18.15,45.2,6.41,66.6-24.84,45.27-76.79,74.15-127,79.93l2.45,3.22c4.85-28.44,27.87-52.49,57-56.16s57.35,13.9,69.13,40.25a2.55,2.55,0,0,0,2.85,1.16c24.08-5.9,30.93-32,39.25-52.22,6.06-14.7,13.76-30.23,29.66-36.1,17.57-6.49,40.55-3.59,58.71-.88,68.69,10.25,137.75,52.66,161.84,120.43,10,28.17,11.19,60.86,28.64,86a54.67,54.67,0,0,0,31.57,22.4c21.67,5.59,44.44.71,62.68,16.63,27.78,24.24,38.8,65.54,37.79,101.13-1,36.63-13.48,72.43-31.29,104.16-39.45,70.3-107.44,115-171,161.37-57.64,42-127.31,92-144.94,165.48-7.46,31.14-1.64,63.32,22,86,27.61,26.46,69.51,35.55,91.65,68.18,12.1,17.83,13.58,40.65-2.88,56.4-16.15,15.44-39.34,10.48-45.52-11.56-7.73-27.54,4.21-58.49-14.37-83.19-30.79-40.95-95.56-27.59-131-62.19-14.76-14.41-17.23-34.41-15.78-54.18,1.66-22.52,5.14-45,8.12-67.41q9.72-73.11,22.42-145.78c8-45.49,18.47-90.56,26.18-136.07,4.61-27.22,5.8-61.43-20.17-78.59-14.41-9.52-32.24-10.57-48.1-16.48-19.37-7.21-31.41-23.06-36.61-42.7-11-41.57,9.75-81.64,15.6-122.23,9.56-66.4-29.44-132.66-91.37-157.66-61.16-24.7-129.18-14.46-192.22-30.38-32.64-8.25-62.69-25.42-80-55.23-21.11-36.38-20.32-81.5-10.91-121.28,10.42-44.06,30.81-84.87,42.89-128.41,8.13-29.33,9.65-62.62-13.13-85.86-16.33-16.67-40.13-23.26-62.36-27.53-26.36-5.07-53.28-7-79.38-13.41-27.49-6.72-54.29-19.54-66.9-46.43-16.38-34.91-6-76.08-11.23-113.06-3.82-27.09-16.76-51.09-39.91-66.26-22.85-15-51.29-19.65-78.18-18.39A187.35,187.35,0,0,0,441.89,703c-32.74,18.12-60.83,43.93-88.87,68.37-29.14,25.41-58.93,50.3-94,67.11l3.4.89c-30.23-51.46,8.56-126.55,68.23-131.22,3.12-.24,3.15-5.14,0-4.9-63.3,5-104.77,83.74-72.52,138.62a2.54,2.54,0,0,0,3.4.89c36.59-17.53,67.44-43.81,97.79-70.3,30.08-26.27,60.78-54.89,97.59-71.45,55.83-25.11,148.16-26.93,174,41.54,13.71,36.37,3.4,76.33,10.08,113.85,5.24,29.41,23.05,51.65,50.18,63.68,25.55,11.34,54,14.26,81.39,18.26,26,3.79,55,7.42,76.9,23.18,37.44,26.93,25.48,75,12.72,112.13-14.83,43.21-34.58,85.55-40.2,131.31-4.64,37.81.33,79,24.12,110,18.9,24.62,46.74,38.83,76.41,46.13,67.6,16.62,143.56,3.09,206.48,37.51,35.06,19.17,60.38,54,69.69,92.66,5.28,22,4.56,43.84-.13,65.82-4.81,22.62-12.59,44.62-15.45,67.65-3.7,29.74,2.7,66,30,83.15,15.93,10,35.42,10.26,52.24,18,20.77,9.51,27.77,30,27.54,51.54-.23,21.73-6.08,43.13-10.37,64.3q-7.59,37.41-14.39,75-13.59,75.12-24,150.77c-3.31,23.95-6.45,47.93-9.22,71.94-2.23,19.34-4.14,40.12,5.4,57.94,12,22.4,37.38,31.88,60.35,38.71,25.45,7.56,57.2,12,76.52,31.94,24.19,25,7.94,60.53,18.73,89.95,10.21,27.84,42.55,25.79,58.3,4.11,21.51-29.6-.84-62.29-25.64-80.91-32.89-24.68-79.53-37.25-90-82.35-9.57-41,13.43-84.83,39.19-115.27,55.56-65.67,133.9-106.76,198.81-161.89,56.53-48,103.7-113.1,110-189.19,2.85-34.36-4.66-69.44-24.51-98-9.73-14-22.25-25.56-39.27-29.38-21-4.71-44-.52-61-16.48-25.39-23.87-24.94-65.54-36.65-96.32-11.82-31.1-33.25-57.49-59.65-77.48-27.88-21.11-61-35.23-95.35-41.78-28.48-5.43-70.25-12.16-90.68,13.77-16,20.32-17,58.09-41.29,71-5.47,2.9-4.88,2.39-7.74-1.75-1.93-2.8-3.44-5.76-5.51-8.49a73.54,73.54,0,0,0-19-17.49c-13.7-8.76-30.37-13-46.57-11.11-31.07,3.72-56.34,29.49-61.53,59.92-.25,1.44.66,3.43,2.46,3.22,42.4-4.87,82.38-24.34,111.55-55.69,23-24.76,46.87-70.3,14.65-98.07-29.83-25.71-71.85-11.42-99.65,9.23-19.21,14.26-37,37.87-60.06,45.65-26.76,9-48.32-24.7-60.75-43.8a226.66,226.66,0,0,1-34.55-152.14l-2.52,2.52a540.16,540.16,0,0,1,221.48,51.53,2.55,2.55,0,0,0,3.07-4c-18.48-20.32-8.12-57.63,17.37-67.16,13-4.85,27.89,1.75,40.15-5.93,8.48-5.3,12.45-15.19,13.44-24.79,1.51-14.7-4.6-27.87-10-41.15-7.16-17.57-10.26-34.91-1.67-52.65,16-33,52.14-46.7,85.53-54.62,31.47-7.46,63.73-12.81,91-31.39a157.76,157.76,0,0,0,51.82-59.78c23.46-47.08,22.07-103.9-10.52-146.34-31-40.33-84.57-64.32-135.27-54.5-33.05,6.4-60.34,28.85-93.23,35.54-29.65,6-74.09-5.81-66.16-44.47,2.55-12.4,16.1-31.45,30.32-19.9,10.7,8.7,5.72,26.84,1.42,37.4-5.57,13.72-14.51,24.58-24.7,35.14-12,12.44-24.69,24.55-39.43,33.72-30.4,18.91-66.66,18.59-93.72-6.19-25-22.89-32.24-58.64-14.33-88.1,18.77-30.85,52.68-42.59,86.86-34.17,22.34,5.5,52.24,15.39,67.19-8.63,6.93-11.13,9.61-34.29-8.41-36.71-14-1.88-31.48,7.94-43.55,13.93-14.17,7-28.21,15.43-44,18.2-14.46,2.54-32.45,1.47-43.76-9-15.12-14-9.37-36.67-2.55-53.47,11.9-29.31,35.28-53.39,63.23-67.84,58.62-30.31,130.17-9,166.6,45.16a125.77,125.77,0,0,1,18.28,42c3.46,15.11,4.55,30.77,9.16,45.62,6.53,21,21.4,38.36,44.37,40.26,45.55,3.78,82.61-41.16,76.53-84.43-9-63.72-72.78-98.33-125.42-122-57.69-26-132.22-60.17-135.65-133.68-1.71-36.76,23.76-63.09,53.45-80.77,19.84-11.81,64.34-25.56,75,5,4.48,12.85,2,26.45,9.39,38.53,4.46,7.31,11.19,12.84,18.7,16.8,19.23,10.16,42.06,12,63.07,16.11,25,4.89,52.06,12.36,65.46,36.16,15.46,27.44,8.78,62.94,1.38,91.77-15.67,61-38.52,132.73,6.4,187.45,45.26,55.15,120.23,24.81,171.35-4.47,59.68-34.18,113-81.34,180.2-100.68,32.17-9.26,67.13-12.59,99.65-3.09a122.8,122.8,0,0,1,23.33,9.5c9.15,4.9,10.43,8,7.69,18-3.64,13.35-13.29,23.75-24.49,31.39-22.77,15.55-52,21.85-79.14,23.88S1778,624.42,1753.6,611c-27.42-15.12-37.06-47.57-21.46-74.91,15.37-26.92,45.34-45.05,73.39-56.27,17.29-6.91,49.37-13.37,45.52-38.73-2-13.46-14.21-22.59-19.23-34.75-7.48-18.13,5.3-34.32,18.48-45.62,20.51-17.59,51.18-29.67,58.14-58.82,6.32-26.48-18-35.75-37.37-44.69-16.92-7.82-27.12-22.59-16.74-40.58,8.52-14.78,23.65-23.55,38.75-30.25,19.88-8.83,46.38-20.27,50.53-44.47,3.74-21.81-13-37-31.55-44.54-27.69-11.31-58.69-9.41-88-9.29a1658.58,1658.58,0,0,0-233.26,17.53q-58.85,8.61-117,21.45-29,6.4-57.83,13.83c-13.67,3.53-27,7.63-39,15.22-14.83,9.34-33.52,31.34-17.19,48.06,14,14.35,38.51,12.17,53.7.95,19.16-14.16,20.43-40.74,11.5-61.18-11.59-26.49-37.33-41.15-64.27-48.26-67.49-17.81-144.8-10.56-210.91,9.48-70,21.21-133.83,60-196.88,96.05-58.59,33.55-116.62,69.62-165.91,116.18a470.64,470.64,0,0,0-62.46,73c-18.2,26.06-34.92,53.29-55.42,77.67s-44.92,45.11-75,56.29c-28.25,10.5-58.77,12.57-88.65,11.75-58.52-1.6-117.65-15-176.11-6-26.83,4.16-52.46,14-74,30.79-25.09,19.62-43.17,46.26-62.95,70.84-20.25,25.16-43.18,46.85-72.17,61.66A201.19,201.19,0,0,1,19.33,715c-2.48-.12-2.47,3.72,0,3.84Z"/><path class="a" d="M4453.21,479.35c-50.58-19.71-104.61-33.25-158.92-36.64-37.53-2.35-81.85,3.52-101.35,40.15-11.24,21.11-14.39,45.21-30.48,63.79-14.3,16.51-34.24,27.66-55.44,32.52-21.44,4.91-44.74,3.31-64.64-6.43-5-2.44-10.42-5.35-14.26-9.45-9.33-9.94-5.09-21.38,5.42-27.79,12.68-7.74,30-9.54,44.46-10.76a182.58,182.58,0,0,1,40.6,1.17c4.33.6,17.8.71,20.59,5.27,3.32,5.41-7.24,15.39-11.11,18.13-19.43,13.76-47.11,12.86-69.73,14.84-57,5-114.85,8.34-171.73.22-95.08-13.58-194.74-69.5-220.64-168.65a158.12,158.12,0,0,1-5.19-38.29c-.06-6.43-2-13.65,5.19-14.56,6.41-.8,15.11,3.09,20.34,6.15,24.41,14.3,34.14,45.59,24.62,71.6-23.59,64.45-104.69,64.58-161,61.95l1.81,3.15c10.71-20.43-.51-42.9-18-55.45-26.77-19.17-62.16-9.13-91.5-2.85-30.54,6.54-81.48,11.35-93.14-27.34-8-26.43,9.69-58.3,37.54-62.21,2.42-.34,1.66-4-.55-4.08-70.11-3.67-89.64-85.41-117.65-135.39a179.08,179.08,0,0,0-122.21-88.12c-22.21-4.27-50-6.36-71.58,1.86-19.33,7.36-22.31,26-12.69,42.66,14.11,24.47,42,37.29,65.05,51.47l92.62,56.88c25.69,15.77,67.73,40.42,42.62,75.68-21.61,30.33-60.19,27.37-92.55,22.15-29.61-4.77-57.78-7.23-87.36-.59-29.07,6.54-56.43,19.31-82.41,33.62-56.39,31.06-108.53,71.43-172.38,86.34-31.72,7.4-65.47,7.54-95.72-5.68-14.77-6.46-29-16.24-36.34-31.1-8.43-17.12-5.31-36.78,2.34-53.56,13.27-29.1,39.06-52.32,64.93-70.27,25.25-17.52,54.4-31.87,84.51-38.67,11.43-2.58,27-1.79,27.25,13.46.13,7-2.8,14.1-6.62,19.87-7.15,10.8-18.1,19.69-28.58,27-17.72,12.39-37.34,21.69-56.34,31.87-33.42,17.91-66.14,39.91-67.89,81.33-.75,17.8,1,35.56-17.17,45.77-15.36,8.64-36.41,10.32-53.63,10.9-35.25,1.17-69.73-7.39-100.76-24-25.38-13.59-49.39-31.17-77.91-37.68-26.63-6.08-53.76-1.37-78.9,8.41-28.12,10.93-53.73,27.3-79.41,42.91-26.31,16-54.08,29.74-79.62,47-40.26,27.18-78.21,73.27-64.7,125.36,12.25,47.26,61.37,57.82,103.59,50.42,25.31-4.44,49.68-13.46,73.29-23.41,31.95-13.47,63.85-26.48,96.92-37a906,906,0,0,1,201.59-39.8c8.49-.68,24.53-5.79,25.38,6.62.49,7.16-4.61,13.72-9.45,18.37-11.67,11.19-26.63,16-41.89,19.94l-107.61,27.85L2289.52,752,2186.8,778.56a2.15,2.15,0,0,0-1.56,2c.69,17,14.39,29.77,31.44,29l-2-2.67c-12.86,43.08-73.69,13.17-90.54-10.31-19.47-27.14-33.15-65-65.91-79.24-30-13-60.16,4.53-74.9,31.44-16.27,29.69-11.76,63.4,10.72,88.48,24.61,27.48,63.77,39.39,99.78,39,10.14-.11,21.3-1.8,31.05,1.79,18.88,7,15,25.29,3,36.38-16.68,15.38-38.68,18.55-59.32,25.54-31.82,10.78-66.2,28.69-79.58,61.52-12.89,31.67.27,69.79,29.11,87.87,32.63,20.46,79.38,7.32,98.29-25.78,13.21-23.12,10.66-54.25,29.73-74.07,4.77-5,10.88-9.42,17.5-11.56,6.38-2.05,22.66-4.21,19,6.39-4.42,12.77-18.51,22.62-30.27,27.74a2,2,0,0,0-1,1.76c.08,11.35,9.47,17.54,20.09,18.43,16,1.34,26.09-9.68,34.69-21.7,13.56-18.93,26.54-34,51.9-32,19.6,1.58,39.89,13.68,45.79,33.3,6.95,23.09-7.61,47.28-27.88,58.07-6.32,3.36-26.5,10.94-29.89,1.78-2.62-7.06,5.37-24.24,8.48-30.5,17.19-34.63,54.41-54.92,89.31-67.64,44.68-16.3,92.75-21.88,139.64-28,54.67-7.12,110.3-13.62,165.46-14.94,20.56-.49,48.31,1.28,60,21.27,15,25.84-10.32,51.46-30.3,64.85-21.3,14.27-47,23.31-71.11,31.54a529.59,529.59,0,0,1-165.21,28.38c-15,.15-30.76.61-45.61-1.5-8.08-1.15-9.54-3.82-7.54-12.41a30.21,30.21,0,0,1,7.72-13.71c17.17-18.06,48.57-18.55,59.37,6.46,9.73,22.55-1.66,50.35-22.47,62a2.22,2.22,0,0,0,0,3.79c29,19.31,64.39,44.44,59.79,84.11-5.25,45.34-54.78,38.91-86.49,28-55.92-19.22-102.22-58.36-150.62-91-43.09-29-92-56.21-145.75-51.6-33,2.83-62.88,17.48-89.77,36-28.69,19.82-56.66,42.67-80.7,67.93-44.12,46.35-65.74,108.69-57,172.48,8,58.17,41.8,109.08,93.61,137.15,49.56,26.84,110,31.52,161.81,8.36,31.38-14,74.56-40.32,102.81-6,19.46,23.64,19,59,16.26,87.8-12.41,132.23-69.51,289.12,22.26,406.83,34.06,43.69,101.82,83.4,148.79,34.58,44.49-46.25,55.2-118.94,66.74-179.21,6.34-33.11,12.82-66.43,24.3-98.22,9.85-27.27,29.9-80.75,65.65-79.2,29.83,1.29,45.72,40.34,52.35,64.38,4.38,15.88,9.15,36.3,3.71,52.34-6.88,20.26-28.43,21.37-45.5,14.9-29.18-11.07-48-39.37-60.5-66.66-12.79-28-19-58.77-19.08-89.47-.13-60.1,23.53-120.28,69.2-160.2,40.85-35.71,97.47-59,126.16-107.06,16.27-27.25,13.09-54.78,13.11-85.26,0-21,5.74-39.59,22-53.56a103.3,103.3,0,0,1,41.94-21.37c54.06-13.56,115.65,14.25,144.66,61.06,18,29,18.49,61.12,14.36,94.08-4.24,33.88-12.89,70.23-1,103.55,3.51,9.84,16.28,12.34,25.86,13.2a54.75,54.75,0,0,0,36.86-10.2,2.51,2.51,0,0,0,.87-3.34c-47.42-90.29-13.9-203.26,75.49-252.31a187.06,187.06,0,0,1,30.29-13.27c6.51-2.19,27.83-11.3,33.73-5.66,2.24,2.14,1.25,16.42,1.52,19.91l1.51,19.9c1.08,14.11,2.13,28.21,3.23,42.31,4.2,54,7.31,108.27,13.09,162.15,8.86,82.5,35.22,173.75,120.66,205.91,37,13.94,75.64,10,107.86-13.26,19.48-14.06,36.56-30.79,57.65-42.64,21.51-12.09,45-20.25,68.95-26,56.25-13.47,115.73-15.4,173.33-16.26a1464.45,1464.45,0,0,1,192.33,10l-2.18-3.8c-51.15,95.07-171.41,143.22-274,109.76l1.48,3.64c18.24-29.47,59.57,5.43,75.44,19.88,23.68,21.56,47.14,43.63,67.08,68.79,39.73,50.13,68.1,124.83,33.28,185.29-13.79,23.94-38.21,41.91-65,48.47-30.85,7.56-58.06-2.91-80.4-24.52-18.63-18-34.07-39.41-57.52-51.65-18.36-9.58-39.23-13.83-59.87-13.34-47.74,1.13-95.06,27.11-115.36,71.35-1.32,2.86,2.93,5.36,4.25,2.48,22.91-50,81.53-76.11,134.74-67.32,29.27,4.83,51.17,20.56,71.09,41.77s39.85,43.59,70.3,47.91c50.9,7.22,99-30.76,112.76-78.34,18.36-63.47-12.47-128.15-53.1-175.65-13.28-15.51-27.79-29.91-42.67-43.87-11.74-11-23.36-23-36.65-32.2-17.79-12.3-48.23-24.85-62.66-1.55a2.5,2.5,0,0,0,1.48,3.64c104.66,34.16,227.54-15.06,279.73-112a2.58,2.58,0,0,0-2.19-3.81,1457.93,1457.93,0,0,0-244.86-8.26c-66.36,3.4-137.27,8.91-195.86,43.32-30.16,17.71-53.45,47.9-87.86,57.76-30,8.59-62.25,1.46-89-13.39-64.53-35.76-87.24-108.15-96.11-177-5.33-41.43-7.56-83.33-10.81-125q-5.43-69.69-11-139.36c-.09-1.2-1.07-2.68-2.48-2.49-67,8.89-127.56,53-153.75,115.81-14.65,35.14-18.25,74.54-11.06,111.87a191.15,191.15,0,0,0,7,26.19c2,5.77,10.79,19.25,10,24.83-1,7.1-22.82,9-27.92,8.87A49.49,49.49,0,0,1,2961,1492c-7.8-2.78-10-7.78-11.92-15.24-10.73-42.56,6.64-86.26,6-129.14a120.12,120.12,0,0,0-28.64-76.61c-35.23-41.85-98-64-150.52-44.33-30.27,11.34-53.4,34-55.51,67.36-1.3,20.51,3,41-1,61.44-3.22,16.61-11.45,31.75-22.16,44.71-41.08,49.73-106.7,71.33-144.94,124.34-36.53,50.66-48.5,117.68-35.39,178.38,6.4,29.65,19,58,37.69,82,15.26,19.61,43.95,41.12,70.56,33.19,30.88-9.22,23.63-50.3,17.4-73.79-6.42-24.2-19.06-54.9-43.49-66-27.45-12.42-49,11.09-62,32.63-19.12,31.73-29.77,67.63-37.74,103.57-8.37,37.74-13.92,76.09-23.69,113.53-9.71,37.16-23.8,78.54-51.63,106.27-35.61,35.48-85.51,17.13-118.49-12.14-28-24.88-46.83-58.49-58-94-26.07-82.65-10.22-168.66,3.52-252,6.33-38.38,15-79,12-118-2-25.53-10.15-55.2-34.94-67.55-34.07-17-69.4,9.85-100.16,21.93-33.76,13.27-71.71,14-106.6,4.88-75.35-19.75-128.69-83.68-135.07-161.27-3.11-37.9,4.24-76.76,21.94-110.49,20-38,53-66.61,86-93.13,33.49-27,70.8-52.66,114.76-57.07,32.57-3.27,64.56,5.8,93.56,20.11,59,29.12,107.42,75.47,165.73,105.81,26.29,13.68,59.19,28.41,89.53,24.89,29.57-3.44,44.28-30,39.51-58.06-5.63-33-35.58-53.38-61.43-70.62v3.79c28.17-15.81,41.86-65.52,9.68-85.15-26.39-16.09-68.94,9.24-60.24,41a2.31,2.31,0,0,0,2.16,1.64,536.43,536.43,0,0,0,216.77-24.82c29.56-9.81,62.07-20.92,86.49-40.78,17.58-14.3,34.52-37.34,23.41-60.72-10.31-21.68-36.89-26.1-58.43-26.39-37.46-.52-75.71,4.36-112.93,8.23q-57.29,5.94-114.2,15c-28.64,4.52-57,9.89-84.34,19.7-48.88,17.53-99.91,50.35-102.67,107.41a2.07,2.07,0,0,0,1.5,2c28.72,5.94,57.85-14.44,65-42.52,6.76-26.54-10.58-50.4-35.53-58.53-12.48-4.07-26.49-4.35-38.8.5-13.31,5.25-21.17,16.21-29.12,27.56-6.48,9.26-13.65,20.13-25.59,22.4-7,1.33-29.4-2.53-21.42-13.69,2-2.75,9.18-5.31,12.08-7.65a62.28,62.28,0,0,0,8.09-7.82,66.34,66.34,0,0,0,11.32-19.36,2.07,2.07,0,0,0-.94-2.31c-12.46-7.8-26.56-4.85-38,3.51-14.58,10.62-20.25,26.9-24.7,43.7-6.23,23.53-12.48,45.91-34.25,59.69-17.82,11.28-41,14.84-60.86,7.1-44.41-17.27-54.48-75-24.24-109.31,13.37-15.15,31.7-25.38,50.22-32.9,16.35-6.65,34-9.51,50.2-16.41,12.86-5.49,28-14.51,34-27.89,5-11.3-.11-23.44-11.05-28.93-14.8-7.42-33.95-2.58-49.82-3.86-20.74-1.67-41.45-7.62-59.37-18.3-36.36-21.67-54.87-63.59-33.48-102.59,8.7-15.85,23.38-29.84,41.64-33.29,20.58-3.88,39.48,7.46,52.7,22.34,25,28.08,35.1,68.51,71.41,85.11,23,10.53,57.37,12.37,66.15-17a2.12,2.12,0,0,0-2-2.66c-9.24.43-26.9-6.5-26.49-18.51.28-8.49,18.32-9.52,24.64-11.15l56.25-14.56L2383.58,732l225-58.23c20.35-5.27,49.57-12.82,57.89-35.37,1.9-5.15,2.6-16.95-3.47-20.29-3.51-1.93-11.42.15-15.34.42q-14,1-28.05,2.42a911.84,911.84,0,0,0-206.31,45.6c-56.16,19.5-113.67,55.76-174.77,55.41-30.3-.18-59.52-14.58-69.91-44.75-10.62-30.82,1.46-66.53,21.43-90.81,21.09-25.64,50.85-42.39,79.36-58.41s55.88-33.92,84.56-49.55c29.48-16.08,62.37-29.91,96.69-26.73,35.35,3.27,63.76,25.64,94.28,41.39a202.15,202.15,0,0,0,90.38,22.68c23,.26,59.41-.77,75.55-20.27,8.21-9.92,8.23-22.87,8.41-35.08.19-13.32,1.83-25.71,8.59-37.4,11.25-19.48,31.53-31.88,50.69-42.47,20.17-11.16,41.27-20.8,60.41-33.76,15.9-10.76,35-25.64,39-45.58,11.89-59.25-101.23,3.52-117.5,14.8-37.55,26-97.16,82.18-67,133.12,13.76,23.28,42.95,34.78,68.4,38.87,29.31,4.72,59.3-.1,87.29-9.21,62.4-20.33,113.71-62.12,171.89-91,30.78-15.3,64.05-27.13,98.77-27.72,33.42-.56,66.48,12.79,99.94,8,21.74-3.09,45.27-17.56,52.27-39.42,7.68-24-9.73-42.75-28.18-55.23-30.32-20.53-62.58-38.65-93.79-57.81l-48.42-29.72c-14-8.59-27.91-18.57-36.2-33.18-25-44.07,46.51-43.53,72.34-39.7a178.55,178.55,0,0,1,80.52,33.66c26.84,20.14,44.16,47,58.23,77.07,12.95,27.62,24.19,56.6,44.66,79.75C3338.14,322.64,3360,336.58,3386,338l-.55-4.08c-22.49,3.16-38.23,22.79-41.69,44.55-3.67,23.13,8,43.4,29.67,52.35,29.91,12.38,62.38,1.6,92.37-4.17,20.61-4,44.35-6.47,63,5.38,16.93,10.79,29.55,32.14,19.32,51.63a2.12,2.12,0,0,0,1.8,3.14c55.87,2.62,125.88,2.76,158.75-51.76,12-20,13.89-43.86,2.95-64.72-10.23-19.49-29.76-33.27-52.24-31.32a2.2,2.2,0,0,0-2.12,2.12c-6.71,79.82,46.34,150.19,112.43,189.24C3853,579.55,3955.81,577,4049,569.16c25.76-2.17,95.84.26,94.3-40.87a2.18,2.18,0,0,0-1.55-2,193.32,193.32,0,0,0-73.38-4.72c-15.72,2.09-41.14,5.32-48.69,22.22-6.81,15.25,8.53,26.79,20.53,32.69a99.18,99.18,0,0,0,51.31,9.39c34.42-2.71,68.53-21.68,85.23-52.54,11.42-21.08,13.59-47.16,31.49-64.48,17.47-16.9,42.67-21.87,66.15-22.56,59.8-1.78,122.53,15.21,177.83,36.67,2.22.86,3.18-2.71,1-3.57Z"/><path class="a" d="M3416.48,1992.16c-54.93,21.12-122.6-19-133.55-76.22-12.73-66.54,49.52-117.44,100.3-146.77,33.08-19.1,68.32-34.93,103.44-49.87q29.45-12.54,59.48-23.66c15.87-5.88,32-11.21,47.34-18.45,28.48-13.45,51.89-35.32,55.57-68.08,3.87-34.45-12.06-68.69-28.24-98.09-19.21-34.9-39.27-69.74-60.16-103.67-15.81-25.69-35.72-51.85-65.67-61.38-27.58-8.77-57.45,0-80.16,16.7-25.57,18.83-41.77,46.19-48.19,77.1-7.55,36.35-2.83,74,5.12,109.88,3.79,17.07,9.91,34.42,9.32,52.11-.59,18-11.72,33.36-30.77,33.3-40.84-.11-50.64-45.46-53-77.61-3-42.06-6-84.27-7.77-126.41-1.65-38.35-.22-79.19,19.92-113.07,8.5-14.3,20-27.18,34.1-36.1,15-9.44,30.87-12.44,48.32-12.53,15.33-.08,32.09.71,45.32-8.42,10-6.92,15.46-18,17-29.94,4.1-32.66-16.7-58.62-29.65-86.52-7.17-15.46-12.27-33.81-5.72-50.37,4.81-12.16,14.95-21.57,26.49-27.34,11.81-5.92,25.88-8.3,38.84-5.2,13.82,3.31,24.11,13,31.15,25,13.56,23.19,15.53,51,26.23,75.41,10.82,24.68,32.51,41.17,60.39,37.77,69.31-8.44,79-97.18,62-150.62a126,126,0,0,0-21.45-40.9c-10.55-13.13-24-22.22-38.56-30.38-16.15-9.05-32.51-17.74-43.76-33s-18.07-33.4-24.74-50.76c-7.17-18.64-13.69-39.2-10.48-59.39,2.61-16.41,12.1-30.41,25.74-39.69,25.24-17.18,58.16-19.79,87.73-21.67,37.43-2.39,79.13-3.46,109.8,21.77a71.72,71.72,0,0,1,16.21,18.52c4.46,7.48,6,15.47,8.82,23.56,4.26,12.14,14.32,18.5,27.16,16.72,33.17-4.58,36.46-45.8,52-68.57,16.8-24.55,43.56-39.74,71.21-49.09,28.85-9.76,59.3-14.09,89.51-16.89,39.5-3.66,79.57-7,119.22-4,41.7,3.2,80,17.29,119.13,31a473.18,473.18,0,0,0,118.42,25.34c84.74,7.08,170.65,6.87,255.6,4.52q62.82-1.74,125.55-6.2c3.38-.24,3.4-5.54,0-5.3q-131.25,9.32-262.95,7c-43.12-.81-86.52-1.72-129.46-6A421.68,421.68,0,0,1,4295.39,755c-20.11-5.17-39.64-12.28-59.18-19.24-38.1-13.58-75.76-24.3-116.41-26-38.82-1.65-78.14,1.64-116.73,5.75-54.7,5.81-119.7,17.88-153.81,65.88-9.6,13.5-13.88,29.08-21.15,43.75-7,14.06-24.8,32.1-42.11,21.78-8.26-4.92-8.9-15.41-11.77-23.64a67.24,67.24,0,0,0-10.34-19c-9.44-12.24-22.58-21.3-36.75-27.23-33.21-13.9-72-10.51-107-7.13-27.07,2.61-56.82,7.74-78.27,25.79-27.29,23-25.31,58.73-14.74,89.72,6,17.52,13.07,35.59,22.29,51.68,8.32,14.52,19.58,25.63,33.76,34.42,14.95,9.28,31.42,16.3,44.65,28.16s23.08,27.62,29.3,44.4c12,32.21,13.83,71.39,1.09,103.65-12.52,31.7-48.42,58.71-83.34,43.88-27.36-11.62-33.92-44.06-41.07-69.71-6.52-23.37-15.45-51-39.42-61.87-21.11-9.56-47.05-3.44-64.33,11.11-22.88,19.25-22,47.9-10.6,73.48,13.05,29.29,39.54,60.41,28.09,94.77-6.16,18.47-23.56,24.44-41.51,25.08-16.1.57-31.92-.67-47.39,4.8-28.51,10.09-49.78,35-61.29,62.29-15.13,35.86-14,76.21-11.78,114.29,1.26,21.65,2.7,43.29,4.06,64.94,1.27,20.29,1.85,40.77,4.27,61,3.52,29.31,15.77,61.32,48.32,67.28,11.79,2.15,24.39-.3,33-9.09,10.39-10.64,11.69-26.16,10-40.22-2-17.47-7.63-34.43-11.06-51.65-3.89-19.52-6.55-39.35-6.56-59.27,0-37.06,9.87-74.2,36.74-100.88,22.48-22.31,55.74-37,87.43-27.88,34.2,9.79,54.71,42.38,71.61,71.28,20.77,35.52,43.17,70.76,61.39,107.68,16.1,32.61,30.35,74.19,10.14,108.27-18.21,30.72-55.92,41.45-87.32,53.08q-58.18,21.56-114.29,48.32c-55.83,26.6-122.36,60-147.57,120.63-10.58,25.44-11.58,54,.16,79.23,11.3,24.27,32.54,43.73,57,54.39,23.65,10.33,50.39,12.35,74.63,2.83,2.2-.87,1.26-4.46-1-3.6Z"/></svg>
