
<svg xmlns="http://www.w3.org/2000/svg" data-name="Camada 1" width="11994.38" height="2727.17" style=""><rect id="backgroundrect" width="100%" height="100%" x="0" y="0" fill="none" stroke="none"/><defs><style>.cls-1{fill:#c5c4c3;}</style></defs><title>desenhos</title><g class="currentLayer" style=""><title>Layer 1</title><path class="cls-1" d="M3656.43,975.56c66.11,3.22,127.07-25.81,169.4-76,20.78-24.62,38.59-52.12,63.11-73.37,24.72-21.44,55.36-32.6,87.62-36.13,60.36-6.61,120.62,8.37,181,7.81,27.8-.26,55.85-3.85,81.66-14.64,27.57-11.53,50.38-31.08,69.59-53.67,19.79-23.28,36.09-49.21,53.38-74.33,19.68-28.62,41.58-55.14,66.94-78.93,51.5-48.3,112.37-85.14,173.48-119.85,66.93-38,134.52-78.36,210.05-96.53A430,430,0,0,1,4931,348.48c36,1.51,79.26,4.74,108,29.09,23.8,20.14,37.2,67.05,2.57,84.07-12.24,6-30,6.91-40.42-3.32-15.44-15.13,3.62-34.31,16.66-42.21,14.53-8.8,30.89-12.56,47.18-16.68q29.91-7.55,60.07-14,59.25-12.57,119.32-20.79a1650.83,1650.83,0,0,1,243.18-15c27,.33,66,1,83.5,25.91,22.33,31.79-21.83,53.78-44.77,64-19.86,8.83-49,28.35-43.85,54.2,5.6,28,42.68,23.22,55.58,44.42,10.34,17-3.93,36.2-16.13,47.61-11.57,10.82-26,17.86-38,28.18-20.12,17.28-29.27,38.78-13.25,62.08,4.36,6.33,10.11,12.67,12.1,20.28,2.91,11.11-4.49,19.44-13.58,24.54-12.12,6.8-26.35,9.79-39,15.67-24.48,11.38-49.3,27.92-63.81,51.27-12.5,20.12-13.68,44.93,0,64.88s37.91,28.08,60.73,31.15a224.13,224.13,0,0,0,76.68-3.52c23.38-5.1,48.85-14.22,65.21-32.57a53.89,53.89,0,0,0,13.3-27c.49-3,2-8.59.37-11.37-2.39-4.17-11.88-7.58-16.09-9.6-27.3-13.13-58.25-15.68-88-11.75-68,9-123.23,49.45-179.18,85.87-54.42,35.43-149,94-202.4,26.65-22.68-28.64-27.2-66-22.83-101.32,4.62-37.27,19.29-72.27,24.64-109.34,3.56-24.7,3.3-52.59-12.35-73.43-13.76-18.32-36.09-25.79-57.63-30.44-22.53-4.86-47.56-6-68.29-16.89-10.38-5.44-18.36-14-21.26-25.57-3.23-12.82-1-26.68-10.37-37.33-14.86-16.9-42.46-12.25-60.92-5.13-24.94,9.61-51.19,29.38-63.53,53.49-27.19,53.07,13.63,112.23,57.34,140.93,57.85,38,133,50.28,175.84,109.06,18.13,24.9,28.7,60.2,12,88.49-12.86,21.77-39.81,39.12-65.77,35.58-35.63-4.87-39.39-44.88-44.65-73.29A137.23,137.23,0,0,0,4900.78,782c-39.77-39.4-99-51.83-150.23-28.28a142.83,142.83,0,0,0-61.77,54.58c-12.51,20.43-26.67,54-8.5,75.13,15.21,17.68,44.08,17,64.2,9.78,16-5.71,30.39-15,46-21.54,8-3.33,21.72-9.4,30.26-5.86,6.82,2.83,6.6,12.83,5.09,18.6-10.52,40.32-61,12.32-87.73,11.54-25.82-.76-50.63,13.29-65.84,33.71-34,45.53-5.1,109.75,49.16,121.2,27.6,5.81,54-6.12,75.37-22.94,21.1-16.64,43.37-37.64,53.23-63.25,5.4-14,9.07-43-12.43-46.69-18.81-3.19-30.25,20.25-30.73,35.35-.77,24.15,18.42,40.08,41,43.86,30.68,5.13,58.46-9.36,85.32-22,30.57-14.41,61.07-21.18,94.36-12.4a142.84,142.84,0,0,1,72.36,46c41.16,49.16,36.1,119.4-1.16,169.26-20.16,27-47.91,44.85-80.13,54-32.71,9.34-68.57,12.09-98,30.48-22.27,13.92-42.45,37.2-41.6,64.91.49,16,8.56,29.86,13.74,44.6,5.53,15.72,6.95,42.26-14.07,47.18-12.76,3-25-1.53-37.25,4.9-8.31,4.38-15,11.72-19.3,20-9.06,17.24-8.74,38.67,4.71,53.46l3.06-4a546.5,546.5,0,0,0-224-52.2,2.6,2.6,0,0,0-2.52,2.52A230.25,230.25,0,0,0,4620,1563.62a226.79,226.79,0,0,0,30.54,51.67c10.09,12.79,23.16,30.41,40.93,31.51,19.63,1.2,35.83-15.1,49.48-27,18-15.64,36.55-32.47,59.66-40,18.49-6,41.3-4.68,57.18,7.32,21.72,16.42,18.15,45.2,6.41,66.6-24.85,45.27-76.79,74.15-127,79.93l2.46,3.22c4.84-28.44,27.86-52.49,57-56.16s57.34,13.9,69.12,40.24a2.55,2.55,0,0,0,2.85,1.17c24.09-5.9,30.94-32,39.26-52.22,6-14.7,13.76-30.23,29.65-36.1,17.57-6.49,40.56-3.59,58.72-.88,68.68,10.25,137.75,52.66,161.83,120.43,10,28.17,11.19,60.86,28.64,86a54.69,54.69,0,0,0,31.58,22.4c21.67,5.59,44.43.71,62.67,16.62,27.79,24.25,38.8,65.55,37.8,101.14-1,36.63-13.48,72.43-31.29,104.16-39.46,70.3-107.45,115-171,161.37-57.63,42-127.3,92-144.93,165.48-7.47,31.14-1.64,63.32,22,86,27.62,26.45,69.52,35.55,91.65,68.17,12.1,17.84,13.58,40.66-2.88,56.4-16.14,15.45-39.33,10.49-45.52-11.55-7.73-27.54,4.22-58.49-14.36-83.19-30.8-41-95.57-27.59-131-62.19-14.77-14.41-17.24-34.42-15.78-54.18,1.65-22.52,5.14-45,8.11-67.41q9.72-73.11,22.43-145.78c7.94-45.49,18.47-90.57,26.17-136.07,4.61-27.23,5.81-61.43-20.16-78.59-14.41-9.52-32.25-10.58-48.11-16.48-19.37-7.21-31.4-23.06-36.61-42.7-11-41.57,9.76-81.64,15.6-122.23,9.56-66.4-29.44-132.66-91.37-157.66-61.16-24.7-129.17-14.46-192.22-30.38-32.64-8.25-62.69-25.42-80-55.23-21.12-36.38-20.32-81.5-10.92-121.28,10.43-44.06,30.82-84.87,42.89-128.41,8.13-29.33,9.65-62.62-13.12-85.86-16.34-16.67-40.13-23.26-62.37-27.54-26.35-5.07-53.27-7-79.38-13.4-27.48-6.72-54.28-19.54-66.9-46.43-16.38-34.91-6-76.08-11.23-113.06-3.82-27.09-16.76-51.09-39.91-66.26-22.84-15-51.29-19.65-78.18-18.39A187.27,187.27,0,0,0,4079,959.72c-32.74,18.12-60.83,43.93-88.87,68.37-29.15,25.41-58.93,50.3-94,67.11l3.39.89c-30.23-51.46,8.56-126.55,68.23-131.22,3.12-.24,3.15-5.14,0-4.9-63.3,4.95-104.77,83.74-72.51,138.62a2.53,2.53,0,0,0,3.39.89c36.59-17.53,67.45-43.81,97.79-70.3,30.08-26.27,60.78-54.89,97.6-71.45,55.82-25.11,148.16-26.93,173.95,41.54,13.7,36.37,3.4,76.33,10.08,113.85,5.23,29.41,23,51.64,50.17,63.68,25.55,11.34,54,14.26,81.39,18.26,26,3.79,55,7.42,76.9,23.18,37.44,26.93,25.48,75,12.72,112.13-14.83,43.21-34.58,85.55-40.2,131.31-4.64,37.8.33,79,24.12,110,18.91,24.62,46.75,38.83,76.42,46.12,67.59,16.63,143.55,3.1,206.48,37.51,35.06,19.18,60.37,54,69.68,92.67,5.28,22,4.56,43.84-.12,65.82-4.82,22.62-12.6,44.62-15.46,67.64-3.69,29.75,2.7,66,30,83.16,15.92,10,35.41,10.26,52.24,18,20.77,9.51,27.77,30,27.54,51.54-.23,21.73-6.09,43.13-10.38,64.3q-7.57,37.41-14.38,75-13.6,75.12-24.05,150.77c-3.31,23.95-6.44,47.92-9.22,71.94-2.23,19.34-4.14,40.12,5.41,57.94,12,22.4,37.37,31.88,60.34,38.7,25.45,7.57,57.21,12,76.52,31.95,24.2,25,7.95,60.53,18.74,90,10.21,27.84,42.54,25.79,58.3,4.11,21.5-29.6-.85-62.3-25.64-80.91-32.89-24.68-79.54-37.25-90.06-82.35-9.56-41,13.43-84.83,39.19-115.28,55.57-65.66,133.9-106.75,198.81-161.88,56.54-48,103.71-113.1,110-189.19,2.85-34.36-4.66-69.44-24.5-98-9.74-14-22.26-25.56-39.27-29.39-21-4.71-44-.51-61-16.47-25.4-23.87-24.95-65.55-36.65-96.32-11.83-31.1-33.26-57.49-59.65-77.48-27.88-21.11-61.06-35.23-95.36-41.78-28.48-5.43-70.25-12.16-90.67,13.77-16,20.32-17,58.09-41.3,71-5.47,2.9-4.88,2.39-7.74-1.76-1.92-2.79-3.44-5.75-5.5-8.48a73.7,73.7,0,0,0-19-17.49c-13.7-8.76-30.37-13-46.58-11.11-31.07,3.72-56.34,29.49-61.53,59.92-.24,1.44.66,3.43,2.46,3.22,42.4-4.87,82.39-24.34,111.56-55.69,23-24.76,46.87-70.31,14.65-98.07-29.83-25.71-71.86-11.42-99.66,9.23-19.2,14.26-37,37.87-60.05,45.65-26.76,9-48.33-24.7-60.76-43.81A226.65,226.65,0,0,1,4608.39,1444l-2.51,2.52A540.34,540.34,0,0,1,4827.36,1498a2.54,2.54,0,0,0,3.06-4c-18.47-20.32-8.12-57.63,17.38-67.16,13-4.85,27.88,1.75,40.15-5.93,8.47-5.3,12.45-15.19,13.43-24.79,1.52-14.7-4.59-27.87-10-41.16-7.16-17.56-10.25-34.9-1.67-52.64,16-33,52.14-46.7,85.54-54.62,31.47-7.46,63.73-12.81,91-31.39a157.68,157.68,0,0,0,51.82-59.78c23.47-47.08,22.08-103.9-10.52-146.34-31-40.33-84.57-64.32-135.26-54.5-33.05,6.4-60.34,28.85-93.24,35.54-29.65,6-74.09-5.81-66.15-44.47,2.54-12.4,16.09-31.45,30.31-19.9,10.71,8.69,5.72,26.83,1.43,37.4-5.58,13.72-14.52,24.58-24.71,35.14-12,12.44-24.69,24.55-39.43,33.72-30.39,18.91-66.66,18.59-93.72-6.19-25-22.89-32.24-58.64-14.32-88.1,18.76-30.85,52.67-42.59,86.86-34.17,22.33,5.49,52.23,15.39,67.19-8.63,6.92-11.13,9.61-34.29-8.41-36.71-14-1.88-31.49,7.94-43.55,13.93-14.18,7-28.22,15.42-44,18.2-14.46,2.54-32.45,1.47-43.76-9-15.11-14-9.37-36.67-2.55-53.47,11.9-29.31,35.29-53.39,63.23-67.84,58.62-30.32,130.17-9,166.6,45.16a125.57,125.57,0,0,1,18.28,42c3.46,15.11,4.56,30.76,9.17,45.62,6.52,21,21.4,38.36,44.36,40.26,45.56,3.78,82.62-41.16,76.54-84.43-9-63.72-72.79-98.33-125.42-122-57.7-25.95-132.23-60.17-135.65-133.68-1.71-36.76,23.76-63.09,53.45-80.77,19.84-11.82,64.33-25.57,75,5,4.49,12.85,2,26.45,9.39,38.53,4.47,7.31,11.2,12.84,18.71,16.8,19.23,10.15,42.06,12,63.07,16.11,25,4.89,52.05,12.36,65.46,36.16,15.45,27.44,8.78,62.94,1.37,91.77-15.66,61-38.51,132.72,6.4,187.45,45.26,55.15,120.23,24.81,171.35-4.47,59.68-34.18,113-81.34,180.2-100.68,32.17-9.26,67.14-12.59,99.65-3.09a121.88,121.88,0,0,1,23.33,9.5c9.15,4.9,10.44,7.94,7.69,18-3.63,13.35-13.28,23.75-24.48,31.39-22.78,15.55-52.05,21.85-79.15,23.88s-57.65,1.38-82.05-12.07c-27.42-15.11-37.07-47.56-21.46-74.9,15.36-26.92,45.34-45,73.38-56.27,17.29-6.91,49.37-13.37,45.52-38.73-2-13.46-14.21-22.59-19.22-34.75-7.49-18.13,5.3-34.32,18.47-45.62,20.51-17.59,51.18-29.67,58.14-58.82,6.32-26.48-18.05-35.75-37.37-44.69-16.92-7.82-27.11-22.59-16.74-40.58,8.52-14.78,23.65-23.55,38.75-30.25,19.89-8.83,46.39-20.27,50.54-44.47,3.73-21.81-13-37-31.55-44.54-27.69-11.31-58.7-9.41-88-9.29a1658.47,1658.47,0,0,0-233.26,17.53q-58.84,8.61-117,21.45-29,6.4-57.84,13.83c-13.67,3.53-26.95,7.63-39,15.21-14.83,9.35-33.51,31.35-17.19,48.07,14,14.35,38.51,12.17,53.7.95,19.17-14.16,20.44-40.74,11.5-61.18-11.58-26.49-37.33-41.15-64.26-48.26-67.49-17.82-144.8-10.56-210.92,9.48-69.95,21.21-133.82,59.95-196.88,96-58.59,33.55-116.62,69.62-165.9,116.18a469.1,469.1,0,0,0-62.46,73c-18.21,26.06-34.93,53.29-55.42,77.67s-44.93,45.11-75,56.29c-28.25,10.5-58.76,12.57-88.65,11.75-58.52-1.6-117.64-15-176.1-6-26.83,4.16-52.47,14-73.95,30.79-25.09,19.62-43.18,46.26-63,70.84-20.25,25.16-43.17,46.85-72.17,61.66a201.18,201.18,0,0,1-101,21.61c-2.47-.11-2.46,3.73,0,3.85Z" id="svg_1" stroke="#EEEAE5" stroke-opacity="1" stroke-width="6"/><path class="cls-1" d="M8090.32,736.06c-50.58-19.71-104.61-33.25-158.93-36.64-37.52-2.35-81.85,3.52-101.35,40.14-11.23,21.12-14.38,45.22-30.47,63.8-14.31,16.51-34.25,27.66-55.45,32.52-21.44,4.91-44.74,3.31-64.64-6.43-5-2.44-10.42-5.35-14.26-9.45-9.32-9.94-5.09-21.38,5.43-27.79,12.68-7.74,30-9.54,44.45-10.76a182.66,182.66,0,0,1,40.61,1.17c4.33.6,17.8.71,20.59,5.27,3.31,5.41-7.25,15.39-11.11,18.13-19.43,13.76-47.12,12.86-69.74,14.84-57,5-114.85,8.34-171.72.22-95.08-13.58-194.75-69.5-220.64-168.65a157.63,157.63,0,0,1-5.19-38.29c-.07-6.44-2-13.65,5.19-14.56,6.41-.8,15.11,3.09,20.33,6.15,24.41,14.3,34.14,45.58,24.62,71.6-23.58,64.45-104.68,64.58-161,61.95l1.8,3.14c10.72-20.42-.51-42.89-18-55.44-26.77-19.18-62.17-9.14-91.5-2.85-30.55,6.54-81.48,11.35-93.15-27.34-8-26.43,9.69-58.3,37.54-62.21,2.42-.34,1.67-4-.55-4.08-70.1-3.67-89.63-85.41-117.64-135.39A179.12,179.12,0,0,0,6783.27,367c-22.21-4.28-50-6.36-71.58,1.86-19.34,7.36-22.32,26-12.7,42.66C6713.1,436,6741,448.8,6764,463l92.63,56.88c25.68,15.77,67.73,40.41,42.61,75.67-21.61,30.34-60.19,27.38-92.55,22.16-29.61-4.77-57.78-7.23-87.35-.59-29.08,6.54-56.44,19.31-82.42,33.62-56.39,31-108.53,71.43-172.38,86.33-31.72,7.41-65.47,7.55-95.71-5.67-14.78-6.46-29-16.24-36.35-31.1-8.43-17.12-5.3-36.78,2.35-53.56,13.26-29.11,39.06-52.33,64.92-70.27,25.25-17.52,54.4-31.88,84.51-38.67,11.44-2.58,27-1.8,27.25,13.46.13,7-2.79,14.1-6.61,19.87-7.16,10.8-18.1,19.69-28.59,27C6458.63,610.51,6439,619.82,6420,630c-33.42,17.91-66.14,39.91-67.9,81.33-.75,17.8,1,35.56-17.16,45.77-15.36,8.64-36.41,10.32-53.63,10.9-35.26,1.17-69.74-7.39-100.77-24-25.38-13.59-49.39-31.17-77.9-37.68-26.64-6.09-53.77-1.37-78.91,8.41-28.12,10.93-53.72,27.3-79.4,42.91-26.31,16-54.09,29.74-79.62,47C5824.47,831.8,5786.51,877.9,5800,930c12.26,47.26,61.37,57.82,103.59,50.42C5928.93,976,5953.3,967,5976.9,957c32-13.47,63.85-26.48,96.92-37a906.16,906.16,0,0,1,201.6-39.8c8.48-.68,24.53-5.79,25.37,6.62.49,7.16-4.61,13.72-9.45,18.36-11.67,11.2-26.62,16-41.88,20L6141.84,953l-215.22,55.7-102.72,26.59a2.14,2.14,0,0,0-1.55,2c.69,17,14.39,29.77,31.43,29l-2-2.67c-12.86,43.08-73.69,13.17-90.54-10.31-19.48-27.14-33.16-65-65.91-79.24-30-13-60.17,4.53-74.91,31.43-16.27,29.7-11.76,63.41,10.72,88.49,24.62,27.47,63.77,39.39,99.79,39,10.13-.11,21.3-1.8,31.05,1.79,18.88,7,15,25.29,3,36.38-16.67,15.38-38.67,18.55-59.31,25.54-31.82,10.78-66.21,28.69-79.58,61.52-12.9,31.67.27,69.79,29.11,87.87,32.63,20.46,79.38,7.32,98.29-25.78,13.21-23.12,10.65-54.25,29.72-74.07,4.78-5,10.88-9.43,17.5-11.56,6.38-2.05,22.67-4.22,19,6.39-4.42,12.77-18.52,22.62-30.27,27.74a2,2,0,0,0-1,1.76c.07,11.35,9.46,17.54,20.09,18.43,16,1.34,26.08-9.68,34.69-21.7,13.55-18.93,26.54-34,51.89-32,19.6,1.58,39.89,13.68,45.8,33.3,6.95,23.09-7.62,47.28-27.89,58.07-6.31,3.36-26.5,10.94-29.89,1.78-2.61-7.06,5.37-24.24,8.49-30.5,17.19-34.63,54.4-54.92,89.31-67.64,44.68-16.3,92.74-21.88,139.64-28,54.66-7.13,110.3-13.63,165.46-14.94,20.56-.5,48.31,1.28,59.95,21.27,15.05,25.84-10.31,51.46-30.3,64.85-21.29,14.27-47,23.31-71.11,31.54a529.08,529.08,0,0,1-165.2,28.37c-15,.16-30.76.62-45.62-1.49-8.07-1.15-9.53-3.82-7.53-12.41a30.1,30.1,0,0,1,7.71-13.71c17.17-18.06,48.58-18.55,59.37,6.46,9.73,22.55-1.65,50.35-22.47,62a2.22,2.22,0,0,0,0,3.79c29,19.31,64.4,44.44,59.8,84.11-5.26,45.34-54.78,38.91-86.49,28-55.93-19.22-102.22-58.36-150.63-91-43.08-29-92-56.21-145.74-51.6-33,2.83-62.88,17.48-89.78,36-28.68,19.81-56.66,42.67-80.7,67.93-44.12,46.35-65.74,108.69-57,172.48,8,58.17,41.8,109.08,93.62,137.14,49.56,26.85,110,31.53,161.8,8.37,31.38-14,74.56-40.32,102.81-6,19.46,23.63,19,59,16.26,87.79-12.41,132.24-69.51,289.13,22.26,406.84,34.07,43.69,101.82,83.4,148.79,34.58,44.49-46.25,55.2-118.94,66.74-179.21,6.34-33.12,12.83-66.43,24.31-98.22,9.84-27.27,29.89-80.75,65.64-79.2,29.83,1.29,45.72,40.34,52.35,64.38,4.38,15.88,9.15,36.29,3.71,52.33-6.88,20.27-28.43,21.38-45.49,14.91-29.19-11.07-48-39.37-60.5-66.66-12.8-28-19-58.77-19.08-89.47-.13-60.1,23.53-120.28,69.2-160.2,40.85-35.71,97.46-59,126.16-107.06,16.26-27.25,13.08-54.78,13.11-85.26,0-21,5.74-39.59,22-53.56a103.23,103.23,0,0,1,41.94-21.37c54-13.56,115.65,14.25,144.66,61.06,18,29,18.49,61.12,14.36,94.08-4.25,33.87-12.9,70.23-1,103.55,3.5,9.84,16.28,12.34,25.85,13.2a54.73,54.73,0,0,0,36.86-10.2,2.51,2.51,0,0,0,.88-3.34c-47.42-90.29-13.9-203.26,75.48-252.31a187.06,187.06,0,0,1,30.29-13.27c6.52-2.19,27.84-11.3,33.73-5.66,2.24,2.14,1.26,16.41,1.52,19.9l1.52,19.91q1.6,21.15,3.23,42.31c4.2,54,7.3,108.27,13.09,162.15,8.85,82.49,35.22,173.75,120.65,205.91,37,13.94,75.64,10,107.87-13.27,19.48-14,36.56-30.78,57.65-42.63,21.51-12.09,45-20.25,68.94-26,56.26-13.47,115.73-15.4,173.34-16.26a1464.54,1464.54,0,0,1,192.33,10l-2.19-3.8c-51.15,95.07-171.41,143.22-274,109.76l1.48,3.64c18.25-29.47,59.57,5.43,75.44,19.88,23.68,21.55,47.15,43.63,67.08,68.79,39.73,50.12,68.11,124.83,33.28,185.28-13.79,24-38.2,41.92-65,48.48-30.85,7.56-58.05-2.91-80.4-24.52-18.63-18-34.07-39.41-57.52-51.65-18.35-9.58-39.22-13.83-59.86-13.34-47.75,1.13-95.07,27.11-115.37,71.35-1.31,2.86,2.93,5.36,4.25,2.48,22.92-50,81.53-76.11,134.75-67.32,29.26,4.83,51.16,20.55,71.08,41.77s39.85,43.59,70.3,47.91c50.91,7.22,99-30.76,112.76-78.34,18.36-63.47-12.47-128.15-53.1-175.65-13.27-15.51-27.79-29.91-42.66-43.87-11.75-11-23.37-23-36.65-32.21-17.8-12.29-48.23-24.84-62.67-1.54a2.51,2.51,0,0,0,1.48,3.64c104.67,34.16,227.54-15.06,279.73-112a2.57,2.57,0,0,0-2.18-3.81,1458,1458,0,0,0-244.86-8.26c-66.36,3.4-137.28,8.91-195.87,43.32-30.15,17.71-53.44,47.9-87.86,57.76-30,8.59-62.25,1.46-89.05-13.39-64.52-35.76-87.23-108.15-96.1-177-5.34-41.44-7.57-83.33-10.81-125q-5.43-69.69-11-139.36c-.1-1.2-1.07-2.68-2.49-2.49-67,8.89-127.55,53-153.75,115.81-14.65,35.14-18.25,74.54-11,111.87a188.33,188.33,0,0,0,7,26.19c2,5.77,10.79,19.25,10,24.83-1,7.1-22.82,9-27.92,8.87a49.37,49.37,0,0,1-15.23-2.77c-7.8-2.78-10-7.78-11.92-15.24-10.74-42.56,6.63-86.26,6-129.14a120,120,0,0,0-28.64-76.61c-35.23-41.85-98-64-150.51-44.33-30.28,11.33-53.4,34-55.51,67.36-1.3,20.51,2.95,41-1,61.44-3.22,16.61-11.46,31.75-22.16,44.71-41.08,49.72-106.71,71.33-144.94,124.34-36.53,50.66-48.51,117.68-35.4,178.38,6.4,29.65,19,58,37.69,82,15.27,19.61,44,41.12,70.56,33.18,30.89-9.21,23.63-50.3,17.4-73.78-6.41-24.2-19.06-54.9-43.48-66-27.45-12.42-49,11.09-62,32.63-19.11,31.73-29.77,67.63-37.74,103.56-8.37,37.75-13.92,76.1-23.69,113.53-9.7,37.17-23.79,78.54-51.63,106.28-35.61,35.47-85.51,17.13-118.48-12.14-28-24.88-46.83-58.49-58-94-26.06-82.64-10.21-168.65,3.53-252,6.33-38.38,15-79,12-118.05-1.95-25.53-10.14-55.21-34.93-67.55-34.07-17-69.41,9.85-100.16,21.93-33.77,13.27-71.72,14-106.61,4.88-75.35-19.75-128.69-83.68-135.07-161.27-3.11-37.9,4.24-76.76,21.95-110.49,20-38,53-66.61,86-93.13,33.49-27,70.81-52.66,114.76-57.07,32.58-3.27,64.56,5.8,93.57,20.11,59,29.12,107.41,75.47,165.73,105.81,26.28,13.68,59.19,28.41,89.53,24.88,29.57-3.43,44.28-30,39.5-58-5.62-33-35.58-53.39-61.43-70.62v3.79c28.17-15.81,41.87-65.52,9.68-85.15-26.39-16.09-68.94,9.23-60.23,41a2.3,2.3,0,0,0,2.15,1.64,536.46,536.46,0,0,0,216.78-24.82c29.56-9.82,62.06-20.92,86.48-40.78,17.58-14.3,34.52-37.34,23.41-60.72-10.3-21.68-36.89-26.1-58.43-26.4-37.46-.51-75.7,4.37-112.93,8.24q-57.29,5.94-114.2,15c-28.64,4.51-57,9.89-84.33,19.7-48.89,17.53-99.91,50.35-102.68,107.41a2.06,2.06,0,0,0,1.51,2c28.71,5.94,57.84-14.44,65-42.52,6.76-26.54-10.57-50.4-35.52-58.53-12.48-4.07-26.49-4.35-38.8.5-13.32,5.25-21.17,16.21-29.12,27.56-6.48,9.26-13.66,20.13-25.59,22.4-7,1.33-29.4-2.53-21.43-13.69,2-2.76,9.18-5.31,12.08-7.65a63,63,0,0,0,8.1-7.82,66.67,66.67,0,0,0,11.31-19.36,2.06,2.06,0,0,0-.94-2.31c-12.45-7.81-26.56-4.86-38.05,3.51-14.58,10.62-20.25,26.9-24.7,43.69-6.22,23.54-12.47,45.92-34.24,59.7-17.82,11.28-41,14.84-60.87,7.1-44.41-17.27-54.47-75-24.23-109.31,13.36-15.15,31.69-25.38,50.21-32.9,16.36-6.65,34-9.51,50.2-16.41,12.87-5.49,28.05-14.51,34-27.89,5-11.3-.11-23.44-11.05-28.93-14.79-7.42-33.95-2.58-49.81-3.86-20.74-1.68-41.45-7.62-59.38-18.31-36.35-21.66-54.86-63.58-33.47-102.58,8.69-15.85,23.38-29.85,41.63-33.29,20.59-3.88,39.48,7.46,52.71,22.34,24.95,28.07,35.1,68.51,71.4,85.11,23,10.53,57.37,12.37,66.15-17a2.11,2.11,0,0,0-2-2.66c-9.24.43-26.89-6.5-26.49-18.51.29-8.49,18.33-9.52,24.64-11.15l56.25-14.56,112.51-29.12,225-58.23c20.35-5.27,49.58-12.82,57.9-35.37,1.9-5.15,2.6-17-3.48-20.29-3.51-1.93-11.42.15-15.33.42q-14.05,1-28.06,2.42a911.63,911.63,0,0,0-206.3,45.6c-56.17,19.5-113.68,55.76-174.77,55.41-30.31-.18-59.53-14.58-69.92-44.75-10.61-30.82,1.47-66.53,21.44-90.81,21.09-25.64,50.85-42.39,79.36-58.41s55.88-33.92,84.55-49.56c29.49-16.07,62.38-29.9,96.7-26.72,35.34,3.27,63.75,25.64,94.28,41.39a202.08,202.08,0,0,0,90.38,22.68c23,.26,59.4-.77,75.55-20.27,8.21-9.92,8.23-22.87,8.4-35.08.19-13.32,1.84-25.71,8.59-37.4,11.25-19.48,31.54-31.88,50.69-42.47,20.18-11.16,41.28-20.8,60.42-33.76,15.9-10.76,35-25.64,39-45.59,11.9-59.24-101.23,3.53-117.5,14.81-37.55,26-97.15,82.18-67,133.12,13.77,23.28,42.95,34.78,68.4,38.87,29.31,4.72,59.31-.1,87.3-9.21,62.4-20.33,113.7-62.12,171.89-91,30.77-15.3,64.05-27.13,98.76-27.72,33.43-.57,66.48,12.79,99.95,8,21.74-3.09,45.26-17.56,52.26-39.42,7.68-24-9.73-42.75-28.17-55.23-30.32-20.53-62.59-38.65-93.79-57.81l-48.42-29.73c-14-8.58-27.92-18.56-36.2-33.18-25-44.06,46.5-43.52,72.33-39.69a178.64,178.64,0,0,1,80.53,33.66c26.83,20.14,44.16,47.05,58.23,77.07,12.94,27.62,24.18,56.6,44.66,79.75,16.93,19.14,38.84,33.08,64.81,34.44l-.55-4.07c-22.49,3.15-38.23,22.79-41.68,44.55-3.68,23.13,8,43.4,29.66,52.35,29.91,12.38,62.38,1.6,92.38-4.17,20.61-4,44.34-6.47,62.95,5.38,16.93,10.78,29.55,32.14,19.32,51.63a2.12,2.12,0,0,0,1.81,3.14c55.87,2.62,125.88,2.76,158.75-51.76,12-20,13.89-43.86,2.94-64.72-10.23-19.49-29.75-33.27-52.24-31.32a2.19,2.19,0,0,0-2.11,2.12C7287.64,677.6,7340.68,748,7406.77,787c83.36,49.25,186.15,46.67,279.34,38.85,25.76-2.16,95.84.27,94.3-40.86a2.15,2.15,0,0,0-1.55-2,193.1,193.1,0,0,0-73.38-4.72c-15.72,2.09-41.14,5.32-48.68,22.21-6.82,15.26,8.53,26.8,20.53,32.69a99.09,99.09,0,0,0,51.31,9.4c34.42-2.72,68.52-21.68,85.23-52.54,11.41-21.08,13.59-47.16,31.49-64.48,17.47-16.9,42.66-21.87,66.15-22.56,59.8-1.78,122.52,15.2,177.83,36.67,2.22.86,3.18-2.72,1-3.57Z" id="svg_2" stroke="#EEEAE5" stroke-opacity="1" stroke-width="8"/><path class="cls-1" d="M8090.32,736.06 c-50.58,-19.71 -104.61,-33.25 -158.93,-36.64 c-37.52,-2.35 -81.85,3.52 -101.35,40.14 c-11.23,21.12 -14.38,45.22 -30.47,63.8 c-14.31,16.51 -34.25,27.66 -55.45,32.52 c-21.44,4.91 -44.74,3.31 -64.64,-6.43 c-5,-2.44 -10.42,-5.35 -14.26,-9.45 c-9.32,-9.94 -5.09,-21.38 5.43,-27.79 c12.68,-7.74 30,-9.54 44.45,-10.76 a182.66,182.66 0 0 1 40.61,1.17 c4.33,0.6000000000000001 17.8,0.7100000000000001 20.59,5.27 c3.31,5.41 -7.25,15.39 -11.11,18.13 c-19.43,13.76 -47.12,12.86 -69.74,14.84 c-57,5 -114.85,8.34 -171.72,0.22000000000000003 c-95.08,-13.58 -194.75,-69.5 -220.64,-168.65 a157.63,157.63 0 0 1 -5.19,-38.29 c-0.07,-6.44 -2,-13.65 5.19,-14.56 c6.41,-0.8 15.11,3.09 20.33,6.15 c24.41,14.3 34.14,45.58 24.62,71.6 c-23.58,64.45 -104.68,64.58 -161,61.95 l1.8,3.14 c10.72,-20.42 -0.51,-42.89 -18,-55.44 c-26.77,-19.18 -62.17,-9.14 -91.5,-2.85 c-30.55,6.54 -81.48,11.35 -93.15,-27.34 c-8,-26.43 9.69,-58.3 37.54,-62.21 c2.42,-0.3400000000000001 1.6700000000000002,-4 -0.55,-4.08 c-70.1,-3.67 -89.63,-85.41 -117.64,-135.39 A179.12,179.12 0 0 0 6783.27,367 c-22.21,-4.28 -50,-6.36 -71.58,1.86 c-19.34,7.36 -22.32,26 -12.7,42.66 C6713.1,436 6741,448.8 6764,463 l92.63,56.88 c25.68,15.77 67.73,40.41 42.61,75.67 c-21.61,30.34 -60.19,27.38 -92.55,22.16 c-29.61,-4.77 -57.78,-7.23 -87.35,-0.5900000000000001 c-29.08,6.54 -56.44,19.31 -82.42,33.62 c-56.39,31 -108.53,71.43 -172.38,86.33 c-31.72,7.41 -65.47,7.55 -95.71,-5.67 c-14.78,-6.46 -29,-16.24 -36.35,-31.1 c-8.43,-17.12 -5.3,-36.78 2.35,-53.56 c13.26,-29.11 39.06,-52.33 64.92,-70.27 c25.25,-17.52 54.4,-31.88 84.51,-38.67 c11.44,-2.58 27,-1.8 27.25,13.46 c0.13,7 -2.79,14.1 -6.61,19.87 c-7.16,10.8 -18.1,19.69 -28.59,27 C6458.63,610.51 6439,619.82 6420,630 c-33.42,17.91 -66.14,39.91 -67.9,81.33 c-0.7500000000000001,17.8 1,35.56 -17.16,45.77 c-15.36,8.64 -36.41,10.32 -53.63,10.9 c-35.26,1.17 -69.74,-7.39 -100.77,-24 c-25.38,-13.59 -49.39,-31.17 -77.9,-37.68 c-26.64,-6.09 -53.77,-1.37 -78.91,8.41 c-28.12,10.93 -53.72,27.3 -79.4,42.91 c-26.31,16 -54.09,29.74 -79.62,47 C5824.47,831.8 5786.51,877.9 5800,930 c12.26,47.26 61.37,57.82 103.59,50.42 C5928.93,976 5953.3,967 5976.9,957 c32,-13.47 63.85,-26.48 96.92,-37 a906.16,906.16 0 0 1 201.6,-39.8 c8.48,-0.6800000000000002 24.53,-5.79 25.37,6.62 c0.49000000000000005,7.16 -4.61,13.72 -9.45,18.36 c-11.67,11.2 -26.62,16 -41.88,20 L6141.84,953 l-215.22,55.7 l-102.72,26.59 a2.14,2.14 0 0 0 -1.55,2 c0.6900000000000002,17 14.39,29.77 31.43,29 l-2,-2.67 c-12.86,43.08 -73.69,13.17 -90.54,-10.31 c-19.48,-27.14 -33.16,-65 -65.91,-79.24 c-30,-13 -60.17,4.53 -74.91,31.43 c-16.27,29.7 -11.76,63.41 10.72,88.49 c24.62,27.47 63.77,39.39 99.79,39 c10.13,-0.11000000000000001 21.3,-1.8 31.05,1.79 c18.88,7 15,25.29 3,36.38 c-16.67,15.38 -38.67,18.55 -59.31,25.54 c-31.82,10.78 -66.21,28.69 -79.58,61.52 c-12.9,31.67 0.27,69.79 29.11,87.87 c32.63,20.46 79.38,7.32 98.29,-25.78 c13.21,-23.12 10.65,-54.25 29.72,-74.07 c4.78,-5 10.88,-9.43 17.5,-11.56 c6.38,-2.05 22.67,-4.22 19,6.39 c-4.42,12.77 -18.52,22.62 -30.27,27.74 a2,2 0 0 0 -1,1.7600000000000002 c0.07,11.35 9.46,17.54 20.09,18.43 c16,1.34 26.08,-9.68 34.69,-21.7 c13.55,-18.93 26.54,-34 51.89,-32 c19.6,1.58 39.89,13.68 45.8,33.3 c6.95,23.09 -7.62,47.28 -27.89,58.07 c-6.3100000000000005,3.36 -26.5,10.94 -29.89,1.78 c-2.6100000000000003,-7.06 5.37,-24.24 8.49,-30.5 c17.19,-34.63 54.4,-54.92 89.31,-67.64 c44.68,-16.3 92.74,-21.88 139.64,-28 c54.66,-7.13 110.3,-13.63 165.46,-14.94 c20.56,-0.5 48.31,1.28 59.95,21.27 c15.05,25.84 -10.31,51.46 -30.3,64.85 c-21.29,14.27 -47,23.31 -71.11,31.54 a529.08,529.08 0 0 1 -165.2,28.37 c-15,0.16000000000000003 -30.76,0.6200000000000001 -45.62,-1.49 c-8.07,-1.15 -9.53,-3.8200000000000003 -7.53,-12.41 a30.1,30.1 0 0 1 7.71,-13.71 c17.17,-18.06 48.58,-18.55 59.37,6.46 c9.73,22.55 -1.6500000000000001,50.35 -22.47,62 a2.22,2.22 0 0 0 0,3.79 c29,19.31 64.4,44.44 59.8,84.11 c-5.26,45.34 -54.78,38.91 -86.49,28 c-55.93,-19.22 -102.22,-58.36 -150.63,-91 c-43.08,-29 -92,-56.21 -145.74,-51.6 c-33,2.83 -62.88,17.48 -89.78,36 c-28.68,19.81 -56.66,42.67 -80.7,67.93 c-44.12,46.35 -65.74,108.69 -57,172.48 c8,58.17 41.8,109.08 93.62,137.14 c49.56,26.85 110,31.53 161.8,8.37 c31.38,-14 74.56,-40.32 102.81,-6 c19.46,23.63 19,59 16.26,87.79 c-12.41,132.24 -69.51,289.13 22.26,406.84 c34.07,43.69 101.82,83.4 148.79,34.58 c44.49,-46.25 55.2,-118.94 66.74,-179.21 c6.34,-33.12 12.83,-66.43 24.31,-98.22 c9.84,-27.27 29.89,-80.75 65.64,-79.2 c29.83,1.29 45.72,40.34 52.35,64.38 c4.38,15.88 9.15,36.29 3.71,52.33 c-6.88,20.27 -28.43,21.38 -45.49,14.91 c-29.19,-11.07 -48,-39.37 -60.5,-66.66 c-12.8,-28 -19,-58.77 -19.08,-89.47 c-0.13,-60.1 23.53,-120.28 69.2,-160.2 c40.85,-35.71 97.46,-59 126.16,-107.06 c16.26,-27.25 13.08,-54.78 13.11,-85.26 c0,-21 5.74,-39.59 22,-53.56 a103.23,103.23 0 0 1 41.94,-21.37 c54,-13.56 115.65,14.25 144.66,61.06 c18,29 18.49,61.12 14.36,94.08 c-4.25,33.87 -12.9,70.23 -1,103.55 c3.5,9.84 16.28,12.34 25.85,13.2 a54.73,54.73 0 0 0 36.86,-10.2 a2.51,2.51 0 0 0 0.8800000000000001,-3.34 c-47.42,-90.29 -13.9,-203.26 75.48,-252.31 a187.06,187.06 0 0 1 30.29,-13.27 c6.52,-2.19 27.84,-11.3 33.73,-5.66 c2.24,2.14 1.26,16.41 1.52,19.9 l1.52,19.91 q1.6,21.15 3.23,42.31 c4.2,54 7.3,108.27 13.09,162.15 c8.85,82.49 35.22,173.75 120.65,205.91 c37,13.94 75.64,10 107.87,-13.27 c19.48,-14 36.56,-30.78 57.65,-42.63 c21.51,-12.09 45,-20.25 68.94,-26 c56.26,-13.47 115.73,-15.4 173.34,-16.26 a1464.54,1464.54 0 0 1 192.33,10 l-2.19,-3.8 c-51.15,95.07 -171.41,143.22 -274,109.76 l1.48,3.64 c18.25,-29.47 59.57,5.43 75.44,19.88 c23.68,21.55 47.15,43.63 67.08,68.79 c39.73,50.12 68.11,124.83 33.28,185.28 c-13.79,24 -38.2,41.92 -65,48.48 c-30.85,7.5600000000000005 -58.05,-2.91 -80.4,-24.52 c-18.63,-18 -34.07,-39.41 -57.52,-51.65 c-18.35,-9.58 -39.22,-13.83 -59.86,-13.34 c-47.75,1.13 -95.07,27.11 -115.37,71.35 c-1.31,2.8600000000000003 2.93,5.36 4.25,2.48 c22.92,-50 81.53,-76.11 134.75,-67.32 c29.26,4.83 51.16,20.55 71.08,41.77 s39.85,43.59 70.3,47.91 c50.91,7.22 99,-30.76 112.76,-78.34 c18.36,-63.47 -12.47,-128.15 -53.1,-175.65 c-13.27,-15.51 -27.79,-29.91 -42.66,-43.87 c-11.75,-11 -23.37,-23 -36.65,-32.21 c-17.8,-12.29 -48.23,-24.84 -62.67,-1.54 a2.51,2.51 0 0 0 1.48,3.64 c104.67,34.16 227.54,-15.06 279.73,-112 a2.5700000000000003,2.5700000000000003 0 0 0 -2.18,-3.81 a1458,1458 0 0 0 -244.86,-8.26 c-66.36,3.4 -137.28,8.91 -195.87,43.32 c-30.15,17.71 -53.44,47.9 -87.86,57.76 c-30,8.59 -62.25,1.46 -89.05,-13.39 c-64.52,-35.76 -87.23,-108.15 -96.1,-177 c-5.34,-41.44 -7.57,-83.33 -10.81,-125 q-5.43,-69.69 -11,-139.36 c-0.1,-1.2 -1.07,-2.68 -2.49,-2.49 c-67,8.89 -127.55,53 -153.75,115.81 c-14.65,35.14 -18.25,74.54 -11,111.87 a188.33,188.33 0 0 0 7,26.19 c2,5.77 10.79,19.25 10,24.83 c-1,7.1 -22.82,9 -27.92,8.870000000000001 a49.37,49.37 0 0 1 -15.23,-2.77 c-7.8,-2.7800000000000002 -10,-7.78 -11.92,-15.24 c-10.74,-42.56 6.63,-86.26 6,-129.14 a120,120 0 0 0 -28.64,-76.61 c-35.23,-41.85 -98,-64 -150.51,-44.33 c-30.28,11.33 -53.4,34 -55.51,67.36 c-1.3,20.51 2.95,41 -1,61.44 c-3.22,16.61 -11.46,31.75 -22.16,44.71 c-41.08,49.72 -106.71,71.33 -144.94,124.34 c-36.53,50.66 -48.51,117.68 -35.4,178.38 c6.4,29.65 19,58 37.69,82 c15.27,19.61 44,41.12 70.56,33.18 c30.89,-9.21 23.63,-50.3 17.4,-73.78 c-6.41,-24.2 -19.06,-54.9 -43.48,-66 c-27.45,-12.42 -49,11.09 -62,32.63 c-19.11,31.73 -29.77,67.63 -37.74,103.56 c-8.37,37.75 -13.92,76.1 -23.69,113.53 c-9.7,37.17 -23.79,78.54 -51.63,106.28 c-35.61,35.47 -85.51,17.13 -118.48,-12.14 c-28,-24.88 -46.83,-58.49 -58,-94 c-26.06,-82.64 -10.21,-168.65 3.5300000000000002,-252 c6.33,-38.38 15,-79 12,-118.05 c-1.9500000000000002,-25.53 -10.14,-55.21 -34.93,-67.55 c-34.07,-17 -69.41,9.85 -100.16,21.93 c-33.77,13.27 -71.72,14 -106.61,4.88 c-75.35,-19.75 -128.69,-83.68 -135.07,-161.27 c-3.11,-37.9 4.24,-76.76 21.95,-110.49 c20,-38 53,-66.61 86,-93.13 c33.49,-27 70.81,-52.66 114.76,-57.07 c32.58,-3.27 64.56,5.8 93.57,20.11 c59,29.12 107.41,75.47 165.73,105.81 c26.28,13.68 59.19,28.41 89.53,24.88 c29.57,-3.43 44.28,-30 39.5,-58 c-5.62,-33 -35.58,-53.39 -61.43,-70.62 v3.79 c28.17,-15.81 41.87,-65.52 9.68,-85.15 c-26.39,-16.09 -68.94,9.23 -60.23,41 a2.3,2.3 0 0 0 2.15,1.6400000000000001 a536.46,536.46 0 0 0 216.78,-24.82 c29.56,-9.82 62.06,-20.92 86.48,-40.78 c17.58,-14.3 34.52,-37.34 23.41,-60.72 c-10.3,-21.68 -36.89,-26.1 -58.43,-26.4 c-37.46,-0.51 -75.7,4.37 -112.93,8.24 q-57.29,5.94 -114.2,15 c-28.64,4.51 -57,9.89 -84.33,19.7 c-48.89,17.53 -99.91,50.35 -102.68,107.41 a2.06,2.06 0 0 0 1.51,2 c28.71,5.94 57.84,-14.44 65,-42.52 c6.76,-26.54 -10.57,-50.4 -35.52,-58.53 c-12.48,-4.07 -26.49,-4.35 -38.8,0.5 c-13.32,5.25 -21.17,16.21 -29.12,27.56 c-6.48,9.26 -13.66,20.13 -25.59,22.4 c-7,1.33 -29.4,-2.5300000000000002 -21.43,-13.69 c2,-2.7600000000000002 9.18,-5.3100000000000005 12.08,-7.65 a63,63 0 0 0 8.1,-7.82 a66.67,66.67 0 0 0 11.31,-19.36 a2.06,2.06 0 0 0 -0.9400000000000001,-2.31 c-12.45,-7.8100000000000005 -26.56,-4.86 -38.05,3.51 c-14.58,10.620000000000001 -20.25,26.9 -24.7,43.69 c-6.22,23.54 -12.47,45.92 -34.24,59.7 c-17.82,11.28 -41,14.84 -60.87,7.1 c-44.41,-17.27 -54.47,-75 -24.23,-109.31 c13.36,-15.15 31.69,-25.38 50.21,-32.9 c16.36,-6.65 34,-9.51 50.2,-16.41 c12.870000000000001,-5.49 28.05,-14.51 34,-27.89 c5,-11.3 -0.11000000000000001,-23.44 -11.05,-28.93 c-14.79,-7.42 -33.95,-2.58 -49.81,-3.8600000000000003 c-20.74,-1.6800000000000002 -41.45,-7.62 -59.38,-18.31 c-36.35,-21.66 -54.86,-63.58 -33.47,-102.58 c8.69,-15.85 23.38,-29.85 41.63,-33.29 c20.59,-3.88 39.48,7.46 52.71,22.34 c24.95,28.07 35.1,68.51 71.4,85.11 c23,10.53 57.37,12.37 66.15,-17 a2.11,2.11 0 0 0 -2,-2.66 c-9.24,0.43000000000000005 -26.89,-6.5 -26.49,-18.51 c0.29000000000000004,-8.49 18.33,-9.52 24.64,-11.15 l56.25,-14.56 l112.51,-29.12 l225,-58.23 c20.35,-5.27 49.58,-12.82 57.9,-35.37 c1.9,-5.15 2.6,-17 -3.48,-20.29 c-3.51,-1.9300000000000002 -11.42,0.15000000000000002 -15.33,0.42000000000000004 q-14.05,1 -28.06,2.42 a911.63,911.63 0 0 0 -206.3,45.6 c-56.17,19.5 -113.68,55.76 -174.77,55.41 c-30.31,-0.18000000000000002 -59.53,-14.58 -69.92,-44.75 c-10.61,-30.82 1.47,-66.53 21.44,-90.81 c21.09,-25.64 50.85,-42.39 79.36,-58.41 s55.88,-33.92 84.55,-49.56 c29.49,-16.07 62.38,-29.9 96.7,-26.72 c35.34,3.27 63.75,25.64 94.28,41.39 a202.08,202.08 0 0 0 90.38,22.68 c23,0.26 59.4,-0.77 75.55,-20.27 c8.21,-9.92 8.23,-22.87 8.4,-35.08 c0.19000000000000003,-13.32 1.84,-25.71 8.59,-37.4 c11.25,-19.48 31.54,-31.88 50.69,-42.47 c20.18,-11.16 41.28,-20.8 60.42,-33.76 c15.9,-10.76 35,-25.64 39,-45.59 c11.9,-59.24 -101.23,3.5300000000000002 -117.5,14.81 c-37.55,26 -97.15,82.18 -67,133.12 c13.77,23.28 42.95,34.78 68.4,38.87 c29.31,4.72 59.31,-0.1 87.3,-9.21 c62.4,-20.33 113.7,-62.12 171.89,-91 c30.77,-15.3 64.05,-27.13 98.76,-27.72 c33.43,-0.5700000000000001 66.48,12.79 99.95,8 c21.74,-3.09 45.26,-17.56 52.26,-39.42 c7.68,-24 -9.73,-42.75 -28.17,-55.23 c-30.32,-20.53 -62.59,-38.65 -93.79,-57.81 l-48.42,-29.73 c-14,-8.58 -27.92,-18.56 -36.2,-33.18 c-25,-44.06 46.5,-43.52 72.33,-39.69 a178.64,178.64 0 0 1 80.53,33.66 c26.83,20.14 44.16,47.05 58.23,77.07 c12.94,27.62 24.18,56.6 44.66,79.75 c16.93,19.14 38.84,33.08 64.81,34.44 l-0.55,-4.07 c-22.49,3.15 -38.23,22.79 -41.68,44.55 c-3.68,23.13 8,43.4 29.66,52.35 c29.91,12.38 62.38,1.6 92.38,-4.17 c20.61,-4 44.34,-6.47 62.95,5.38 c16.93,10.78 29.55,32.14 19.32,51.63 a2.12,2.12 0 0 0 1.81,3.14 c55.87,2.62 125.88,2.7600000000000002 158.75,-51.76 c12,-20 13.89,-43.86 2.94,-64.72 c-10.23,-19.49 -29.75,-33.27 -52.24,-31.32 a2.19,2.19 0 0 0 -2.11,2.12 C7287.64,677.6 7340.68,748 7406.77,787 c83.36,49.25 186.15,46.67 279.34,38.85 c25.76,-2.16 95.84,0.27 94.3,-40.86 a2.15,2.15 0 0 0 -1.55,-2 a193.1,193.1 0 0 0 -73.38,-4.72 c-15.72,2.09 -41.14,5.32 -48.68,22.21 c-6.82,15.26 8.53,26.8 20.53,32.69 a99.09,99.09 0 0 0 51.31,9.4 c34.42,-2.72 68.52,-21.68 85.23,-52.54 c11.41,-21.08 13.59,-47.16 31.49,-64.48 c17.47,-16.9 42.66,-21.87 66.15,-22.56 c59.8,-1.78 122.52,15.2 177.83,36.67 c2.22,0.8600000000000001 3.18,-2.72 1,-3.5700000000000003 z" stroke="#EEEAE5" stroke-opacity="1" stroke-width="8" id="svg_10"/><path class="cls-1" d="M8090.32,736.06 c-50.58,-19.71 -104.61,-33.25 -158.93,-36.64 c-37.52,-2.35 -81.85,3.52 -101.35,40.14 c-11.23,21.12 -14.38,45.22 -30.47,63.8 c-14.31,16.51 -34.25,27.66 -55.45,32.52 c-21.44,4.91 -44.74,3.31 -64.64,-6.43 c-5,-2.44 -10.42,-5.35 -14.26,-9.45 c-9.32,-9.94 -5.09,-21.38 5.43,-27.79 c12.68,-7.74 30,-9.54 44.45,-10.76 a182.66,182.66 0 0 1 40.61,1.17 c4.33,0.6000000000000002 17.8,0.7100000000000002 20.59,5.27 c3.31,5.41 -7.25,15.39 -11.11,18.13 c-19.43,13.76 -47.12,12.86 -69.74,14.84 c-57,5 -114.85,8.34 -171.72,0.22000000000000006 c-95.08,-13.58 -194.75,-69.5 -220.64,-168.65 a157.63,157.63 0 0 1 -5.19,-38.29 c-0.07,-6.44 -2,-13.65 5.19,-14.56 c6.41,-0.8 15.11,3.09 20.33,6.15 c24.41,14.3 34.14,45.58 24.62,71.6 c-23.58,64.45 -104.68,64.58 -161,61.95 l1.8,3.14 c10.72,-20.42 -0.51,-42.89 -18,-55.44 c-26.77,-19.18 -62.17,-9.14 -91.5,-2.85 c-30.55,6.54 -81.48,11.35 -93.15,-27.34 c-8,-26.43 9.69,-58.3 37.54,-62.21 c2.42,-0.3400000000000002 1.6700000000000004,-4 -0.55,-4.08 c-70.1,-3.67 -89.63,-85.41 -117.64,-135.39 A179.12,179.12 0 0 0 6783.27,367 c-22.21,-4.28 -50,-6.36 -71.58,1.86 c-19.34,7.36 -22.32,26 -12.7,42.66 C6713.1,436 6741,448.8 6764,463 l92.63,56.88 c25.68,15.77 67.73,40.41 42.61,75.67 c-21.61,30.34 -60.19,27.38 -92.55,22.16 c-29.61,-4.77 -57.78,-7.23 -87.35,-0.5900000000000002 c-29.08,6.54 -56.44,19.31 -82.42,33.62 c-56.39,31 -108.53,71.43 -172.38,86.33 c-31.72,7.41 -65.47,7.55 -95.71,-5.67 c-14.78,-6.46 -29,-16.24 -36.35,-31.1 c-8.43,-17.12 -5.3,-36.78 2.35,-53.56 c13.26,-29.11 39.06,-52.33 64.92,-70.27 c25.25,-17.52 54.4,-31.88 84.51,-38.67 c11.44,-2.58 27,-1.8 27.25,13.46 c0.13,7 -2.79,14.1 -6.61,19.87 c-7.16,10.8 -18.1,19.69 -28.59,27 C6458.63,610.51 6439,619.82 6420,630 c-33.42,17.91 -66.14,39.91 -67.9,81.33 c-0.7500000000000002,17.8 1,35.56 -17.16,45.77 c-15.36,8.64 -36.41,10.32 -53.63,10.9 c-35.26,1.17 -69.74,-7.39 -100.77,-24 c-25.38,-13.59 -49.39,-31.17 -77.9,-37.68 c-26.64,-6.09 -53.77,-1.37 -78.91,8.41 c-28.12,10.93 -53.72,27.3 -79.4,42.91 c-26.31,16 -54.09,29.74 -79.62,47 C5824.47,831.8 5786.51,877.9 5800,930 c12.26,47.26 61.37,57.82 103.59,50.42 C5928.93,976 5953.3,967 5976.9,957 c32,-13.47 63.85,-26.48 96.92,-37 a906.16,906.16 0 0 1 201.6,-39.8 c8.48,-0.6800000000000004 24.53,-5.79 25.37,6.62 c0.4900000000000001,7.16 -4.61,13.72 -9.45,18.36 c-11.67,11.2 -26.62,16 -41.88,20 L6141.84,953 l-215.22,55.7 l-102.72,26.59 a2.14,2.14 0 0 0 -1.55,2 c0.6900000000000004,17 14.39,29.77 31.43,29 l-2,-2.67 c-12.86,43.08 -73.69,13.17 -90.54,-10.31 c-19.48,-27.14 -33.16,-65 -65.91,-79.24 c-30,-13 -60.17,4.53 -74.91,31.43 c-16.27,29.7 -11.76,63.41 10.72,88.49 c24.62,27.47 63.77,39.39 99.79,39 c10.13,-0.11000000000000003 21.3,-1.8 31.05,1.79 c18.88,7 15,25.29 3,36.38 c-16.67,15.38 -38.67,18.55 -59.31,25.54 c-31.82,10.78 -66.21,28.69 -79.58,61.52 c-12.9,31.67 0.27,69.79 29.11,87.87 c32.63,20.46 79.38,7.32 98.29,-25.78 c13.21,-23.12 10.65,-54.25 29.72,-74.07 c4.78,-5 10.88,-9.43 17.5,-11.56 c6.38,-2.05 22.67,-4.22 19,6.39 c-4.42,12.77 -18.52,22.62 -30.27,27.74 a2,2 0 0 0 -1,1.7600000000000002 c0.07,11.35 9.46,17.54 20.09,18.43 c16,1.34 26.08,-9.68 34.69,-21.7 c13.55,-18.93 26.54,-34 51.89,-32 c19.6,1.58 39.89,13.68 45.8,33.3 c6.95,23.09 -7.62,47.28 -27.89,58.07 c-6.3100000000000005,3.36 -26.5,10.94 -29.89,1.78 c-2.6100000000000003,-7.06 5.37,-24.24 8.49,-30.5 c17.19,-34.63 54.4,-54.92 89.31,-67.64 c44.68,-16.3 92.74,-21.88 139.64,-28 c54.66,-7.13 110.3,-13.63 165.46,-14.94 c20.56,-0.5 48.31,1.28 59.95,21.27 c15.05,25.84 -10.31,51.46 -30.3,64.85 c-21.29,14.27 -47,23.31 -71.11,31.54 a529.08,529.08 0 0 1 -165.2,28.37 c-15,0.16000000000000006 -30.76,0.6200000000000002 -45.62,-1.49 c-8.07,-1.15 -9.53,-3.8200000000000003 -7.53,-12.41 a30.1,30.1 0 0 1 7.71,-13.71 c17.17,-18.06 48.58,-18.55 59.37,6.46 c9.73,22.55 -1.6500000000000004,50.35 -22.47,62 a2.22,2.22 0 0 0 0,3.79 c29,19.31 64.4,44.44 59.8,84.11 c-5.26,45.34 -54.78,38.91 -86.49,28 c-55.93,-19.22 -102.22,-58.36 -150.63,-91 c-43.08,-29 -92,-56.21 -145.74,-51.6 c-33,2.83 -62.88,17.48 -89.78,36 c-28.68,19.81 -56.66,42.67 -80.7,67.93 c-44.12,46.35 -65.74,108.69 -57,172.48 c8,58.17 41.8,109.08 93.62,137.14 c49.56,26.85 110,31.53 161.8,8.37 c31.38,-14 74.56,-40.32 102.81,-6 c19.46,23.63 19,59 16.26,87.79 c-12.41,132.24 -69.51,289.13 22.26,406.84 c34.07,43.69 101.82,83.4 148.79,34.58 c44.49,-46.25 55.2,-118.94 66.74,-179.21 c6.34,-33.12 12.83,-66.43 24.31,-98.22 c9.84,-27.27 29.89,-80.75 65.64,-79.2 c29.83,1.29 45.72,40.34 52.35,64.38 c4.38,15.88 9.15,36.29 3.71,52.33 c-6.88,20.27 -28.43,21.38 -45.49,14.91 c-29.19,-11.07 -48,-39.37 -60.5,-66.66 c-12.8,-28 -19,-58.77 -19.08,-89.47 c-0.13,-60.1 23.53,-120.28 69.2,-160.2 c40.85,-35.71 97.46,-59 126.16,-107.06 c16.26,-27.25 13.08,-54.78 13.11,-85.26 c0,-21 5.74,-39.59 22,-53.56 a103.23,103.23 0 0 1 41.94,-21.37 c54,-13.56 115.65,14.25 144.66,61.06 c18,29 18.49,61.12 14.36,94.08 c-4.25,33.87 -12.9,70.23 -1,103.55 c3.5,9.84 16.28,12.34 25.85,13.2 a54.73,54.73 0 0 0 36.86,-10.2 a2.51,2.51 0 0 0 0.8800000000000002,-3.34 c-47.42,-90.29 -13.9,-203.26 75.48,-252.31 a187.06,187.06 0 0 1 30.29,-13.27 c6.52,-2.19 27.84,-11.3 33.73,-5.66 c2.24,2.14 1.26,16.41 1.52,19.9 l1.52,19.91 q1.6,21.15 3.23,42.31 c4.2,54 7.3,108.27 13.09,162.15 c8.85,82.49 35.22,173.75 120.65,205.91 c37,13.94 75.64,10 107.87,-13.27 c19.48,-14 36.56,-30.78 57.65,-42.63 c21.51,-12.09 45,-20.25 68.94,-26 c56.26,-13.47 115.73,-15.4 173.34,-16.26 a1464.54,1464.54 0 0 1 192.33,10 l-2.19,-3.8 c-51.15,95.07 -171.41,143.22 -274,109.76 l1.48,3.64 c18.25,-29.47 59.57,5.43 75.44,19.88 c23.68,21.55 47.15,43.63 67.08,68.79 c39.73,50.12 68.11,124.83 33.28,185.28 c-13.79,24 -38.2,41.92 -65,48.48 c-30.85,7.5600000000000005 -58.05,-2.91 -80.4,-24.52 c-18.63,-18 -34.07,-39.41 -57.52,-51.65 c-18.35,-9.58 -39.22,-13.83 -59.86,-13.34 c-47.75,1.13 -95.07,27.11 -115.37,71.35 c-1.31,2.8600000000000003 2.93,5.36 4.25,2.48 c22.92,-50 81.53,-76.11 134.75,-67.32 c29.26,4.83 51.16,20.55 71.08,41.77 s39.85,43.59 70.3,47.91 c50.91,7.22 99,-30.76 112.76,-78.34 c18.36,-63.47 -12.47,-128.15 -53.1,-175.65 c-13.27,-15.51 -27.79,-29.91 -42.66,-43.87 c-11.75,-11 -23.37,-23 -36.65,-32.21 c-17.8,-12.29 -48.23,-24.84 -62.67,-1.54 a2.51,2.51 0 0 0 1.48,3.64 c104.67,34.16 227.54,-15.06 279.73,-112 a2.5700000000000003,2.5700000000000003 0 0 0 -2.18,-3.81 a1458,1458 0 0 0 -244.86,-8.26 c-66.36,3.4 -137.28,8.91 -195.87,43.32 c-30.15,17.71 -53.44,47.9 -87.86,57.76 c-30,8.59 -62.25,1.46 -89.05,-13.39 c-64.52,-35.76 -87.23,-108.15 -96.1,-177 c-5.34,-41.44 -7.57,-83.33 -10.81,-125 q-5.43,-69.69 -11,-139.36 c-0.1,-1.2 -1.07,-2.68 -2.49,-2.49 c-67,8.89 -127.55,53 -153.75,115.81 c-14.65,35.14 -18.25,74.54 -11,111.87 a188.33,188.33 0 0 0 7,26.19 c2,5.77 10.79,19.25 10,24.83 c-1,7.1 -22.82,9 -27.92,8.870000000000001 a49.37,49.37 0 0 1 -15.23,-2.77 c-7.8,-2.7800000000000002 -10,-7.78 -11.92,-15.24 c-10.74,-42.56 6.63,-86.26 6,-129.14 a120,120 0 0 0 -28.64,-76.61 c-35.23,-41.85 -98,-64 -150.51,-44.33 c-30.28,11.33 -53.4,34 -55.51,67.36 c-1.3,20.51 2.95,41 -1,61.44 c-3.22,16.61 -11.46,31.75 -22.16,44.71 c-41.08,49.72 -106.71,71.33 -144.94,124.34 c-36.53,50.66 -48.51,117.68 -35.4,178.38 c6.4,29.65 19,58 37.69,82 c15.27,19.61 44,41.12 70.56,33.18 c30.89,-9.21 23.63,-50.3 17.4,-73.78 c-6.41,-24.2 -19.06,-54.9 -43.48,-66 c-27.45,-12.42 -49,11.09 -62,32.63 c-19.11,31.73 -29.77,67.63 -37.74,103.56 c-8.37,37.75 -13.92,76.1 -23.69,113.53 c-9.7,37.17 -23.79,78.54 -51.63,106.28 c-35.61,35.47 -85.51,17.13 -118.48,-12.14 c-28,-24.88 -46.83,-58.49 -58,-94 c-26.06,-82.64 -10.21,-168.65 3.5300000000000002,-252 c6.33,-38.38 15,-79 12,-118.05 c-1.9500000000000002,-25.53 -10.14,-55.21 -34.93,-67.55 c-34.07,-17 -69.41,9.85 -100.16,21.93 c-33.77,13.27 -71.72,14 -106.61,4.88 c-75.35,-19.75 -128.69,-83.68 -135.07,-161.27 c-3.11,-37.9 4.24,-76.76 21.95,-110.49 c20,-38 53,-66.61 86,-93.13 c33.49,-27 70.81,-52.66 114.76,-57.07 c32.58,-3.27 64.56,5.8 93.57,20.11 c59,29.12 107.41,75.47 165.73,105.81 c26.28,13.68 59.19,28.41 89.53,24.88 c29.57,-3.43 44.28,-30 39.5,-58 c-5.62,-33 -35.58,-53.39 -61.43,-70.62 v3.79 c28.17,-15.81 41.87,-65.52 9.68,-85.15 c-26.39,-16.09 -68.94,9.23 -60.23,41 a2.3,2.3 0 0 0 2.15,1.6400000000000001 a536.46,536.46 0 0 0 216.78,-24.82 c29.56,-9.82 62.06,-20.92 86.48,-40.78 c17.58,-14.3 34.52,-37.34 23.41,-60.72 c-10.3,-21.68 -36.89,-26.1 -58.43,-26.4 c-37.46,-0.51 -75.7,4.37 -112.93,8.24 q-57.29,5.94 -114.2,15 c-28.64,4.51 -57,9.89 -84.33,19.7 c-48.89,17.53 -99.91,50.35 -102.68,107.41 a2.06,2.06 0 0 0 1.51,2 c28.71,5.94 57.84,-14.44 65,-42.52 c6.76,-26.54 -10.57,-50.4 -35.52,-58.53 c-12.48,-4.07 -26.49,-4.35 -38.8,0.5 c-13.32,5.25 -21.17,16.21 -29.12,27.56 c-6.48,9.26 -13.66,20.13 -25.59,22.4 c-7,1.33 -29.4,-2.5300000000000002 -21.43,-13.69 c2,-2.7600000000000002 9.18,-5.3100000000000005 12.08,-7.65 a63,63 0 0 0 8.1,-7.82 a66.67,66.67 0 0 0 11.31,-19.36 a2.06,2.06 0 0 0 -0.9400000000000002,-2.31 c-12.45,-7.8100000000000005 -26.56,-4.86 -38.05,3.51 c-14.58,10.620000000000001 -20.25,26.9 -24.7,43.69 c-6.22,23.54 -12.47,45.92 -34.24,59.7 c-17.82,11.28 -41,14.84 -60.87,7.1 c-44.41,-17.27 -54.47,-75 -24.23,-109.31 c13.36,-15.15 31.69,-25.38 50.21,-32.9 c16.36,-6.65 34,-9.51 50.2,-16.41 c12.870000000000001,-5.49 28.05,-14.51 34,-27.89 c5,-11.3 -0.11000000000000003,-23.44 -11.05,-28.93 c-14.79,-7.42 -33.95,-2.58 -49.81,-3.8600000000000003 c-20.74,-1.6800000000000004 -41.45,-7.62 -59.38,-18.31 c-36.35,-21.66 -54.86,-63.58 -33.47,-102.58 c8.69,-15.85 23.38,-29.85 41.63,-33.29 c20.59,-3.88 39.48,7.46 52.71,22.34 c24.95,28.07 35.1,68.51 71.4,85.11 c23,10.53 57.37,12.37 66.15,-17 a2.11,2.11 0 0 0 -2,-2.66 c-9.24,0.4300000000000001 -26.89,-6.5 -26.49,-18.51 c0.2900000000000001,-8.49 18.33,-9.52 24.64,-11.15 l56.25,-14.56 l112.51,-29.12 l225,-58.23 c20.35,-5.27 49.58,-12.82 57.9,-35.37 c1.9,-5.15 2.6,-17 -3.48,-20.29 c-3.51,-1.9300000000000002 -11.42,0.15000000000000005 -15.33,0.4200000000000001 q-14.05,1 -28.06,2.42 a911.63,911.63 0 0 0 -206.3,45.6 c-56.17,19.5 -113.68,55.76 -174.77,55.41 c-30.31,-0.18000000000000005 -59.53,-14.58 -69.92,-44.75 c-10.61,-30.82 1.47,-66.53 21.44,-90.81 c21.09,-25.64 50.85,-42.39 79.36,-58.41 s55.88,-33.92 84.55,-49.56 c29.49,-16.07 62.38,-29.9 96.7,-26.72 c35.34,3.27 63.75,25.64 94.28,41.39 a202.08,202.08 0 0 0 90.38,22.68 c23,0.26 59.4,-0.77 75.55,-20.27 c8.21,-9.92 8.23,-22.87 8.4,-35.08 c0.19000000000000006,-13.32 1.84,-25.71 8.59,-37.4 c11.25,-19.48 31.54,-31.88 50.69,-42.47 c20.18,-11.16 41.28,-20.8 60.42,-33.76 c15.9,-10.76 35,-25.64 39,-45.59 c11.9,-59.24 -101.23,3.5300000000000002 -117.5,14.81 c-37.55,26 -97.15,82.18 -67,133.12 c13.77,23.28 42.95,34.78 68.4,38.87 c29.31,4.72 59.31,-0.1 87.3,-9.21 c62.4,-20.33 113.7,-62.12 171.89,-91 c30.77,-15.3 64.05,-27.13 98.76,-27.72 c33.43,-0.5700000000000002 66.48,12.79 99.95,8 c21.74,-3.09 45.26,-17.56 52.26,-39.42 c7.68,-24 -9.73,-42.75 -28.17,-55.23 c-30.32,-20.53 -62.59,-38.65 -93.79,-57.81 l-48.42,-29.73 c-14,-8.58 -27.92,-18.56 -36.2,-33.18 c-25,-44.06 46.5,-43.52 72.33,-39.69 a178.64,178.64 0 0 1 80.53,33.66 c26.83,20.14 44.16,47.05 58.23,77.07 c12.94,27.62 24.18,56.6 44.66,79.75 c16.93,19.14 38.84,33.08 64.81,34.44 l-0.55,-4.07 c-22.49,3.15 -38.23,22.79 -41.68,44.55 c-3.68,23.13 8,43.4 29.66,52.35 c29.91,12.38 62.38,1.6 92.38,-4.17 c20.61,-4 44.34,-6.47 62.95,5.38 c16.93,10.78 29.55,32.14 19.32,51.63 a2.12,2.12 0 0 0 1.81,3.14 c55.87,2.62 125.88,2.7600000000000002 158.75,-51.76 c12,-20 13.89,-43.86 2.94,-64.72 c-10.23,-19.49 -29.75,-33.27 -52.24,-31.32 a2.19,2.19 0 0 0 -2.11,2.12 C7287.64,677.6 7340.68,748 7406.77,787 c83.36,49.25 186.15,46.67 279.34,38.85 c25.76,-2.16 95.84,0.27 94.3,-40.86 a2.15,2.15 0 0 0 -1.55,-2 a193.1,193.1 0 0 0 -73.38,-4.72 c-15.72,2.09 -41.14,5.32 -48.68,22.21 c-6.82,15.26 8.53,26.8 20.53,32.69 a99.09,99.09 0 0 0 51.31,9.4 c34.42,-2.72 68.52,-21.68 85.23,-52.54 c11.41,-21.08 13.59,-47.16 31.49,-64.48 c17.47,-16.9 42.66,-21.87 66.15,-22.56 c59.8,-1.78 122.52,15.2 177.83,36.67 c2.22,0.8600000000000002 3.18,-2.72 1,-3.5700000000000003 z" stroke="#EEEAE5" stroke-opacity="1" stroke-width="8" id="svg_11"/><path class="cls-1" d="M8090.32,736.06 c-50.58,-19.71 -104.61,-33.25 -158.93,-36.64 c-37.52,-2.35 -81.85,3.52 -101.35,40.14 c-11.23,21.12 -14.38,45.22 -30.47,63.8 c-14.31,16.51 -34.25,27.66 -55.45,32.52 c-21.44,4.91 -44.74,3.31 -64.64,-6.43 c-5,-2.44 -10.42,-5.35 -14.26,-9.45 c-9.32,-9.94 -5.09,-21.38 5.43,-27.79 c12.68,-7.74 30,-9.54 44.45,-10.76 a182.66,182.66 0 0 1 40.61,1.17 c4.33,0.6000000000000001 17.8,0.7100000000000001 20.59,5.27 c3.31,5.41 -7.25,15.39 -11.11,18.13 c-19.43,13.76 -47.12,12.86 -69.74,14.84 c-57,5 -114.85,8.34 -171.72,0.22000000000000003 c-95.08,-13.58 -194.75,-69.5 -220.64,-168.65 a157.63,157.63 0 0 1 -5.19,-38.29 c-0.07,-6.44 -2,-13.65 5.19,-14.56 c6.41,-0.8 15.11,3.09 20.33,6.15 c24.41,14.3 34.14,45.58 24.62,71.6 c-23.58,64.45 -104.68,64.58 -161,61.95 l1.8,3.14 c10.72,-20.42 -0.51,-42.89 -18,-55.44 c-26.77,-19.18 -62.17,-9.14 -91.5,-2.85 c-30.55,6.54 -81.48,11.35 -93.15,-27.34 c-8,-26.43 9.69,-58.3 37.54,-62.21 c2.42,-0.3400000000000001 1.6700000000000002,-4 -0.55,-4.08 c-70.1,-3.67 -89.63,-85.41 -117.64,-135.39 A179.12,179.12 0 0 0 6783.27,367 c-22.21,-4.28 -50,-6.36 -71.58,1.86 c-19.34,7.36 -22.32,26 -12.7,42.66 C6713.1,436 6741,448.8 6764,463 l92.63,56.88 c25.68,15.77 67.73,40.41 42.61,75.67 c-21.61,30.34 -60.19,27.38 -92.55,22.16 c-29.61,-4.77 -57.78,-7.23 -87.35,-0.5900000000000001 c-29.08,6.54 -56.44,19.31 -82.42,33.62 c-56.39,31 -108.53,71.43 -172.38,86.33 c-31.72,7.41 -65.47,7.55 -95.71,-5.67 c-14.78,-6.46 -29,-16.24 -36.35,-31.1 c-8.43,-17.12 -5.3,-36.78 2.35,-53.56 c13.26,-29.11 39.06,-52.33 64.92,-70.27 c25.25,-17.52 54.4,-31.88 84.51,-38.67 c11.44,-2.58 27,-1.8 27.25,13.46 c0.13,7 -2.79,14.1 -6.61,19.87 c-7.16,10.8 -18.1,19.69 -28.59,27 C6458.63,610.51 6439,619.82 6420,630 c-33.42,17.91 -66.14,39.91 -67.9,81.33 c-0.7500000000000001,17.8 1,35.56 -17.16,45.77 c-15.36,8.64 -36.41,10.32 -53.63,10.9 c-35.26,1.17 -69.74,-7.39 -100.77,-24 c-25.38,-13.59 -49.39,-31.17 -77.9,-37.68 c-26.64,-6.09 -53.77,-1.37 -78.91,8.41 c-28.12,10.93 -53.72,27.3 -79.4,42.91 c-26.31,16 -54.09,29.74 -79.62,47 C5824.47,831.8 5786.51,877.9 5800,930 c12.26,47.26 61.37,57.82 103.59,50.42 C5928.93,976 5953.3,967 5976.9,957 c32,-13.47 63.85,-26.48 96.92,-37 a906.16,906.16 0 0 1 201.6,-39.8 c8.48,-0.6800000000000002 24.53,-5.79 25.37,6.62 c0.49000000000000005,7.16 -4.61,13.72 -9.45,18.36 c-11.67,11.2 -26.62,16 -41.88,20 L6141.84,953 l-215.22,55.7 l-102.72,26.59 a2.14,2.14 0 0 0 -1.55,2 c0.6900000000000002,17 14.39,29.77 31.43,29 l-2,-2.67 c-12.86,43.08 -73.69,13.17 -90.54,-10.31 c-19.48,-27.14 -33.16,-65 -65.91,-79.24 c-30,-13 -60.17,4.53 -74.91,31.43 c-16.27,29.7 -11.76,63.41 10.72,88.49 c24.62,27.47 63.77,39.39 99.79,39 c10.13,-0.11000000000000001 21.3,-1.8 31.05,1.79 c18.88,7 15,25.29 3,36.38 c-16.67,15.38 -38.67,18.55 -59.31,25.54 c-31.82,10.78 -66.21,28.69 -79.58,61.52 c-12.9,31.67 0.27,69.79 29.11,87.87 c32.63,20.46 79.38,7.32 98.29,-25.78 c13.21,-23.12 10.65,-54.25 29.72,-74.07 c4.78,-5 10.88,-9.43 17.5,-11.56 c6.38,-2.05 22.67,-4.22 19,6.39 c-4.42,12.77 -18.52,22.62 -30.27,27.74 a2,2 0 0 0 -1,1.7600000000000002 c0.07,11.35 9.46,17.54 20.09,18.43 c16,1.34 26.08,-9.68 34.69,-21.7 c13.55,-18.93 26.54,-34 51.89,-32 c19.6,1.58 39.89,13.68 45.8,33.3 c6.95,23.09 -7.62,47.28 -27.89,58.07 c-6.3100000000000005,3.36 -26.5,10.94 -29.89,1.78 c-2.6100000000000003,-7.06 5.37,-24.24 8.49,-30.5 c17.19,-34.63 54.4,-54.92 89.31,-67.64 c44.68,-16.3 92.74,-21.88 139.64,-28 c54.66,-7.13 110.3,-13.63 165.46,-14.94 c20.56,-0.5 48.31,1.28 59.95,21.27 c15.05,25.84 -10.31,51.46 -30.3,64.85 c-21.29,14.27 -47,23.31 -71.11,31.54 a529.08,529.08 0 0 1 -165.2,28.37 c-15,0.16000000000000003 -30.76,0.6200000000000001 -45.62,-1.49 c-8.07,-1.15 -9.53,-3.8200000000000003 -7.53,-12.41 a30.1,30.1 0 0 1 7.71,-13.71 c17.17,-18.06 48.58,-18.55 59.37,6.46 c9.73,22.55 -1.6500000000000001,50.35 -22.47,62 a2.22,2.22 0 0 0 0,3.79 c29,19.31 64.4,44.44 59.8,84.11 c-5.26,45.34 -54.78,38.91 -86.49,28 c-55.93,-19.22 -102.22,-58.36 -150.63,-91 c-43.08,-29 -92,-56.21 -145.74,-51.6 c-33,2.83 -62.88,17.48 -89.78,36 c-28.68,19.81 -56.66,42.67 -80.7,67.93 c-44.12,46.35 -65.74,108.69 -57,172.48 c8,58.17 41.8,109.08 93.62,137.14 c49.56,26.85 110,31.53 161.8,8.37 c31.38,-14 74.56,-40.32 102.81,-6 c19.46,23.63 19,59 16.26,87.79 c-12.41,132.24 -69.51,289.13 22.26,406.84 c34.07,43.69 101.82,83.4 148.79,34.58 c44.49,-46.25 55.2,-118.94 66.74,-179.21 c6.34,-33.12 12.83,-66.43 24.31,-98.22 c9.84,-27.27 29.89,-80.75 65.64,-79.2 c29.83,1.29 45.72,40.34 52.35,64.38 c4.38,15.88 9.15,36.29 3.71,52.33 c-6.88,20.27 -28.43,21.38 -45.49,14.91 c-29.19,-11.07 -48,-39.37 -60.5,-66.66 c-12.8,-28 -19,-58.77 -19.08,-89.47 c-0.13,-60.1 23.53,-120.28 69.2,-160.2 c40.85,-35.71 97.46,-59 126.16,-107.06 c16.26,-27.25 13.08,-54.78 13.11,-85.26 c0,-21 5.74,-39.59 22,-53.56 a103.23,103.23 0 0 1 41.94,-21.37 c54,-13.56 115.65,14.25 144.66,61.06 c18,29 18.49,61.12 14.36,94.08 c-4.25,33.87 -12.9,70.23 -1,103.55 c3.5,9.84 16.28,12.34 25.85,13.2 a54.73,54.73 0 0 0 36.86,-10.2 a2.51,2.51 0 0 0 0.8800000000000001,-3.34 c-47.42,-90.29 -13.9,-203.26 75.48,-252.31 a187.06,187.06 0 0 1 30.29,-13.27 c6.52,-2.19 27.84,-11.3 33.73,-5.66 c2.24,2.14 1.26,16.41 1.52,19.9 l1.52,19.91 q1.6,21.15 3.23,42.31 c4.2,54 7.3,108.27 13.09,162.15 c8.85,82.49 35.22,173.75 120.65,205.91 c37,13.94 75.64,10 107.87,-13.27 c19.48,-14 36.56,-30.78 57.65,-42.63 c21.51,-12.09 45,-20.25 68.94,-26 c56.26,-13.47 115.73,-15.4 173.34,-16.26 a1464.54,1464.54 0 0 1 192.33,10 l-2.19,-3.8 c-51.15,95.07 -171.41,143.22 -274,109.76 l1.48,3.64 c18.25,-29.47 59.57,5.43 75.44,19.88 c23.68,21.55 47.15,43.63 67.08,68.79 c39.73,50.12 68.11,124.83 33.28,185.28 c-13.79,24 -38.2,41.92 -65,48.48 c-30.85,7.5600000000000005 -58.05,-2.91 -80.4,-24.52 c-18.63,-18 -34.07,-39.41 -57.52,-51.65 c-18.35,-9.58 -39.22,-13.83 -59.86,-13.34 c-47.75,1.13 -95.07,27.11 -115.37,71.35 c-1.31,2.8600000000000003 2.93,5.36 4.25,2.48 c22.92,-50 81.53,-76.11 134.75,-67.32 c29.26,4.83 51.16,20.55 71.08,41.77 s39.85,43.59 70.3,47.91 c50.91,7.22 99,-30.76 112.76,-78.34 c18.36,-63.47 -12.47,-128.15 -53.1,-175.65 c-13.27,-15.51 -27.79,-29.91 -42.66,-43.87 c-11.75,-11 -23.37,-23 -36.65,-32.21 c-17.8,-12.29 -48.23,-24.84 -62.67,-1.54 a2.51,2.51 0 0 0 1.48,3.64 c104.67,34.16 227.54,-15.06 279.73,-112 a2.5700000000000003,2.5700000000000003 0 0 0 -2.18,-3.81 a1458,1458 0 0 0 -244.86,-8.26 c-66.36,3.4 -137.28,8.91 -195.87,43.32 c-30.15,17.71 -53.44,47.9 -87.86,57.76 c-30,8.59 -62.25,1.46 -89.05,-13.39 c-64.52,-35.76 -87.23,-108.15 -96.1,-177 c-5.34,-41.44 -7.57,-83.33 -10.81,-125 q-5.43,-69.69 -11,-139.36 c-0.1,-1.2 -1.07,-2.68 -2.49,-2.49 c-67,8.89 -127.55,53 -153.75,115.81 c-14.65,35.14 -18.25,74.54 -11,111.87 a188.33,188.33 0 0 0 7,26.19 c2,5.77 10.79,19.25 10,24.83 c-1,7.1 -22.82,9 -27.92,8.870000000000001 a49.37,49.37 0 0 1 -15.23,-2.77 c-7.8,-2.7800000000000002 -10,-7.78 -11.92,-15.24 c-10.74,-42.56 6.63,-86.26 6,-129.14 a120,120 0 0 0 -28.64,-76.61 c-35.23,-41.85 -98,-64 -150.51,-44.33 c-30.28,11.33 -53.4,34 -55.51,67.36 c-1.3,20.51 2.95,41 -1,61.44 c-3.22,16.61 -11.46,31.75 -22.16,44.71 c-41.08,49.72 -106.71,71.33 -144.94,124.34 c-36.53,50.66 -48.51,117.68 -35.4,178.38 c6.4,29.65 19,58 37.69,82 c15.27,19.61 44,41.12 70.56,33.18 c30.89,-9.21 23.63,-50.3 17.4,-73.78 c-6.41,-24.2 -19.06,-54.9 -43.48,-66 c-27.45,-12.42 -49,11.09 -62,32.63 c-19.11,31.73 -29.77,67.63 -37.74,103.56 c-8.37,37.75 -13.92,76.1 -23.69,113.53 c-9.7,37.17 -23.79,78.54 -51.63,106.28 c-35.61,35.47 -85.51,17.13 -118.48,-12.14 c-28,-24.88 -46.83,-58.49 -58,-94 c-26.06,-82.64 -10.21,-168.65 3.5300000000000002,-252 c6.33,-38.38 15,-79 12,-118.05 c-1.9500000000000002,-25.53 -10.14,-55.21 -34.93,-67.55 c-34.07,-17 -69.41,9.85 -100.16,21.93 c-33.77,13.27 -71.72,14 -106.61,4.88 c-75.35,-19.75 -128.69,-83.68 -135.07,-161.27 c-3.11,-37.9 4.24,-76.76 21.95,-110.49 c20,-38 53,-66.61 86,-93.13 c33.49,-27 70.81,-52.66 114.76,-57.07 c32.58,-3.27 64.56,5.8 93.57,20.11 c59,29.12 107.41,75.47 165.73,105.81 c26.28,13.68 59.19,28.41 89.53,24.88 c29.57,-3.43 44.28,-30 39.5,-58 c-5.62,-33 -35.58,-53.39 -61.43,-70.62 v3.79 c28.17,-15.81 41.87,-65.52 9.68,-85.15 c-26.39,-16.09 -68.94,9.23 -60.23,41 a2.3,2.3 0 0 0 2.15,1.6400000000000001 a536.46,536.46 0 0 0 216.78,-24.82 c29.56,-9.82 62.06,-20.92 86.48,-40.78 c17.58,-14.3 34.52,-37.34 23.41,-60.72 c-10.3,-21.68 -36.89,-26.1 -58.43,-26.4 c-37.46,-0.51 -75.7,4.37 -112.93,8.24 q-57.29,5.94 -114.2,15 c-28.64,4.51 -57,9.89 -84.33,19.7 c-48.89,17.53 -99.91,50.35 -102.68,107.41 a2.06,2.06 0 0 0 1.51,2 c28.71,5.94 57.84,-14.44 65,-42.52 c6.76,-26.54 -10.57,-50.4 -35.52,-58.53 c-12.48,-4.07 -26.49,-4.35 -38.8,0.5 c-13.32,5.25 -21.17,16.21 -29.12,27.56 c-6.48,9.26 -13.66,20.13 -25.59,22.4 c-7,1.33 -29.4,-2.5300000000000002 -21.43,-13.69 c2,-2.7600000000000002 9.18,-5.3100000000000005 12.08,-7.65 a63,63 0 0 0 8.1,-7.82 a66.67,66.67 0 0 0 11.31,-19.36 a2.06,2.06 0 0 0 -0.9400000000000001,-2.31 c-12.45,-7.8100000000000005 -26.56,-4.86 -38.05,3.51 c-14.58,10.620000000000001 -20.25,26.9 -24.7,43.69 c-6.22,23.54 -12.47,45.92 -34.24,59.7 c-17.82,11.28 -41,14.84 -60.87,7.1 c-44.41,-17.27 -54.47,-75 -24.23,-109.31 c13.36,-15.15 31.69,-25.38 50.21,-32.9 c16.36,-6.65 34,-9.51 50.2,-16.41 c12.870000000000001,-5.49 28.05,-14.51 34,-27.89 c5,-11.3 -0.11000000000000001,-23.44 -11.05,-28.93 c-14.79,-7.42 -33.95,-2.58 -49.81,-3.8600000000000003 c-20.74,-1.6800000000000002 -41.45,-7.62 -59.38,-18.31 c-36.35,-21.66 -54.86,-63.58 -33.47,-102.58 c8.69,-15.85 23.38,-29.85 41.63,-33.29 c20.59,-3.88 39.48,7.46 52.71,22.34 c24.95,28.07 35.1,68.51 71.4,85.11 c23,10.53 57.37,12.37 66.15,-17 a2.11,2.11 0 0 0 -2,-2.66 c-9.24,0.43000000000000005 -26.89,-6.5 -26.49,-18.51 c0.29000000000000004,-8.49 18.33,-9.52 24.64,-11.15 l56.25,-14.56 l112.51,-29.12 l225,-58.23 c20.35,-5.27 49.58,-12.82 57.9,-35.37 c1.9,-5.15 2.6,-17 -3.48,-20.29 c-3.51,-1.9300000000000002 -11.42,0.15000000000000002 -15.33,0.42000000000000004 q-14.05,1 -28.06,2.42 a911.63,911.63 0 0 0 -206.3,45.6 c-56.17,19.5 -113.68,55.76 -174.77,55.41 c-30.31,-0.18000000000000002 -59.53,-14.58 -69.92,-44.75 c-10.61,-30.82 1.47,-66.53 21.44,-90.81 c21.09,-25.64 50.85,-42.39 79.36,-58.41 s55.88,-33.92 84.55,-49.56 c29.49,-16.07 62.38,-29.9 96.7,-26.72 c35.34,3.27 63.75,25.64 94.28,41.39 a202.08,202.08 0 0 0 90.38,22.68 c23,0.26 59.4,-0.77 75.55,-20.27 c8.21,-9.92 8.23,-22.87 8.4,-35.08 c0.19000000000000003,-13.32 1.84,-25.71 8.59,-37.4 c11.25,-19.48 31.54,-31.88 50.69,-42.47 c20.18,-11.16 41.28,-20.8 60.42,-33.76 c15.9,-10.76 35,-25.64 39,-45.59 c11.9,-59.24 -101.23,3.5300000000000002 -117.5,14.81 c-37.55,26 -97.15,82.18 -67,133.12 c13.77,23.28 42.95,34.78 68.4,38.87 c29.31,4.72 59.31,-0.1 87.3,-9.21 c62.4,-20.33 113.7,-62.12 171.89,-91 c30.77,-15.3 64.05,-27.13 98.76,-27.72 c33.43,-0.5700000000000001 66.48,12.79 99.95,8 c21.74,-3.09 45.26,-17.56 52.26,-39.42 c7.68,-24 -9.73,-42.75 -28.17,-55.23 c-30.32,-20.53 -62.59,-38.65 -93.79,-57.81 l-48.42,-29.73 c-14,-8.58 -27.92,-18.56 -36.2,-33.18 c-25,-44.06 46.5,-43.52 72.33,-39.69 a178.64,178.64 0 0 1 80.53,33.66 c26.83,20.14 44.16,47.05 58.23,77.07 c12.94,27.62 24.18,56.6 44.66,79.75 c16.93,19.14 38.84,33.08 64.81,34.44 l-0.55,-4.07 c-22.49,3.15 -38.23,22.79 -41.68,44.55 c-3.68,23.13 8,43.4 29.66,52.35 c29.91,12.38 62.38,1.6 92.38,-4.17 c20.61,-4 44.34,-6.47 62.95,5.38 c16.93,10.78 29.55,32.14 19.32,51.63 a2.12,2.12 0 0 0 1.81,3.14 c55.87,2.62 125.88,2.7600000000000002 158.75,-51.76 c12,-20 13.89,-43.86 2.94,-64.72 c-10.23,-19.49 -29.75,-33.27 -52.24,-31.32 a2.19,2.19 0 0 0 -2.11,2.12 C7287.64,677.6 7340.68,748 7406.77,787 c83.36,49.25 186.15,46.67 279.34,38.85 c25.76,-2.16 95.84,0.27 94.3,-40.86 a2.15,2.15 0 0 0 -1.55,-2 a193.1,193.1 0 0 0 -73.38,-4.72 c-15.72,2.09 -41.14,5.32 -48.68,22.21 c-6.82,15.26 8.53,26.8 20.53,32.69 a99.09,99.09 0 0 0 51.31,9.4 c34.42,-2.72 68.52,-21.68 85.23,-52.54 c11.41,-21.08 13.59,-47.16 31.49,-64.48 c17.47,-16.9 42.66,-21.87 66.15,-22.56 c59.8,-1.78 122.52,15.2 177.83,36.67 c2.22,0.8600000000000001 3.18,-2.72 1,-3.5700000000000003 z" stroke="#EEEAE5" stroke-opacity="1" stroke-width="8" id="svg_8"/><path class="cls-1" d="M7053.58,2248.87 c-54.92,21.12 -122.6,-19 -133.54,-76.22 c-12.73,-66.54 49.51,-117.44 100.29,-146.77 c33.08,-19.1 68.33,-34.93 103.44,-49.87 q29.46,-12.54 59.48,-23.66 c15.870000000000001,-5.88 32,-11.21 47.34,-18.45 c28.49,-13.45 51.9,-35.33 55.58,-68.08 c3.8600000000000003,-34.45 -12.07,-68.7 -28.24,-98.09 c-19.21,-34.91 -39.27,-69.74 -60.16,-103.67 c-15.82,-25.7 -35.72,-51.85 -65.67,-61.38 c-27.59,-8.77 -57.46,0 -80.16,16.7 c-25.58,18.83 -41.77,46.19 -48.19,77.1 c-7.5600000000000005,36.35 -2.84,74 5.12,109.88 c3.79,17.06 9.9,34.42 9.32,52.11 c-0.5900000000000001,18 -11.72,33.36 -30.77,33.3 c-40.84,-0.11000000000000001 -50.65,-45.46 -53,-77.61 c-3,-42.06 -6,-84.27 -7.77,-126.41 c-1.6500000000000001,-38.35 -0.23,-79.19 19.92,-113.07 c8.49,-14.3 20,-27.18 34.1,-36.1 c14.95,-9.44 30.87,-12.44 48.32,-12.53 c15.33,-0.08000000000000002 32.09,0.7100000000000001 45.32,-8.42 c10,-6.93 15.45,-18 16.94,-29.94 c4.1,-32.66 -16.7,-58.62 -29.64,-86.52 c-7.17,-15.46 -12.28,-33.81 -5.72,-50.37 c4.8100000000000005,-12.16 14.95,-21.57 26.48,-27.34 c11.82,-5.92 25.89,-8.3 38.84,-5.2 c13.83,3.31 24.11,13 31.15,25 c13.57,23.2 15.54,51 26.23,75.42 c10.82,24.68 32.51,41.17 60.4,37.77 c69.3,-8.44 79,-97.18 62,-150.62 a126,126 0 0 0 -21.44,-40.9 c-10.56,-13.13 -24,-22.22 -38.56,-30.38 c-16.15,-9 -32.51,-17.74 -43.76,-33 c-11.14,-15.06 -18.07,-33.39 -24.75,-50.75 c-7.16,-18.64 -13.68,-39.2 -10.47,-59.39 c2.6100000000000003,-16.41 12.09,-30.41 25.73,-39.7 c25.25,-17.17 58.16,-19.78 87.73,-21.66 c37.44,-2.39 79.13,-3.46 109.81,21.77 a72.1,72.1 0 0 1 16.21,18.52 c4.45,7.48 6,15.47 8.82,23.56 c4.26,12.14 14.31,18.5 27.16,16.72 c33.17,-4.58 36.46,-45.8 52,-68.57 c16.79,-24.55 43.56,-39.74 71.2,-49.09 c28.85,-9.76 59.3,-14.09 89.52,-16.89 c39.5,-3.66 79.57,-7 119.22,-4 c41.7,3.2 80,17.28 119.12,31 A473.37,473.37 0 0 0 8007,1028.49 c84.74,7.08 170.65,6.87 255.6,4.52 q62.83,-1.7400000000000002 125.55,-6.2 c3.38,-0.24000000000000002 3.41,-5.54 0,-5.3 q-131.25,9.32 -262.94,7 c-43.13,-0.81 -86.53,-1.7200000000000002 -129.47,-6 a421.9,421.9 0 0 1 -63.25,-10.75 c-20.1,-5.17 -39.64,-12.28 -59.18,-19.24 c-38.1,-13.58 -75.76,-24.3 -116.4,-26 c-38.83,-1.6500000000000001 -78.14,1.6400000000000001 -116.74,5.75 c-54.7,5.8100000000000005 -119.7,17.88 -153.81,65.88 c-9.6,13.5 -13.88,29.08 -21.15,43.75 c-7,14.06 -24.8,32.1 -42.11,21.78 c-8.25,-4.92 -8.9,-15.41 -11.76,-23.64 a67.27,67.27 0 0 0 -10.35,-19 c-9.43,-12.24 -22.57,-21.3 -36.74,-27.23 c-33.21,-13.9 -72.06,-10.51 -107,-7.13 c-27.08,2.6100000000000003 -56.83,7.74 -78.28,25.79 c-27.29,23 -25.31,58.73 -14.73,89.72 c6,17.52 13.07,35.59 22.28,51.68 c8.32,14.52 19.59,25.63 33.76,34.42 c15,9.28 31.42,16.3 44.65,28.16 c13.38,12 23.09,27.62 29.31,44.4 c11.94,32.21 13.82,71.39 1.09,103.65 c-12.52,31.7 -48.42,58.71 -83.35,43.87 c-27.35,-11.61 -33.92,-44 -41.07,-69.7 c-6.51,-23.37 -15.45,-51 -39.42,-61.87 c-21.1,-9.56 -47.05,-3.44 -64.33,11.11 c-22.88,19.25 -22,47.9 -10.59,73.48 c13.05,29.28 39.53,60.41 28.08,94.77 c-6.15,18.47 -23.56,24.44 -41.51,25.08 c-16.09,0.5700000000000001 -31.92,-0.6700000000000002 -47.39,4.8 c-28.51,10.09 -49.78,35 -61.29,62.29 c-15.12,35.86 -14,76.21 -11.78,114.29 c1.27,21.65 2.7,43.29 4.06,64.94 c1.28,20.29 1.86,40.77 4.28,61 c3.51,29.31 15.76,61.32 48.32,67.27 c11.78,2.16 24.38,-0.29000000000000004 33,-9.08 c10.4,-10.64 11.69,-26.16 10.05,-40.22 c-2.05,-17.47 -7.63,-34.43 -11.07,-51.66 c-3.89,-19.51 -6.54,-39.34 -6.55,-59.26 c0,-37.06 9.86,-74.2 36.74,-100.88 c22.47,-22.31 55.74,-37 87.43,-27.88 c34.2,9.79 54.71,42.38 71.61,71.28 c20.76,35.52 43.17,70.76 61.39,107.67 c16.09,32.62 30.34,74.19 10.14,108.28 c-18.22,30.72 -55.92,41.45 -87.32,53.08 q-58.2,21.56 -114.29,48.32 c-55.84,26.6 -122.37,60 -147.57,120.63 c-10.58,25.44 -11.58,54 0.15000000000000002,79.23 c11.3,24.27 32.55,43.73 56.95,54.39 c23.65,10.33 50.39,12.35 74.63,2.83 c2.2,-0.8700000000000001 1.26,-4.46 -1,-3.6 z" id="svg_9" stroke="#EEEAE5" stroke-opacity="1" stroke-width="8"/><path class="cls-1" d="M7053.58,2248.87c-54.92,21.12-122.6-19-133.54-76.22-12.73-66.54,49.51-117.44,100.29-146.77,33.08-19.1,68.33-34.93,103.44-49.87q29.46-12.54,59.48-23.66c15.87-5.88,32-11.21,47.34-18.45,28.49-13.45,51.9-35.33,55.58-68.08,3.86-34.45-12.07-68.7-28.24-98.09-19.21-34.91-39.27-69.74-60.16-103.67-15.82-25.7-35.72-51.85-65.67-61.38-27.59-8.77-57.46,0-80.16,16.7-25.58,18.83-41.77,46.19-48.19,77.1-7.56,36.35-2.84,74,5.12,109.88,3.79,17.06,9.9,34.42,9.32,52.11-.59,18-11.72,33.36-30.77,33.3-40.84-.11-50.65-45.46-53-77.61-3-42.06-6-84.27-7.77-126.41-1.65-38.35-.23-79.19,19.92-113.07,8.49-14.3,20-27.18,34.1-36.1,14.95-9.44,30.87-12.44,48.32-12.53,15.33-.08,32.09.71,45.32-8.42,10-6.93,15.45-18,16.94-29.94,4.1-32.66-16.7-58.62-29.64-86.52-7.17-15.46-12.28-33.81-5.72-50.37,4.81-12.16,14.95-21.57,26.48-27.34,11.82-5.92,25.89-8.3,38.84-5.2,13.83,3.31,24.11,13,31.15,25,13.57,23.2,15.54,51,26.23,75.42,10.82,24.68,32.51,41.17,60.4,37.77,69.3-8.44,79-97.18,62-150.62a126,126,0,0,0-21.44-40.9c-10.56-13.13-24-22.22-38.56-30.38-16.15-9-32.51-17.74-43.76-33-11.14-15.06-18.07-33.39-24.75-50.75-7.16-18.64-13.68-39.2-10.47-59.39,2.61-16.41,12.09-30.41,25.73-39.7,25.25-17.17,58.16-19.78,87.73-21.66,37.44-2.39,79.13-3.46,109.81,21.77a72.1,72.1,0,0,1,16.21,18.52c4.45,7.48,6,15.47,8.82,23.56,4.26,12.14,14.31,18.5,27.16,16.72,33.17-4.58,36.46-45.8,52-68.57,16.79-24.55,43.56-39.74,71.2-49.09,28.85-9.76,59.3-14.09,89.52-16.89,39.5-3.66,79.57-7,119.22-4,41.7,3.2,80,17.28,119.12,31A473.37,473.37,0,0,0,8007,1028.49c84.74,7.08,170.65,6.87,255.6,4.52q62.83-1.74,125.55-6.2c3.38-.24,3.41-5.54,0-5.3q-131.25,9.32-262.94,7c-43.13-.81-86.53-1.72-129.47-6a421.9,421.9,0,0,1-63.25-10.75c-20.1-5.17-39.64-12.28-59.18-19.24-38.1-13.58-75.76-24.3-116.4-26-38.83-1.65-78.14,1.64-116.74,5.75-54.7,5.81-119.7,17.88-153.81,65.88-9.6,13.5-13.88,29.08-21.15,43.75-7,14.06-24.8,32.1-42.11,21.78-8.25-4.92-8.9-15.41-11.76-23.64a67.27,67.27,0,0,0-10.35-19c-9.43-12.24-22.57-21.3-36.74-27.23-33.21-13.9-72.06-10.51-107-7.13-27.08,2.61-56.83,7.74-78.28,25.79-27.29,23-25.31,58.73-14.73,89.72,6,17.52,13.07,35.59,22.28,51.68,8.32,14.52,19.59,25.63,33.76,34.42,15,9.28,31.42,16.3,44.65,28.16,13.38,12,23.09,27.62,29.31,44.4,11.94,32.21,13.82,71.39,1.09,103.65-12.52,31.7-48.42,58.71-83.35,43.87-27.35-11.61-33.92-44-41.07-69.7-6.51-23.37-15.45-51-39.42-61.87-21.1-9.56-47.05-3.44-64.33,11.11-22.88,19.25-22,47.9-10.59,73.48,13.05,29.28,39.53,60.41,28.08,94.77-6.15,18.47-23.56,24.44-41.51,25.08-16.09.57-31.92-.67-47.39,4.8-28.51,10.09-49.78,35-61.29,62.29-15.12,35.86-14,76.21-11.78,114.29,1.27,21.65,2.7,43.29,4.06,64.94,1.28,20.29,1.86,40.77,4.28,61,3.51,29.31,15.76,61.32,48.32,67.27,11.78,2.16,24.38-.29,33-9.08,10.4-10.64,11.69-26.16,10.05-40.22-2.05-17.47-7.63-34.43-11.07-51.66-3.89-19.51-6.54-39.34-6.55-59.26,0-37.06,9.86-74.2,36.74-100.88,22.47-22.31,55.74-37,87.43-27.88,34.2,9.79,54.71,42.38,71.61,71.28,20.76,35.52,43.17,70.76,61.39,107.67,16.09,32.62,30.34,74.19,10.14,108.28-18.22,30.72-55.92,41.45-87.32,53.08q-58.2,21.56-114.29,48.32c-55.84,26.6-122.37,60-147.57,120.63-10.58,25.44-11.58,54,.15,79.23,11.3,24.27,32.55,43.73,56.95,54.39,23.65,10.33,50.39,12.35,74.63,2.83,2.2-.87,1.26-4.46-1-3.6Z" id="svg_3" stroke="#EEEAE5" stroke-opacity="1" stroke-width="8"/><path class="cls-1" d="M8382.2,1023.1799999999998 c47.82,1.31 95.7,-0.3300000000000002 143.54,1 s95.41,4.34 142.75,10.48 c47.83,6.2 95.2,15.78 141.39,29.73 c45.22,13.66 89.65,29.93 136.61,36.77 c88.38,12.88 178.2,-1.94 262.42,-29.52 c87.62,-28.69 170.5,-70.71 250.57,-116 c41.4,-23.42 82.08,-48.08 122.2,-73.62 q15,-9.57 30,-19.31 c8.46,-5.51 18.92,-10.53 25.66,-18.19 c3.41,-3.87 6.82,-11.5 2,-15.8 c-3.06,-2.75 -8.17,-1.17 -10.82,1.4100000000000001 s-2.81,5.87 0.7400000000000003,7.61 c1.8900000000000001,0.92 3.55,-1.9100000000000001 1.6500000000000006,-2.84 c-2.05,-1 1.35,-2.92 2.25,-3.21 c4.23,-1.35 4.51,4.53 3,7.29 c-2.75,4.9 -8.18,8 -12.71,10.93 q-13.91,9.15 -27.9,18.17 q-28,18 -56.33,35.51 q-56.2,34.57 -114.09,66.28 c-75.77,41.25 -154.12,79 -236.93,103.88 c-81.18,24.41 -167.54,36.19 -251.72,21.72 c-43.37,-7.46 -84.68,-22.67 -126.69,-35.27 a871.16,871.16 0 0 0 -130.17,-28 c-87.36,-12.16 -175.92,-13.4 -264,-12 c-11.17,0.17 -22.29,0.47000000000000014 -33.44,1.11 a0.93,0.93 0 0 0 0,1.85 z" id="svg_4" stroke="#EEEAE5" stroke-opacity="1" stroke-width="10"/><path class="cls-1" d="M3654.16,969.56c-107.12-40.84-220.34-79.49-336.63-72.81-113.48,6.51-219.06,52.59-330,72.9-93.33,17.1-200.25,16.35-280.1-41.74-40.9-29.76-69.9-72.76-88.21-119.48a397.36,397.36,0,0,1-20.09-70.49c-4.82-25.12-4.7-52.2-13.74-76.31-8.39-22.36-26.38-37.27-46.25-49.36-23.67-14.42-48.5-27.21-73.32-39.54a1289.2,1289.2,0,0,0-155.71-65q-19.91-6.83-40-13c-2.48-.76-3.53,3.11-1.07,3.87a1297.92,1297.92,0,0,1,161.43,61.6q39.39,18.13,77.49,38.9c21.94,11.95,46.51,23.81,62.46,43.69,17.86,22.26,17.93,52,22,78.94A420.44,420.44,0,0,0,2609.17,792c14.93,44.66,38.47,87.15,72.86,119.77,69.86,66.23,171.18,78.32,263.08,68.06,110.37-12.32,213.71-57.58,323.31-74,58.8-8.83,117.79-7,176.2,3.9,57.43,10.71,113.2,28.77,168.09,48.47,13.53,4.86,27,9.82,40.53,14.75,2.11.77,3-2.56.92-3.35Z" id="svg_5" stroke="#EEEAE5" stroke-opacity="1" stroke-width="8"/><path class="cls-1" d="M2284,499.33c-158-42.88-322.53-53.71-485.64-51.86C1634,449.33,1470.24,464,1306.2,472.32c-150.26,7.66-301.53,9.41-451.21-8-148.55-17.3-296-54.47-429.06-124-114.46-59.84-233.76-156.59-257.53-291A260.92,260.92,0,0,1,164.59,0c0-2.4-3.69-2.4-3.73,0C159,133,257.91,240,363.14,308.23,486.19,388,631.55,432.79,775.21,456.76c149.25,24.91,301.33,27.81,452.26,22.64,164.86-5.64,329.2-21.14,494.08-26.53,167.49-5.47,336.7-.85,501,34.8,20.3,4.41,40.53,9.11,60.63,14.35a1.4,1.4,0,0,0,.75-2.69Z" id="svg_6" stroke="#EEEAE5" stroke-opacity="1" stroke-width="10"/><path class="cls-1" d="M9620.82,833.61c147.14-51.67,301.84-77.43,457.89-72.81a1225,1225,0,0,1,231.8,29c76.72,17.21,151.19,42.66,224.71,70.29,74.75,28.09,148.71,58.33,224.3,84.13a1617.51,1617.51,0,0,0,228.75,59.9c154.75,28.58,312.7,35.77,469.79,31.81,159.36-4,318.17-19.37,476.6-36.25q29.86-3.18,59.72-6.42c2.66-.29,2.68-4.49,0-4.2-159.85,17.29-319.9,34.23-480.61,40.84-159.77,6.57-320.6,2.94-478.79-22-78.57-12.38-156.33-30-232.25-53.84-75.51-23.67-149.08-52.92-222.91-81.29-74.39-28.59-149.28-56.41-226.46-76.63a1218.68,1218.68,0,0,0-225.23-36.77c-152.54-10.45-307,7.33-453,53.15q-27.74,8.72-54.92,19c-1.31.49-.77,2.59.58,2.12Z" id="svg_7" stroke="#EEEAE5" stroke-opacity="1" stroke-width="10"/></g></svg>
